<svg width="291" height="303" viewBox="0 0 291 303" fill="none" xmlns="http://www.w3.org/2000/svg">
<path d="M253.024 241.485H43.1084C43.1084 241.485 34.7625 244.321 30.1589 221.754C25.5553 199.186 49.2485 193.138 54.8823 173.649C60.516 154.161 35.9382 158.263 38.0043 131.593C40.0704 104.923 73.8438 104.408 90.2271 108.002C106.61 111.595 104.562 99.2812 123.506 78.762C142.45 58.2429 171.108 60.3033 185.436 76.1986C199.765 92.094 195.168 108.511 213.087 108.511C231.007 108.511 247.39 112.104 258.14 146.464C268.889 180.825 249.241 196.532 249.596 212.021C249.897 221.929 251.044 231.789 253.024 241.485Z" fill="#ECD28B"/>
<path opacity="0.6" d="M253.024 241.485H43.1084C43.1084 241.485 34.7625 244.321 30.1589 221.754C25.5553 199.186 49.2485 193.138 54.8823 173.649C60.516 154.161 35.9382 158.263 38.0043 131.593C40.0704 104.923 73.8438 104.408 90.2271 108.002C106.61 111.595 104.562 99.2812 123.506 78.762C142.45 58.2429 171.108 60.3033 185.436 76.1986C199.765 92.094 195.168 108.511 213.087 108.511C231.007 108.511 247.39 112.104 258.14 146.464C268.889 180.825 249.241 196.532 249.596 212.021C249.897 221.929 251.044 231.789 253.024 241.485Z" fill="white"/>
<path d="M161.406 75.5684H121.83V134.956H161.406V75.5684Z" fill="#ECD28B"/>
<path opacity="0.4" d="M161.406 75.5684H121.83V134.956H161.406V75.5684Z" fill="white"/>
<path d="M155.755 84.0527H127.487V126.473H155.755V84.0527Z" fill="white"/>
<path d="M90.3152 111.122H62.8564V152.33H90.3152V111.122Z" fill="#ECD28B"/>
<path opacity="0.4" d="M90.3152 111.122H62.8564V152.33H90.3152V111.122Z" fill="white"/>
<path d="M86.3927 117.007H66.7793V146.44H86.3927V117.007Z" fill="white"/>
<path d="M223.594 111.122H196.135V152.33H223.594V111.122Z" fill="#ECD28B"/>
<path opacity="0.4" d="M223.594 111.122H196.135V152.33H223.594V111.122Z" fill="white"/>
<path d="M219.67 117.007H200.057V146.44H219.67V117.007Z" fill="white"/>
<path d="M193.009 193.563C191.845 196.593 190.611 194.169 190.803 181.406C190.896 175.431 191.298 163.226 197.648 165.911C203.741 168.493 195.709 186.545 195.709 186.545L193.009 193.563ZM201.739 195.381C201.739 195.381 214.968 181.025 210.003 176.522C204.841 171.832 200.651 183.243 198.701 188.866C194.545 200.859 194.93 203.58 196.996 201.101L201.739 195.381ZM204.527 208.264C204.527 208.264 216.638 199.283 213.472 195.09C210.178 190.727 205.388 198.823 203.112 202.822C198.264 211.367 198.183 213.506 200.104 211.912L204.527 208.264ZM207.803 221.111C207.803 221.111 219.921 212.131 216.755 207.937C213.455 203.574 208.665 211.664 206.395 215.67C201.547 224.208 201.46 226.353 203.386 224.76L207.803 221.111ZM186.654 195.284C186.654 195.284 169.7 186.097 166.947 192.32C164.078 198.799 175.77 199.78 181.497 200.144C193.719 200.932 196.123 199.78 193.259 198.411L186.654 195.284ZM189.04 205.392C189.04 205.392 170.672 199.902 169.159 206.574C167.587 213.512 179.233 212.028 184.919 211.228C197.048 209.47 199.178 207.846 196.111 207.095L189.04 205.392ZM193.242 216.421C193.242 216.421 177.592 212.215 176.457 217.894C175.293 223.802 185.1 222.287 189.889 221.451C200.104 219.669 201.873 218.245 199.265 217.688L193.242 216.421ZM195.692 225.511C195.692 225.511 180.56 219.597 178.855 225.117C177.08 230.868 187.003 230.444 191.845 230.141C202.187 229.499 204.067 228.28 201.547 227.432L195.692 225.511ZM185.548 179.376C185.548 179.376 178.639 157.015 170.794 161.081C162.646 165.323 172.063 175.389 176.783 180.219C186.846 190.521 189.959 191.236 188.638 187.642L185.548 179.376Z" fill="white"/>
<path d="M174.076 169.074C174.076 169.074 191.431 191.12 195.581 202.156C200.353 214.839 203.601 229.123 204.247 240.94" stroke="#CCCCCC" stroke-width="1.25197" stroke-linecap="round" stroke-linejoin="round"/>
<path d="M192.124 194.951L194.539 173.929" stroke="#CCCCCC" stroke-width="1.25197" stroke-linecap="round" stroke-linejoin="round"/>
<path d="M195.581 202.149L204.311 184.479" stroke="#CCCCCC" stroke-width="1.25197" stroke-linecap="round" stroke-linejoin="round"/>
<path d="M194.307 199.532L176.021 195.653" stroke="#CCCCCC" stroke-width="1.25197" stroke-linecap="round" stroke-linejoin="round"/>
<path d="M199.015 212.179L209.764 199.429" stroke="#CCCCCC" stroke-width="1.25197" stroke-linecap="round" stroke-linejoin="round"/>
<path d="M197.513 207.981L183.714 207.853" stroke="#CCCCCC" stroke-width="1.25197" stroke-linecap="round" stroke-linejoin="round"/>
<path d="M200.173 218.415L189.587 218.845" stroke="#CCCCCC" stroke-width="1.25197" stroke-linecap="round" stroke-linejoin="round"/>
<path d="M202.344 225.069L208.012 217.203" stroke="#CCCCCC" stroke-width="1.25197" stroke-linecap="round" stroke-linejoin="round"/>
<path d="M202.763 227.996L190.378 227.354" stroke="#CCCCCC" stroke-width="1.25197" stroke-linecap="round" stroke-linejoin="round"/>
<path d="M237.253 210.973C235.117 211.809 235.769 209.937 242.374 203.78C245.471 200.889 251.907 195.114 253.653 199.95C255.335 204.598 242.165 209.04 242.165 209.04L237.253 210.973ZM240.611 216.688C240.611 216.688 254.451 216.96 254.311 211.997C254.166 206.834 246.28 210.119 242.45 211.803C234.302 215.397 233.074 216.948 235.355 216.876L240.611 216.688ZM235.402 224.566C235.402 224.566 245.942 226.862 246.53 223.045C247.112 219.075 240.646 220.402 237.486 221.111C230.74 222.62 229.605 223.626 231.357 223.917L235.402 224.566ZM230.472 232.704C230.472 232.704 241.018 235.001 241.6 231.183C242.211 227.214 235.722 228.535 232.556 229.244C225.816 230.753 224.652 231.759 226.398 232.05L230.472 232.704ZM233.272 208.295C233.272 208.295 229.629 194.387 225.124 195.92C220.404 197.514 225.653 204.477 228.284 207.828C233.889 214.985 235.658 215.748 234.948 213.488L233.272 208.295ZM229.279 214.585C229.279 214.585 223.058 201.713 218.908 204.15C214.584 206.695 221.056 212.427 224.268 215.167C231.13 221.021 232.998 221.402 231.887 219.336L229.279 214.585ZM225.712 222.33C225.712 222.33 220.165 211.597 216.708 213.761C213.111 216.015 218.71 220.705 221.492 222.948C227.423 227.729 229.017 228.008 228.022 226.287L225.712 222.33ZM222.266 228.165C222.266 228.165 217.843 216.876 214.188 218.645C210.382 220.463 215.468 225.772 218.006 228.311C223.419 233.722 224.99 234.177 224.164 232.353L222.266 228.165ZM240.838 199.883C240.838 199.883 248.864 185.067 242.933 182.721C236.764 180.297 236.246 190.46 236.1 195.447C235.786 206.089 236.95 208.173 238.137 205.665L240.838 199.883Z" fill="white"/>
<path d="M240.454 188.466C240.454 188.466 237.724 208.912 234.127 216.639C229.995 225.511 223.756 234.958 218.029 241.127" stroke="#CCCCCC" stroke-width="1.25197" stroke-linecap="round" stroke-linejoin="round"/>
<path d="M236.105 211.167L248.031 202.174" stroke="#CCCCCC" stroke-width="1.25197" stroke-linecap="round" stroke-linejoin="round"/>
<path d="M234.127 216.621L247.443 212.767" stroke="#CCCCCC" stroke-width="1.25197" stroke-linecap="round" stroke-linejoin="round"/>
<path d="M234.837 214.627L227.83 202.592" stroke="#CCCCCC" stroke-width="1.25197" stroke-linecap="round" stroke-linejoin="round"/>
<path d="M230.693 223.451L242.49 223.136" stroke="#CCCCCC" stroke-width="1.25197" stroke-linecap="round" stroke-linejoin="round"/>
<path d="M232.102 220.554L225.38 212.846" stroke="#CCCCCC" stroke-width="1.25197" stroke-linecap="round" stroke-linejoin="round"/>
<path d="M228.075 227.154L222.65 221.506" stroke="#CCCCCC" stroke-width="1.25197" stroke-linecap="round" stroke-linejoin="round"/>
<path d="M225.74 231.632L232.55 230.904" stroke="#CCCCCC" stroke-width="1.25197" stroke-linecap="round" stroke-linejoin="round"/>
<path d="M224.448 233.298L218.692 226.129" stroke="#CCCCCC" stroke-width="1.25197" stroke-linecap="round" stroke-linejoin="round"/>
<path d="M58.9044 193.562C57.7404 196.592 56.5066 194.168 56.6986 181.406C56.7917 175.431 57.1933 163.226 63.5429 165.911C69.6423 168.492 61.6049 186.545 61.6049 186.545L58.9044 193.562ZM67.6344 195.38C67.6344 195.38 80.8633 181.024 75.9046 176.522C70.7365 171.831 66.5461 183.242 64.5964 188.866C60.4409 200.859 60.825 203.58 62.8911 201.101L67.6344 195.38ZM70.4222 208.252C70.4222 208.252 82.5394 199.271 79.3675 195.077C76.0734 190.714 71.2835 198.81 69.0079 202.81C64.1599 211.355 64.0784 213.494 66.0048 211.9L70.4222 208.252ZM73.7047 221.099C73.7047 221.099 85.8044 212.1 82.6442 207.925C79.3442 203.561 74.5544 211.652 72.2846 215.657C67.4365 224.196 67.3492 226.341 69.2756 224.747L73.7047 221.099ZM52.5373 195.271C52.5373 195.271 35.5895 186.084 32.8308 192.308C29.9615 198.786 41.6539 199.768 47.3808 200.131C59.6028 200.919 62.0006 199.768 59.1372 198.398L52.5373 195.271ZM54.9235 205.379C54.9235 205.379 36.5614 199.889 35.0424 206.561C33.471 213.5 45.1168 212.015 50.803 211.215C62.9318 209.458 65.0678 207.834 62.0006 207.082L54.9235 205.379ZM59.1256 216.409C59.1256 216.409 43.4756 212.203 42.3407 217.881C41.1767 223.79 50.9834 222.275 55.7732 221.438C65.9873 219.657 67.7566 218.233 65.1493 217.675L59.1256 216.409ZM61.5758 225.499C61.5758 225.499 46.4438 219.584 44.7385 225.105C42.9634 230.856 52.8865 230.431 57.7288 230.128C68.0709 229.486 69.9508 228.268 67.4365 227.42L61.5758 225.499ZM51.4432 179.376C51.4432 179.376 44.5348 157.039 36.6662 161.105C28.5182 165.347 37.9349 175.413 42.655 180.243C52.7236 190.545 55.8373 191.26 54.5103 187.666L51.4432 179.376Z" fill="white"/>
<path d="M39.9717 169.074C39.9717 169.074 57.3269 191.12 61.4766 202.156C66.249 214.839 69.4965 229.123 70.1426 240.94" stroke="#CCCCCC" stroke-width="1.25197" stroke-linecap="round" stroke-linejoin="round"/>
<path d="M58.0254 194.951L60.4349 173.929" stroke="#CCCCCC" stroke-width="1.25197" stroke-linecap="round" stroke-linejoin="round"/>
<path d="M61.4766 202.149L70.2066 184.479" stroke="#CCCCCC" stroke-width="1.25197" stroke-linecap="round" stroke-linejoin="round"/>
<path d="M60.2025 199.532L41.9219 195.653" stroke="#CCCCCC" stroke-width="1.25197" stroke-linecap="round" stroke-linejoin="round"/>
<path d="M64.9102 212.179L75.6597 199.429" stroke="#CCCCCC" stroke-width="1.25197" stroke-linecap="round" stroke-linejoin="round"/>
<path d="M63.4096 207.981L49.6104 207.853" stroke="#CCCCCC" stroke-width="1.25197" stroke-linecap="round" stroke-linejoin="round"/>
<path d="M66.069 218.415L55.4824 218.845" stroke="#CCCCCC" stroke-width="1.25197" stroke-linecap="round" stroke-linejoin="round"/>
<path d="M68.2451 225.069L73.9138 217.203" stroke="#CCCCCC" stroke-width="1.25197" stroke-linecap="round" stroke-linejoin="round"/>
<path d="M68.6584 227.996L56.2734 227.354" stroke="#CCCCCC" stroke-width="1.25197" stroke-linecap="round" stroke-linejoin="round"/>
<path d="M103.148 210.973C101.012 211.809 101.664 209.937 108.27 203.78C111.372 200.889 117.803 195.114 119.549 199.95C121.231 204.598 108.06 209.04 108.06 209.04L103.148 210.973ZM106.506 216.688C106.506 216.688 120.346 216.96 120.207 211.997C120.061 206.834 112.175 210.119 108.345 211.803C100.197 215.397 98.9694 216.948 101.251 216.876L106.506 216.688ZM101.297 224.566C101.297 224.566 111.837 226.862 112.425 223.045C113.007 219.075 106.541 220.402 103.381 221.111C96.6123 222.62 95.5007 223.614 97.2525 223.917L101.297 224.566ZM96.3446 232.704C96.3446 232.704 106.89 235.001 107.472 231.183C108.084 227.214 101.594 228.535 98.434 229.244C91.6828 230.759 90.5479 231.765 92.3055 232.056L96.3446 232.704ZM99.144 208.295C99.144 208.295 95.5065 194.387 90.996 195.92C86.276 197.514 91.5198 204.477 94.1505 207.828C99.7551 214.985 101.524 215.748 100.814 213.488L99.144 208.295ZM95.1515 214.585C95.1515 214.585 88.9299 201.713 84.7803 204.15C80.456 206.695 86.9278 212.427 90.1463 215.167C97.0081 221.021 98.8763 221.402 97.7589 219.336L95.1515 214.585ZM91.5838 222.33C91.5838 222.33 86.0374 211.597 82.5803 213.761C78.9835 216.015 84.5824 220.705 87.3643 222.948C93.2949 227.729 94.8954 228.008 93.8944 226.287L91.5838 222.33ZM88.1384 228.165C88.1384 228.165 83.721 216.876 80.0602 218.645C76.254 220.463 81.3465 225.772 83.8782 228.311C89.2908 233.722 90.8622 234.177 90.0357 232.353L88.1384 228.165ZM106.71 199.883C106.71 199.883 114.742 185.067 108.811 182.721C102.636 180.297 102.124 190.46 101.973 195.447C101.664 206.089 102.822 208.173 104.01 205.665L106.71 199.883Z" fill="white"/>
<path d="M106.349 188.466C106.349 188.466 103.62 208.912 100.023 216.639C95.8907 225.511 89.6517 234.958 83.9248 241.127" stroke="#CCCCCC" stroke-width="1.25197" stroke-linecap="round" stroke-linejoin="round"/>
<path d="M102.002 211.167L113.927 202.174" stroke="#CCCCCC" stroke-width="1.25197" stroke-linecap="round" stroke-linejoin="round"/>
<path d="M100.022 216.621L113.339 212.767" stroke="#CCCCCC" stroke-width="1.25197" stroke-linecap="round" stroke-linejoin="round"/>
<path d="M100.733 214.627L93.7256 202.592" stroke="#CCCCCC" stroke-width="1.25197" stroke-linecap="round" stroke-linejoin="round"/>
<path d="M96.5889 223.451L108.386 223.136" stroke="#CCCCCC" stroke-width="1.25197" stroke-linecap="round" stroke-linejoin="round"/>
<path d="M97.9975 220.554L91.2754 212.846" stroke="#CCCCCC" stroke-width="1.25197" stroke-linecap="round" stroke-linejoin="round"/>
<path d="M93.9701 227.154L88.5459 221.506" stroke="#CCCCCC" stroke-width="1.25197" stroke-linecap="round" stroke-linejoin="round"/>
<path d="M91.6357 231.632L98.4451 230.904" stroke="#CCCCCC" stroke-width="1.25197" stroke-linecap="round" stroke-linejoin="round"/>
<path d="M90.3497 233.298L84.5879 226.129" stroke="#CCCCCC" stroke-width="1.25197" stroke-linecap="round" stroke-linejoin="round"/>
<path d="M136.461 116.17C136.461 116.17 129.011 113.697 123.314 119.806C117.616 125.914 120.619 138.113 120.619 142.397C120.619 146.682 115.381 173.909 115.381 173.909C115.381 173.909 112.843 183.805 119.816 190.077C126.788 196.35 139.674 195.804 145.174 183.733C150.673 171.661 144.842 154.451 144.842 145.555C144.842 136.659 146.111 130.714 144.207 124.284C143.63 122.387 142.625 120.661 141.278 119.25C139.931 117.839 138.279 116.783 136.461 116.17Z" fill="#263238" stroke="#263238" stroke-linecap="round" stroke-linejoin="round"/>
<path d="M134.25 120.794C134.25 120.794 127.068 130.09 122.22 132.714" stroke="white" stroke-linecap="round" stroke-linejoin="round"/>
<path d="M128.04 119.987C128.04 119.987 124.356 129.277 121.056 131.907" stroke="white" stroke-linecap="round" stroke-linejoin="round"/>
<path d="M148.707 151.942C149.395 152.444 149.973 153.093 150.402 153.845C150.832 154.597 151.103 155.436 151.198 156.305C151.623 159.396 148.457 166.541 147.822 170.074C147.223 174.363 146.836 178.681 146.664 183.012C146.664 184.115 150.273 200.452 150.907 204.428C151.541 208.403 150.587 217.76 150.057 218.445C149.528 219.129 148.044 215.905 147.939 213.809C147.834 211.712 143.911 195.592 142.427 190.738C140.943 185.884 141.362 179.479 141.362 179.479C141.362 179.479 143.382 164.795 143.382 159.166C143.382 153.536 143.545 149.324 143.545 149.324L148.707 151.942Z" fill="#ECD28B" stroke="#263238" stroke-linecap="round" stroke-linejoin="round"/>
<path d="M150.046 218.42C150.575 217.76 151.53 208.373 150.895 204.404C150.261 200.434 146.664 184.091 146.664 183.012C146.839 178.689 147.228 174.379 147.828 170.098C148.061 168.965 148.36 167.848 148.724 166.753C147.477 167.378 146.11 167.701 144.726 167.698C143.987 167.698 143.265 168.407 142.573 169.613C141.991 174.74 141.356 179.479 141.356 179.479C141.356 179.479 140.937 185.878 142.421 190.738C143.905 195.599 147.828 211.712 147.933 213.809C148.038 215.906 149.516 219.081 150.046 218.42Z" fill="white" stroke="#263238" stroke-linecap="round" stroke-linejoin="round"/>
<path d="M128.761 241.6C128.994 238.885 129.483 233.359 129.797 231.225C130.222 228.359 131.066 222.505 131.066 222.505L133.214 241.6H147.927C148.456 237.437 149.789 226.274 150.045 218.421C150.365 208.597 143.259 188.284 143.061 186.739C142.863 185.194 143.271 180.679 143.271 179.346C143.271 178.013 146.972 169.553 147.286 165.244C147.601 160.935 148.561 159.614 148.561 159.614L149.091 152.342C148.77 152.233 144.016 148.337 139.243 146.888C136.341 146.031 133.276 145.956 130.339 146.67C130.339 146.67 123.448 149.87 119.95 151.415C116.452 152.96 113.577 155.942 113.49 159.802C113.402 163.662 120.27 180.115 120.91 181.333C121.55 182.551 119.531 186.848 118.681 189.06C117.831 191.272 114.334 199.216 112.006 208.046C110.009 215.585 111.342 235.843 111.779 241.6H128.761Z" fill="#ECD28B" stroke="#263238" stroke-linecap="round" stroke-linejoin="round"/>
<path d="M132.067 178.284C132.067 178.284 137.503 178.963 142.945 173.527" stroke="#263238" stroke-linecap="round" stroke-linejoin="round"/>
<path d="M135.839 162.457C137.428 162.014 139.447 155.185 139.657 151.639C139.773 149.658 139.89 148.179 139.837 147.088C139.64 147.022 139.436 146.949 139.255 146.888C136.353 146.031 133.289 145.956 130.351 146.67L127.546 147.967C127.311 149.537 127.474 151.143 128.017 152.627C129.164 155.942 134.25 162.899 135.839 162.457Z" fill="white" stroke="#263238" stroke-linecap="round" stroke-linejoin="round"/>
<path d="M128.738 143.282C128.738 143.282 129.274 149.785 129.594 151.378C129.914 152.972 133.132 159.256 134.954 158.911C136.776 158.565 137.934 150.354 137.934 149.554C137.934 148.754 138.149 142.282 138.149 142.282C138.149 142.282 134.314 145.561 128.738 143.282Z" fill="white" stroke="#263238" stroke-linecap="round" stroke-linejoin="round"/>
<path d="M118.238 152.518C118.238 152.518 113.897 152.742 111.458 157.82C109.02 162.898 111.877 166.304 112.832 168.304C113.786 170.304 116.44 178.46 117.284 180.891C118.128 183.321 119.833 186.187 122.801 190.162C125.77 194.138 132.02 202.634 132.02 202.634L133.72 205.724C133.72 205.724 136.583 209.148 136.897 209.257C137.212 209.366 139.126 211.906 139.866 210.36C140.605 208.815 139.866 203.3 139.866 203.3C139.866 203.3 141.03 205.724 141.46 205.173C141.891 204.621 141.35 203.409 140.931 202.082C140.512 200.755 136.589 198.222 135.733 198.107C134.878 197.992 133.824 196.895 132.556 194.247C131.287 191.599 130.327 186.975 128.313 184.199C126.299 181.424 123.657 177.358 123.657 177.358C123.657 177.358 120.689 166.316 120.689 165.874C120.906 163.812 120.615 161.727 119.845 159.814" fill="#ECD28B"/>
<path d="M118.238 152.518C118.238 152.518 113.897 152.742 111.458 157.82C109.02 162.898 111.877 166.304 112.832 168.304C113.786 170.304 116.44 178.46 117.284 180.891C118.128 183.321 119.833 186.187 122.801 190.162C125.77 194.138 132.02 202.634 132.02 202.634L133.72 205.724C133.72 205.724 136.583 209.148 136.897 209.257C137.212 209.366 139.126 211.906 139.866 210.36C140.605 208.815 139.866 203.3 139.866 203.3C139.866 203.3 141.03 205.724 141.46 205.173C141.891 204.621 141.35 203.409 140.931 202.082C140.512 200.755 136.589 198.222 135.733 198.107C134.878 197.992 133.824 196.895 132.556 194.247C131.287 191.599 130.327 186.975 128.313 184.199C126.299 181.424 123.657 177.358 123.657 177.358C123.657 177.358 120.689 166.316 120.689 165.874C120.906 163.812 120.615 161.727 119.845 159.814" stroke="#263238" stroke-linecap="round" stroke-linejoin="round"/>
<path d="M135.734 198.107C134.884 197.998 133.825 196.895 132.556 194.247C131.287 191.598 130.327 186.975 128.313 184.199C126.3 181.424 123.657 177.357 123.657 177.357C123.657 177.357 121.649 169.879 120.939 166.989C117.04 166.419 114.467 167.237 112.832 168.28C113.787 170.267 116.44 178.436 117.284 180.866C118.128 183.296 119.833 186.163 122.802 190.138C125.77 194.113 132.021 202.609 132.021 202.609L133.72 205.7C133.72 205.7 136.583 209.124 136.898 209.233C137.212 209.342 139.127 211.881 139.866 210.336C140.605 208.791 139.866 203.276 139.866 203.276C139.866 203.276 141.03 205.7 141.461 205.149C141.891 204.597 141.35 203.385 140.931 202.058C140.512 200.731 136.589 198.222 135.734 198.107Z" fill="white" stroke="#263238" stroke-linecap="round" stroke-linejoin="round"/>
<path d="M128.761 241.6C128.994 238.885 129.483 233.358 129.797 231.225C130.222 228.359 131.066 222.505 131.066 222.505L133.214 241.6H147.927C148.456 237.436 149.789 226.274 150.045 218.42C150.179 214.33 149.021 208.415 147.612 202.797C135.175 205.634 121.073 203.579 113.752 202.101C113.135 203.997 112.529 205.991 112.006 208.045C110.009 215.584 111.342 235.843 111.779 241.6H128.761Z" fill="#263238" stroke="#263238" stroke-linecap="round" stroke-linejoin="round"/>
<path d="M125.054 133.599C125.054 133.599 124.105 133.156 124.105 135.138C124.105 137.12 126.218 138.435 126.218 138.435L125.054 133.599Z" fill="white" stroke="#263238" stroke-linecap="round" stroke-linejoin="round"/>
<path d="M135.943 122.715C135.943 122.715 132.556 127.684 129.582 129.672C128.048 130.722 126.456 131.679 124.815 132.538C124.815 132.538 126.3 138.944 126.934 141.022C127.568 143.101 129.471 146.773 133.289 146.991C137.107 147.209 138.807 143.01 139.552 141.022C139.976 139.995 140.203 138.892 140.221 137.774C140.757 137.421 141.214 136.953 141.561 136.401C141.908 135.849 142.138 135.226 142.235 134.574C142.444 132.478 141.915 132.587 141.915 132.587C141.915 132.587 141.333 133.271 140.07 132.241C139.045 131.447 135.606 125.696 135.943 122.715Z" fill="white" stroke="#263238" stroke-linecap="round" stroke-linejoin="round"/>
<path d="M127.859 135.265C127.859 135.265 129.355 134.126 131.543 135.265" stroke="#263238" stroke-linecap="round" stroke-linejoin="round"/>
<path d="M134.628 135.471C134.628 135.471 136.42 133.81 138.312 135.162" stroke="#263238" stroke-linecap="round" stroke-linejoin="round"/>
<path d="M127.562 132.774C127.562 132.774 128.36 131.223 131.054 131.95" stroke="#263238" stroke-linecap="round" stroke-linejoin="round"/>
<path d="M134.628 132.054C135.238 131.59 135.989 131.377 136.74 131.453C137.491 131.528 138.189 131.889 138.702 132.466" stroke="#263238" stroke-linecap="round" stroke-linejoin="round"/>
<path d="M134.331 138.889C134.331 138.889 132.737 140.028 132.044 138.889" stroke="#263238" stroke-linecap="round" stroke-linejoin="round"/>
<path d="M131.444 141.277C131.444 141.277 133.435 142.101 134.43 141.174" stroke="#263238" stroke-linecap="round" stroke-linejoin="round"/>
<path d="M97.8048 200.847C97.8048 200.847 102.461 211.609 103.572 213.779C104.684 215.948 105.976 222.123 106.133 225.789C106.29 229.456 106.133 230.213 105.336 230.128C104.539 230.044 104.213 225.456 104.213 224.705V223.541C104.213 223.541 103.811 227.874 103.171 228.71C102.531 229.547 101.646 230.462 101.57 229.965C101.495 229.468 101.727 228.626 102.048 227.377C102.241 226.417 102.296 225.433 102.211 224.456C102.211 224.456 101.727 226.789 100.61 227.626C99.4926 228.462 98.282 228.795 98.6836 228.129C99.0852 227.462 100.127 226.711 100.366 225.874C100.531 225.109 100.613 224.326 100.61 223.541C100.61 223.541 99.0852 226.123 98.445 226.541C97.8048 226.959 97.8048 226.044 98.2064 225.626C98.6079 225.208 99.4868 222.372 99.4868 222.372C99.4868 222.372 99.2423 222.202 98.1249 219.62C97.0074 217.039 96.3789 212.524 96.0413 210.773C95.7038 209.021 95.081 206.688 95.081 206.688L88.9118 195.926C88.9118 195.926 88.4288 193.338 90.7509 192.896C93.0731 192.453 97.8048 200.847 97.8048 200.847Z" fill="white"/>
<mask id="mask0_5_234" style="mask-type:luminance" maskUnits="userSpaceOnUse" x="88" y="192" width="19" height="39">
<path d="M97.8048 200.847C97.8048 200.847 102.461 211.609 103.572 213.779C104.684 215.948 105.976 222.123 106.133 225.789C106.29 229.456 106.133 230.213 105.336 230.128C104.539 230.044 104.213 225.456 104.213 224.705V223.541C104.213 223.541 103.811 227.874 103.171 228.71C102.531 229.547 101.646 230.462 101.57 229.965C101.495 229.468 101.727 228.626 102.048 227.377C102.241 226.417 102.296 225.433 102.211 224.456C102.211 224.456 101.727 226.789 100.61 227.626C99.4926 228.462 98.282 228.795 98.6836 228.129C99.0852 227.462 100.127 226.711 100.366 225.874C100.531 225.109 100.613 224.326 100.61 223.541C100.61 223.541 99.0852 226.123 98.445 226.541C97.8048 226.959 97.8048 226.044 98.2064 225.626C98.6079 225.208 99.4868 222.372 99.4868 222.372C99.4868 222.372 99.2423 222.202 98.1249 219.62C97.0074 217.039 96.3789 212.524 96.0413 210.773C95.7038 209.021 95.081 206.688 95.081 206.688L88.9118 195.926C88.9118 195.926 88.4288 193.338 90.7509 192.896C93.0731 192.453 97.8048 200.847 97.8048 200.847Z" fill="white"/>
</mask>
<g mask="url(#mask0_5_234)">
<path opacity="0.15" d="M97.8048 200.847C97.8048 200.847 102.461 211.609 103.572 213.779C104.684 215.948 105.976 222.123 106.133 225.789C106.29 229.456 106.133 230.213 105.336 230.128C104.539 230.044 104.213 225.456 104.213 224.705V223.541C104.213 223.541 103.811 227.874 103.171 228.71C102.531 229.547 101.646 230.462 101.57 229.965C101.495 229.468 101.727 228.626 102.048 227.377C102.241 226.417 102.296 225.433 102.211 224.456C102.211 224.456 101.727 226.789 100.61 227.626C99.4926 228.462 98.282 228.795 98.6836 228.129C99.0852 227.462 100.127 226.711 100.366 225.874C100.531 225.109 100.613 224.326 100.61 223.541C100.61 223.541 99.0852 226.123 98.445 226.541C97.8048 226.959 97.8048 226.044 98.2064 225.626C98.6079 225.208 99.4868 222.372 99.4868 222.372C99.4868 222.372 99.2423 222.202 98.1249 219.62C97.0074 217.039 96.3789 212.524 96.0413 210.773C95.7038 209.021 95.081 206.688 95.081 206.688L88.9118 195.926C88.9118 195.926 88.4288 193.338 90.7509 192.896C93.0731 192.453 97.8048 200.847 97.8048 200.847Z" fill="black"/>
</g>
<path d="M97.8048 200.847C97.8048 200.847 102.461 211.609 103.572 213.779C104.684 215.948 105.976 222.123 106.133 225.789C106.29 229.456 106.133 230.213 105.336 230.128C104.539 230.044 104.213 225.456 104.213 224.705V223.541C104.213 223.541 103.811 227.874 103.171 228.71C102.531 229.547 101.646 230.462 101.57 229.965C101.495 229.468 101.727 228.626 102.048 227.377C102.241 226.417 102.296 225.433 102.211 224.456C102.211 224.456 101.727 226.789 100.61 227.626C99.4926 228.462 98.282 228.795 98.6836 228.129C99.0852 227.462 100.127 226.711 100.366 225.874C100.531 225.109 100.613 224.326 100.61 223.541C100.61 223.541 99.0852 226.123 98.445 226.541C97.8048 226.959 97.8048 226.044 98.2064 225.626C98.6079 225.208 99.4868 222.372 99.4868 222.372C99.4868 222.372 99.2423 222.202 98.1249 219.62C97.0074 217.039 96.3789 212.524 96.0413 210.773C95.7038 209.021 95.081 206.688 95.081 206.688L88.9118 195.926C88.9118 195.926 88.4288 193.338 90.7509 192.896C93.0731 192.453 97.8048 200.847 97.8048 200.847Z" stroke="#263238" stroke-linecap="round" stroke-linejoin="round"/>
<path d="M103.596 216.948C103.596 216.948 104.399 221.038 104.318 222.868C104.236 224.698 104.638 225.626 104.074 225.626C103.509 225.626 103.358 225.207 102.793 223.371C102.421 222.01 102.18 220.613 102.071 219.202C102.071 219.202 100.069 219.202 99.3477 216.111" fill="white"/>
<mask id="mask1_5_234" style="mask-type:luminance" maskUnits="userSpaceOnUse" x="99" y="216" width="6" height="10">
<path d="M103.596 216.948C103.596 216.948 104.399 221.038 104.318 222.868C104.236 224.698 104.638 225.626 104.074 225.626C103.509 225.626 103.358 225.207 102.793 223.371C102.421 222.01 102.18 220.613 102.071 219.202C102.071 219.202 100.069 219.202 99.3477 216.111" fill="white"/>
</mask>
<g mask="url(#mask1_5_234)">
<path opacity="0.15" d="M103.596 216.948C103.596 216.948 104.399 221.038 104.318 222.868C104.236 224.698 104.638 225.626 104.074 225.626C103.509 225.626 103.358 225.207 102.793 223.371C102.421 222.01 102.18 220.613 102.071 219.202C102.071 219.202 100.069 219.202 99.3477 216.111" fill="black"/>
</g>
<path d="M103.596 216.948C103.596 216.948 104.399 221.038 104.318 222.868C104.236 224.698 104.638 225.626 104.074 225.626C103.509 225.626 103.358 225.207 102.793 223.371C102.421 222.01 102.18 220.613 102.071 219.202C102.071 219.202 100.069 219.202 99.3477 216.111" stroke="#263238" stroke-linecap="round" stroke-linejoin="round"/>
<path d="M67.8319 241.6H97.3277C97.4732 235.855 98.4393 198.331 98.7303 196.653C99.0504 194.835 100.633 177.685 100.791 170.928C100.948 164.171 98.0959 154.433 98.0959 153.772C98.0959 153.112 97.6245 148.991 93.1896 145.525C88.7548 142.058 85.2686 142.064 84.32 142.555C84.32 142.555 80.828 145.034 75.2873 151.136C69.7467 157.238 67.8435 162.183 67.8435 171.583C67.8478 177.271 68.3248 182.948 69.2694 188.551C69.2694 188.551 67.5234 217.905 67.5234 218.566C67.5234 219.226 67.7795 237.679 67.8319 241.6Z" fill="white" stroke="#263238" stroke-linecap="round" stroke-linejoin="round"/>
<path d="M81.2181 175.242C81.8442 175.241 82.4698 175.205 83.0922 175.133C89.8783 174.364 95.7798 167.14 99.6733 160.898C99.4929 159.995 99.3125 159.129 99.1321 158.335C95.4597 164.571 89.5233 172.576 82.9059 173.327C73.6929 174.37 69.5199 166.813 68.3559 164.371C68.193 165.304 68.0707 166.286 67.9893 167.322C70.0495 170.57 74.2108 175.242 81.2181 175.242Z" fill="#263238"/>
<path d="M79.0059 160.663L80.6937 161.129C82.4334 154.534 85.8518 148.55 90.5877 143.81C90.0238 143.5 89.4405 143.231 88.8417 143.004C84.1297 147.888 80.7372 153.979 79.0059 160.663Z" fill="#263238"/>
<path d="M80.6646 169.358C81.0603 169.146 89.3073 164.674 98.014 152.996C97.8789 152.264 97.6641 151.551 97.3738 150.869C88.6089 162.989 79.9662 167.68 79.873 167.728L80.6646 169.358Z" fill="#263238"/>
<path d="M72.0572 162.783L73.8032 162.511C73.8032 162.462 73.2969 158.166 77.3592 148.942C76.7074 149.615 76.0264 150.342 75.3048 151.136C74.8392 151.645 74.4085 152.148 73.9953 152.651C71.6149 159.378 72.0339 162.602 72.0572 162.783Z" fill="#263238"/>
<path d="M86.4554 189.721C76.4218 191.078 71.3234 188.884 69.042 187.2C69.1759 188.084 69.269 188.575 69.269 188.575C69.269 188.575 69.269 188.896 69.2166 189.478C71.4515 190.757 75.0366 191.969 80.5249 191.969C82.5844 191.959 84.6412 191.812 86.6824 191.526C91.3075 190.907 95.7533 189.271 99.725 186.727C99.7949 185.963 99.8589 185.182 99.9229 184.388C95.8968 187.239 91.2838 189.066 86.4554 189.721Z" fill="#263238"/>
<path d="M85.9376 200.907C90.5499 199.685 94.9411 197.692 98.9395 195.004C99.0093 194.35 99.0908 193.55 99.1839 192.635C95.0305 195.62 90.4048 197.821 85.5185 199.137C78.7615 200.864 72.2024 198.937 68.7395 197.549C68.7046 198.155 68.6638 198.81 68.6289 199.464C72.2181 200.869 76.0157 201.61 79.8499 201.652C81.9004 201.657 83.944 201.406 85.9376 200.907Z" fill="#263238"/>
<path d="M67.8489 212.784C67.8082 213.439 67.7732 214.057 67.7441 214.602C72.2436 215.727 76.8521 216.31 81.4793 216.341C87.1689 216.406 92.8181 215.34 98.1245 213.202C98.1245 212.536 98.1653 211.869 98.1827 211.221C86.4962 216.341 73.9948 214.342 67.8489 212.784Z" fill="#263238"/>
<path d="M87.2126 206.785C80.9493 208.366 74.3922 208.157 68.2336 206.179C68.1987 206.816 68.158 207.446 68.123 208.07C71.5174 209.15 75.0497 209.688 78.599 209.664C81.6374 209.66 84.6657 209.298 87.6259 208.585C91.3766 207.68 94.9995 206.275 98.4045 204.404C98.4045 203.652 98.4569 202.937 98.4802 202.271C94.9471 204.32 91.1539 205.84 87.2126 206.785Z" fill="#263238"/>
<path d="M82.3238 181.193C75.1652 181.569 70.5383 178.818 67.9717 176.551C68.0124 177.388 68.0648 178.2 68.123 178.975C71.8922 181.722 76.4031 183.148 81.0027 183.048C81.4624 183.048 81.9339 183.048 82.4111 183.011C89.4358 182.642 95.6516 179.442 100.674 173.77C100.732 172.709 100.773 171.74 100.791 170.934V170.812C96.6876 176.115 90.7337 180.745 82.3238 181.193Z" fill="#263238"/>
<path d="M94.2143 146.409C93.8942 146.112 93.5625 145.803 93.19 145.524C88.7551 142.064 85.269 142.064 84.3203 142.555C82.4718 143.964 80.7215 145.507 79.0823 147.173C78.9158 147.916 78.9153 148.69 79.0807 149.434C79.2462 150.177 79.5733 150.872 80.0368 151.463C83.0457 155.42 92.8408 170.595 95.4016 167.298C97.9624 164.001 97.2989 154.93 94.4471 147.009C94.3773 146.803 94.2842 146.603 94.2143 146.409Z" fill="#ECD28B" stroke="#263238" stroke-linecap="round" stroke-linejoin="round"/>
<path d="M84.9715 163.832C84.9715 163.832 93.5269 182.8 95.2671 185.769C96.034 187.18 96.9369 188.506 97.9618 189.726C97.9618 189.726 105.528 192.375 112.017 194.853C118.506 197.332 129.786 200.586 132.154 201.271C134.523 201.955 138.486 201.931 139.138 201.931C139.79 201.931 147.374 203.749 147.868 204.076C148.363 204.404 147.711 205.064 146.6 205.398C145.488 205.731 141.85 206.052 140.104 206.713C138.358 207.373 136.938 207.21 134.407 206.549C132.411 205.91 130.497 205.025 128.703 203.913C128.703 203.913 107.92 202.404 103.014 201.798C98.1073 201.192 92.5375 200.477 90.3434 197.841C85.9401 192.665 81.8763 187.186 78.1796 181.442C75.1997 176.752 69.7464 170.165 71.8125 164.196" fill="white"/>
<path d="M84.9715 163.832C84.9715 163.832 93.5269 182.8 95.2671 185.769C96.034 187.18 96.9369 188.506 97.9618 189.726C97.9618 189.726 105.528 192.375 112.017 194.853C118.506 197.332 129.786 200.586 132.154 201.271C134.523 201.955 138.486 201.931 139.138 201.931C139.79 201.931 147.374 203.749 147.868 204.076C148.363 204.404 147.711 205.064 146.6 205.398C145.488 205.731 141.85 206.052 140.104 206.713C138.358 207.373 136.938 207.21 134.407 206.549C132.411 205.91 130.497 205.025 128.703 203.913C128.703 203.913 107.92 202.404 103.014 201.798C98.1073 201.192 92.5375 200.477 90.3434 197.841C85.9401 192.665 81.8763 187.186 78.1796 181.442C75.1997 176.752 69.7464 170.165 71.8125 164.196" stroke="#263238" stroke-linecap="round" stroke-linejoin="round"/>
<path d="M139.097 201.931C138.463 201.931 134.505 201.931 132.113 201.27C129.721 200.61 118.442 197.325 111.953 194.853C105.464 192.38 97.8977 189.726 97.8977 189.726C96.8728 188.505 95.9699 187.179 95.203 185.769C94.4871 184.557 92.6131 180.599 90.6518 176.388C84.337 178.109 81.1593 181.236 79.5938 183.66C82.901 188.586 86.4745 193.312 90.2967 197.816C92.5141 200.452 98.0548 201.112 102.967 201.773C107.879 202.434 128.627 203.918 128.627 203.918C130.421 205.031 132.336 205.915 134.331 206.554C136.863 207.215 138.288 207.379 140.029 206.718C141.769 206.057 145.418 205.73 146.524 205.403C147.63 205.076 148.27 204.409 147.793 204.082C147.315 203.755 139.755 201.931 139.097 201.931Z" fill="white"/>
<mask id="mask2_5_234" style="mask-type:luminance" maskUnits="userSpaceOnUse" x="79" y="176" width="69" height="32">
<path d="M139.097 201.931C138.463 201.931 134.505 201.931 132.113 201.27C129.721 200.61 118.442 197.325 111.953 194.853C105.464 192.38 97.8977 189.726 97.8977 189.726C96.8728 188.505 95.9699 187.179 95.203 185.769C94.4871 184.557 92.6131 180.599 90.6518 176.388C84.337 178.109 81.1593 181.236 79.5938 183.66C82.901 188.586 86.4745 193.312 90.2967 197.816C92.5141 200.452 98.0548 201.112 102.967 201.773C107.879 202.434 128.627 203.918 128.627 203.918C130.421 205.031 132.336 205.915 134.331 206.554C136.863 207.215 138.288 207.379 140.029 206.718C141.769 206.057 145.418 205.73 146.524 205.403C147.63 205.076 148.27 204.409 147.793 204.082C147.315 203.755 139.755 201.931 139.097 201.931Z" fill="white"/>
</mask>
<g mask="url(#mask2_5_234)">
<path opacity="0.15" d="M139.097 201.931C138.463 201.931 134.505 201.931 132.113 201.27C129.721 200.61 118.442 197.325 111.953 194.853C105.464 192.38 97.8977 189.726 97.8977 189.726C96.8728 188.505 95.9699 187.179 95.203 185.769C94.4871 184.557 92.6131 180.599 90.6518 176.388C84.337 178.109 81.1593 181.236 79.5938 183.66C82.901 188.586 86.4745 193.312 90.2967 197.816C92.5141 200.452 98.0548 201.112 102.967 201.773C107.879 202.434 128.627 203.918 128.627 203.918C130.421 205.031 132.336 205.915 134.331 206.554C136.863 207.215 138.288 207.379 140.029 206.718C141.769 206.057 145.418 205.73 146.524 205.403C147.63 205.076 148.27 204.409 147.793 204.082C147.315 203.755 139.755 201.931 139.097 201.931Z" fill="black"/>
</g>
<path d="M139.097 201.931C138.463 201.931 134.505 201.931 132.113 201.27C129.721 200.61 118.442 197.325 111.953 194.853C105.464 192.38 97.8977 189.726 97.8977 189.726C96.8728 188.505 95.9699 187.179 95.203 185.769C94.4871 184.557 92.6131 180.599 90.6518 176.388C84.337 178.109 81.1593 181.236 79.5938 183.66C82.901 188.586 86.4745 193.312 90.2967 197.816C92.5141 200.452 98.0548 201.112 102.967 201.773C107.879 202.434 128.627 203.918 128.627 203.918C130.421 205.031 132.336 205.915 134.331 206.554C136.863 207.215 138.288 207.379 140.029 206.718C141.769 206.057 145.418 205.73 146.524 205.403C147.63 205.076 148.27 204.409 147.793 204.082C147.315 203.755 139.755 201.931 139.097 201.931Z" stroke="#263238" stroke-linecap="round" stroke-linejoin="round"/>
<path d="M97.3277 241.599C97.3975 238.739 97.6769 227.934 97.9737 217.626C93.7779 219.332 89.3781 220.433 84.8962 220.898C75.5842 222.032 70.2181 219.686 67.5642 217.868C67.5642 218.274 67.5293 218.529 67.5293 218.583C67.5293 219.189 67.7796 237.672 67.8319 241.611L97.3277 241.599Z" fill="#ECD28B" stroke="#263238" stroke-linecap="round" stroke-linejoin="round"/>
<path d="M89.9075 240.224C88.4641 234.522 91.9561 227.25 86.916 223.475" stroke="#263238" stroke-linecap="round" stroke-linejoin="round"/>
<path d="M89.9072 227.104L96.3907 220.62" stroke="#263238" stroke-linecap="round" stroke-linejoin="round"/>
<path d="M73.6522 227.146L73.4834 240.224" stroke="#263238" stroke-linecap="round" stroke-linejoin="round"/>
<path d="M73.7098 222.438L73.6807 224.826" stroke="#263238" stroke-linecap="round" stroke-linejoin="round"/>
<path d="M99.6962 115.964C102.272 116.675 104.549 118.256 106.168 120.46C107.266 121.924 108.011 123.64 108.339 125.466C109.113 130.375 106.459 131.89 107.315 134.12C108.17 136.35 109.026 137.507 108.339 138.58C107.652 139.652 105.516 139.828 105.173 139.919C104.829 140.01 104.143 144.106 102.775 145.894C101.407 147.682 96.6058 145.628 96.6058 145.628C96.6058 145.628 94.6387 149.106 94.0392 150.263C93.4397 151.421 94.6212 158.378 93.7773 161.499C92.9334 164.62 90.9546 161.232 87.1832 156.329C83.4119 151.427 81.7008 147.409 81.8754 146.07C82.05 144.731 85.0415 141.61 85.5594 140.452C86.0774 139.295 86.3277 138.756 86.0716 137.689C85.8155 136.622 82.8182 132.235 82.8182 126.629C82.8182 121.024 87.0959 115.661 92.753 115.212C95.0915 115.053 97.4392 115.307 99.6962 115.964Z" fill="white"/>
<mask id="mask3_5_234" style="mask-type:luminance" maskUnits="userSpaceOnUse" x="81" y="115" width="28" height="48">
<path d="M99.6962 115.964C102.272 116.675 104.549 118.256 106.168 120.46C107.266 121.924 108.011 123.64 108.339 125.466C109.113 130.375 106.459 131.89 107.315 134.12C108.17 136.35 109.026 137.507 108.339 138.58C107.652 139.652 105.516 139.828 105.173 139.919C104.829 140.01 104.143 144.106 102.775 145.894C101.407 147.682 96.6058 145.628 96.6058 145.628C96.6058 145.628 94.6387 149.106 94.0392 150.263C93.4397 151.421 94.6212 158.378 93.7773 161.499C92.9334 164.62 90.9546 161.232 87.1832 156.329C83.4119 151.427 81.7008 147.409 81.8754 146.07C82.05 144.731 85.0415 141.61 85.5594 140.452C86.0774 139.295 86.3277 138.756 86.0716 137.689C85.8155 136.622 82.8182 132.235 82.8182 126.629C82.8182 121.024 87.0959 115.661 92.753 115.212C95.0915 115.053 97.4392 115.307 99.6962 115.964Z" fill="white"/>
</mask>
<g mask="url(#mask3_5_234)">
<path opacity="0.15" d="M99.6962 115.964C102.272 116.675 104.549 118.256 106.168 120.46C107.266 121.924 108.011 123.64 108.339 125.466C109.113 130.375 106.459 131.89 107.315 134.12C108.17 136.35 109.026 137.507 108.339 138.58C107.652 139.652 105.516 139.828 105.173 139.919C104.829 140.01 104.143 144.106 102.775 145.894C101.407 147.682 96.6058 145.628 96.6058 145.628C96.6058 145.628 94.6387 149.106 94.0392 150.263C93.4397 151.421 94.6212 158.378 93.7773 161.499C92.9334 164.62 90.9546 161.232 87.1832 156.329C83.4119 151.427 81.7008 147.409 81.8754 146.07C82.05 144.731 85.0415 141.61 85.5594 140.452C86.0774 139.295 86.3277 138.756 86.0716 137.689C85.8155 136.622 82.8182 132.235 82.8182 126.629C82.8182 121.024 87.0959 115.661 92.753 115.212C95.0915 115.053 97.4392 115.307 99.6962 115.964Z" fill="black"/>
</g>
<path d="M99.6962 115.964C102.272 116.675 104.549 118.256 106.168 120.46C107.266 121.924 108.011 123.64 108.339 125.466C109.113 130.375 106.459 131.89 107.315 134.12C108.17 136.35 109.026 137.507 108.339 138.58C107.652 139.652 105.516 139.828 105.173 139.919C104.829 140.01 104.143 144.106 102.775 145.894C101.407 147.682 96.6058 145.628 96.6058 145.628C96.6058 145.628 94.6387 149.106 94.0392 150.263C93.4397 151.421 94.6212 158.378 93.7773 161.499C92.9334 164.62 90.9546 161.232 87.1832 156.329C83.4119 151.427 81.7008 147.409 81.8754 146.07C82.05 144.731 85.0415 141.61 85.5594 140.452C86.0774 139.295 86.3277 138.756 86.0716 137.689C85.8155 136.622 82.8182 132.235 82.8182 126.629C82.8182 121.024 87.0959 115.661 92.753 115.212C95.0915 115.053 97.4392 115.307 99.6962 115.964Z" stroke="#263238" stroke-linecap="round" stroke-linejoin="round"/>
<path d="M100.721 120.03C102.781 118.976 104.242 119.006 105.196 119.303C103.68 117.701 101.782 116.549 99.6964 115.964C97.4393 115.307 95.0917 115.053 92.7531 115.212C87.0961 115.661 82.8184 121.012 82.8184 126.629C82.8184 132.247 85.8157 136.616 86.0717 137.689C86.1636 138.042 86.1853 138.411 86.1358 138.774C90.2098 139.616 91.5425 137.495 91.5425 137.495C91.0712 137.557 90.5927 137.518 90.1364 137.38C89.68 137.242 89.2555 137.009 88.8886 136.695C87.6839 135.622 87.6839 131.52 89.1447 129.647C90.6055 127.775 92.0547 130.362 92.0547 131.877C92.0547 133.392 92.7415 134.641 93.4282 134.465C94.115 134.289 93.9404 132.592 94.1965 131.52C94.4525 130.447 97.4498 128.847 98.1366 127.957C98.8234 127.066 97.7932 126.26 96.6816 124.927C95.57 123.593 96.5186 122.169 100.721 120.03Z" fill="#263238" stroke="#263238" stroke-linecap="round" stroke-linejoin="round"/>
<path d="M91.374 137.773C91.374 137.773 91.374 140.276 92.8348 141.876" stroke="#263238" stroke-linecap="round" stroke-linejoin="round"/>
<path d="M104.713 133.259C103.988 132.939 103.197 132.816 102.414 132.901" stroke="#263238" stroke-linecap="round" stroke-linejoin="round"/>
<path d="M105.976 131.108C105.976 131.108 104.713 128.835 102.298 130.629" stroke="#263238" stroke-linecap="round" stroke-linejoin="round"/>
<path d="M103.014 141.155C102.489 141.202 101.964 141.062 101.526 140.758C101.087 140.454 100.76 140.005 100.599 139.482" stroke="#263238" stroke-linecap="round" stroke-linejoin="round"/>
<path d="M86.3975 167.031L85.3033 164.607C78.2669 164.735 74.1464 167.468 71.8184 170.061C72.0696 170.924 72.3848 171.765 72.7612 172.576C74.5945 170.098 78.523 166.856 86.3975 167.031Z" fill="#263238"/>
<path d="M88.836 172.358L87.7418 169.971C81.2059 170.334 76.8118 172.843 74.1172 175.146C74.5246 175.849 74.9611 176.54 75.3976 177.212C77.8827 175.031 82.207 172.486 88.836 172.358Z" fill="#263238"/>
<path d="M164.595 188.551C165.328 190.836 165.817 198.962 165.817 203.283C165.817 206.882 163.606 233.062 162.872 241.6H195.942C196.337 233.268 197.519 208.228 197.519 205.058C197.519 201.247 196.297 185.63 197.885 180.17C199.474 174.71 201.296 160.366 198.467 155.93C195.639 151.494 185.081 148.949 181.886 147.803C178.691 146.658 173.959 146.028 171.643 147.197C171.643 147.197 165.305 150.882 161.4 154.688C157.495 158.493 155.795 164.341 156.523 169.038C157.25 173.734 163.862 186.266 164.595 188.551Z" fill="white" stroke="#263238" stroke-linecap="round" stroke-linejoin="round"/>
<path d="M193.328 151.93C191.903 151.245 190.444 150.638 188.958 150.112C183.574 164.411 175.105 177.229 164.205 187.575C164.385 187.993 164.519 188.333 164.595 188.563C164.962 190.049 165.199 191.566 165.305 193.096C177.757 181.984 187.383 167.844 193.328 151.93Z" fill="#263238"/>
<path d="M199.777 168.468C200.063 165.442 200.008 162.391 199.614 159.378C192.822 171.322 181.077 189.539 165.806 203.798C165.765 205.052 165.614 207.5 165.387 210.603C180.251 197.792 192.007 181.23 199.777 168.468Z" fill="#263238"/>
<path d="M195.941 241.599C196.221 235.667 196.902 221.274 197.268 212.324C181.176 215.529 169.862 212.481 165.369 210.839C164.682 220.274 163.396 235.473 162.872 241.599H195.941Z" fill="#263238" stroke="#263238" stroke-linecap="round" stroke-linejoin="round"/>
<path d="M175.81 162.311C180.227 162.311 183.807 158.705 183.807 154.257C183.807 149.809 180.227 146.203 175.81 146.203C171.394 146.203 167.813 149.809 167.813 154.257C167.813 158.705 171.394 162.311 175.81 162.311Z" fill="#ECD28B" stroke="#263238" stroke-linecap="round" stroke-linejoin="round"/>
<path d="M168.5 144.113C168.5 144.113 169.839 149.064 169.839 151.991C169.839 154.918 172.888 161.644 177.888 158.596C182.887 155.548 180.326 148.567 179.471 146.403C178.864 144.751 178.375 143.053 178.01 141.325C178.01 141.325 176.421 144.355 173.354 144.501C171.727 144.602 170.094 144.471 168.5 144.113Z" fill="white" stroke="#263238" stroke-linecap="round" stroke-linejoin="round"/>
<path d="M160.254 126.139C160.254 126.139 159.41 128.327 160.463 130.078C161.516 131.829 162.96 134.229 162.96 134.229L162.75 124.612C162.75 124.612 160.673 122.86 160.254 126.139Z" fill="#263238" stroke="#263238" stroke-linecap="round" stroke-linejoin="round"/>
<path d="M162.96 132.041C162.96 132.041 161.278 132.702 162.116 135.538C162.954 138.374 164.217 137.507 164.217 137.507L162.96 132.041Z" fill="white" stroke="#263238" stroke-linecap="round" stroke-linejoin="round"/>
<path d="M161.423 127.102C161.423 127.102 162.89 134.98 163.751 138.907C164.613 142.834 169.24 146.397 171.678 147.161C174.117 147.924 177.289 145.131 178.022 143.482C178.755 141.834 179.116 138.149 179.116 138.149C179.116 138.149 181.799 137.004 182.026 134.083C182.253 131.162 181.537 130.277 180.077 129.896L178.977 129.387C178.977 129.387 179.588 124.69 178.005 121.769C176.422 118.848 170.811 122.66 167.884 123.545C164.956 124.43 161.057 124.181 161.423 127.102Z" fill="white" stroke="#263238" stroke-linecap="round" stroke-linejoin="round"/>
<path d="M168.5 132.816C168.5 132.816 167.918 137.386 168.739 137.767C169.559 138.149 171.177 137.258 171.544 137.131" stroke="#263238" stroke-linecap="round" stroke-linejoin="round"/>
<path d="M170.816 140.591C170.816 140.591 174.227 141.1 175.571 137.034" stroke="#263238" stroke-linecap="round" stroke-linejoin="round"/>
<path d="M164.351 131.798C164.622 131.36 165.006 131.01 165.458 130.786C165.91 130.562 166.414 130.474 166.911 130.532" stroke="#263238" stroke-linecap="round" stroke-linejoin="round"/>
<path d="M170.206 129.896C170.206 129.896 172.645 128.623 174.105 130.023" stroke="#263238" stroke-linecap="round" stroke-linejoin="round"/>
<path d="M166.622 135.096C166.955 135.036 167.131 134.426 167.015 133.733C166.899 133.041 166.536 132.528 166.204 132.588C165.871 132.648 165.695 133.259 165.811 133.951C165.926 134.644 166.29 135.156 166.622 135.096Z" fill="#263238"/>
<path d="M171.989 133.955C172.322 133.895 172.498 133.285 172.382 132.593C172.267 131.9 171.903 131.388 171.571 131.448C171.238 131.508 171.062 132.118 171.178 132.81C171.294 133.503 171.657 134.015 171.989 133.955Z" fill="#263238"/>
<path d="M175.327 123.673C172.091 125.254 168.697 126.457 165.206 127.26C159.84 128.399 157.401 127.133 157.64 124.339C157.879 121.546 164.833 115.449 171.171 115.449C177.509 115.449 179.709 118.479 180.076 121.673C180.276 124.42 180.276 127.179 180.076 129.927L178.976 131.575C178.976 131.575 179.255 130.29 177.509 129.26C175.763 128.23 174.471 126.339 175.327 123.673Z" fill="#263238" stroke="#263238" stroke-linecap="round" stroke-linejoin="round"/>
<path d="M209.264 132.75C210.457 133.701 209.055 137.677 212.989 140.864C222.045 148.197 227.283 153.16 228.249 164.056C229.308 175.933 223.18 180.551 225.083 184.508C226.986 188.465 229.518 193.083 225.502 196.628C221.486 200.173 214.944 203.228 209.456 194.871C203.968 186.514 201.006 168.043 198.683 157.905C196.361 147.766 192.561 142.955 193.189 138.555C193.806 134.313 197.129 131.283 201.105 130.55C202.537 130.289 204.006 130.351 205.413 130.73C206.82 131.11 208.133 131.798 209.264 132.75Z" fill="#263238" stroke="#263238" stroke-linecap="round" stroke-linejoin="round"/>
<path d="M198.357 174.97L181.433 187.859C181.433 187.859 154.329 197.943 152.734 198.458C151.14 198.973 143.539 200.373 141.944 201.264C140.349 202.155 137.288 208.033 136.793 209.439C136.69 209.635 136.651 209.861 136.682 210.083C136.713 210.304 136.811 210.51 136.963 210.668C137.115 210.826 137.312 210.929 137.525 210.961C137.738 210.993 137.955 210.952 138.144 210.845C138.51 210.457 142.066 206.882 143.172 206.754C144.278 206.627 145.256 206.5 145.256 206.5C145.256 206.5 142.433 209.057 142.311 209.821C142.189 210.584 142.805 210.33 143.539 209.948C144.272 209.566 147.095 208.542 148.195 206.5C149.295 204.458 150.278 203.306 152.117 202.543C153.957 201.779 177.958 196.362 182.253 195.598C186.549 194.834 202.001 185.169 202.74 185.041C203.479 184.914 200.691 174.97 198.357 174.97Z" fill="white" stroke="#263238" stroke-linecap="round" stroke-linejoin="round"/>
<path d="M195.051 191.453C195.203 191.926 194.749 198.574 194.44 210.13C194.207 218.996 192.188 234.752 191.257 241.6H223.61C223.843 234.655 224.134 218.772 222.26 212.184C219.827 203.64 217.092 201.882 216.184 198.101C215.276 194.319 213.902 173.406 211.621 165.492C209.339 157.578 202.501 152.827 201.436 151.087C200.371 149.348 197.024 139.216 197.024 139.216L191.251 144.282C191.251 144.282 195.505 151.402 196.116 153.62C196.727 155.838 192.007 161.056 189.58 166.443C187.153 171.831 186.67 176.097 188.818 179.418C190.966 182.739 194.9 190.974 195.051 191.453Z" fill="#ECD28B"/>
<mask id="mask4_5_234" style="mask-type:luminance" maskUnits="userSpaceOnUse" x="187" y="139" width="37" height="103">
<path d="M195.051 191.453C195.203 191.926 194.749 198.574 194.44 210.13C194.207 218.996 192.188 234.752 191.257 241.6H223.61C223.843 234.655 224.134 218.772 222.26 212.184C219.827 203.64 217.092 201.882 216.184 198.101C215.276 194.319 213.902 173.406 211.621 165.492C209.339 157.578 202.501 152.827 201.436 151.087C200.371 149.348 197.024 139.216 197.024 139.216L191.251 144.282C191.251 144.282 195.505 151.402 196.116 153.62C196.727 155.838 192.007 161.056 189.58 166.443C187.153 171.831 186.67 176.097 188.818 179.418C190.966 182.739 194.9 190.974 195.051 191.453Z" fill="white"/>
</mask>
<g mask="url(#mask4_5_234)">
<path d="M199.999 223.977L205.301 225.189L210.603 223.977L215.905 225.189L221.207 223.977L223.663 224.534L223.61 223.286L221.207 222.734L215.905 223.946L210.603 222.734L205.301 223.946L199.999 222.734L194.702 223.946L193.428 223.656C193.387 224.062 193.346 224.461 193.3 224.868L194.702 225.189L199.999 223.977Z" fill="white"/>
<path d="M205.853 182.502L200.551 183.714L195.249 182.502L191.105 183.447L191.687 184.556L195.255 183.744L200.557 184.956L205.859 183.744L211.161 184.956L214.514 184.187C214.467 183.787 214.426 183.381 214.38 182.975L211.161 183.714L205.853 182.502Z" fill="white"/>
<path d="M199.998 233.206L205.3 234.418L210.602 233.206L215.904 234.418L221.206 233.206L223.773 233.812C223.773 233.406 223.773 232.994 223.773 232.6L221.201 231.994L215.899 233.206L210.597 231.994L205.295 233.206L199.993 231.994L194.696 233.206L192.403 232.679C192.357 233.091 192.304 233.491 192.258 233.891L194.696 234.448L199.998 233.206Z" fill="white"/>
<path d="M223.727 237.164L221.207 236.588L215.905 237.8L210.603 236.588L205.301 237.8L199.999 236.588L194.702 237.8L191.845 237.145C191.792 237.557 191.74 237.964 191.693 238.357L194.702 239.042L199.999 237.83L205.301 239.042L210.603 237.83L215.905 239.042L221.207 237.83L223.703 238.406C223.709 238 223.721 237.588 223.727 237.164Z" fill="white"/>
<path d="M188.026 170.667L189.947 171.103L195.249 169.891L200.551 171.103L205.853 169.891L211.155 171.103L212.744 170.74C212.674 170.334 212.604 169.934 212.534 169.528L211.155 169.843L205.853 168.631L200.551 169.843L195.249 168.631L189.947 169.843L188.376 169.485C188.248 169.893 188.131 170.287 188.026 170.667Z" fill="white"/>
<path d="M205.853 173.267L200.551 174.479L195.249 173.267L189.947 174.479L187.479 173.915C187.456 174.329 187.456 174.744 187.479 175.157L189.947 175.721L195.249 174.509L200.551 175.721L205.853 174.509L211.155 175.721L213.425 175.2C213.367 174.794 213.314 174.394 213.256 173.988L211.155 174.466L205.853 173.267Z" fill="white"/>
<path d="M205.853 177.885L200.551 179.097L195.249 177.885L189.947 179.097L188.434 178.751C188.55 178.976 188.678 179.2 188.818 179.418C188.957 179.636 189.126 179.909 189.289 180.188L189.947 180.339L195.249 179.127L200.551 180.339L205.853 179.127L211.155 180.339L213.995 179.691C213.948 179.285 213.896 178.885 213.85 178.479L211.155 179.085L205.853 177.885Z" fill="white"/>
<path d="M199.998 228.595L205.3 229.807L210.602 228.595L215.904 229.807L221.206 228.595L223.767 229.201V227.959L221.224 227.353L215.922 228.565L210.62 227.353L205.318 228.565L200.016 227.353L194.72 228.565L192.974 228.159L192.834 229.371L194.737 229.807L199.998 228.595Z" fill="white"/>
</g>
<path d="M195.051 191.453C195.203 191.926 194.749 198.574 194.44 210.13C194.207 218.996 192.188 234.752 191.257 241.6H223.61C223.843 234.655 224.134 218.772 222.26 212.184C219.827 203.64 217.092 201.882 216.184 198.101C215.276 194.319 213.902 173.406 211.621 165.492C209.339 157.578 202.501 152.827 201.436 151.087C200.371 149.348 197.024 139.216 197.024 139.216L191.251 144.282C191.251 144.282 195.505 151.402 196.116 153.62C196.727 155.838 192.007 161.056 189.58 166.443C187.153 171.831 186.67 176.097 188.818 179.418C190.966 182.739 194.9 190.974 195.051 191.453Z" stroke="#263238" stroke-linecap="round" stroke-linejoin="round"/>
<path d="M191.245 181.23C191.245 181.23 193.201 185.309 199.731 183.721" stroke="#263238" stroke-linecap="round" stroke-linejoin="round"/>
<path d="M209.083 207.506C209.083 207.506 199.294 219.965 194.94 229.928" stroke="#263238" stroke-linecap="round" stroke-linejoin="round"/>
<path d="M198.642 217.705C198.642 217.705 194.504 225.632 193.404 230.613" stroke="#263238" stroke-linecap="round" stroke-linejoin="round"/>
<path d="M193.113 165.213C196.274 163.395 200.307 155.517 202.064 154.063L203.263 153.063C202.594 152.468 201.982 151.807 201.436 151.087C200.371 149.348 197.024 139.216 197.024 139.216L191.251 144.282C191.251 144.282 195.505 151.402 196.116 153.62C196.652 155.578 193.038 159.886 190.512 164.571C190.809 165.437 191.507 166.14 193.113 165.213Z" fill="white" stroke="#263238" stroke-linecap="round" stroke-linejoin="round"/>
<path d="M186.153 127.029C185.479 128.693 185.142 130.484 185.163 132.29C185.268 133.889 185.6 135.156 184.983 136.738C184.622 137.647 183.4 138.804 183.569 139.852C183.72 140.798 186.001 141.119 186.001 141.119C186.001 141.119 188.283 148.555 189.493 148.712C190.704 148.87 193.445 148.106 196.937 145.076C200.429 142.046 196.181 131.138 193.137 128.296C190.093 125.454 187.672 125.127 186.153 127.029Z" fill="white" stroke="#263238" stroke-linecap="round" stroke-linejoin="round"/>
<path d="M187.189 136.95C187.407 136.95 187.584 136.429 187.584 135.787C187.584 135.144 187.407 134.623 187.189 134.623C186.97 134.623 186.793 135.144 186.793 135.787C186.793 136.429 186.97 136.95 187.189 136.95Z" fill="#263238"/>
<path d="M186.135 133.114C186.135 133.114 186.531 131.466 188.114 132.702" stroke="#263238" stroke-linecap="round" stroke-linejoin="round"/>
<path d="M186.927 142.713C186.927 142.713 187.98 142.992 189.167 141.501" stroke="#263238" stroke-linecap="round" stroke-linejoin="round"/>
<path d="M189.499 118.636C189.499 118.636 183.871 118.799 182.957 122.593C182.043 126.387 186.152 129.72 189.039 131.301C191.926 132.883 194.51 135.416 194.51 138.107C194.51 140.797 194.667 143.967 196.791 146.815C198.915 149.663 203.775 152.039 207.587 151.881C211.399 151.723 207.285 142.409 209.409 135.743C211.533 129.077 208.827 122.448 204.543 119.599C200.26 116.751 189.499 118.636 189.499 118.636Z" fill="#263238" stroke="#263238" stroke-linecap="round" stroke-linejoin="round"/>
<path d="M223.861 176.109C223.81 176.94 223.685 177.763 223.488 178.57" stroke="white" stroke-linecap="round" stroke-linejoin="round"/>
<path d="M188.207 128.472C189.255 130.29 191.239 132.229 194.97 133.32C203.118 135.744 206.22 141.604 206.22 146.652C206.22 151.7 206.61 155.336 214.368 159.378C216.655 160.569 218.66 162.274 220.237 164.37C221.814 166.466 222.924 168.9 223.488 171.498" stroke="white" stroke-linecap="round" stroke-linejoin="round"/>
<path d="M187.014 124.43C187.015 124.782 187.048 125.133 187.113 125.478" stroke="white" stroke-linecap="round" stroke-linejoin="round"/>
<path d="M197.88 124.43C197.88 124.43 207.582 129.484 207.384 136.35C207.186 143.216 207.774 149.682 213.786 153.518C219.798 157.354 226.008 159.784 228.144 167.456" stroke="white" stroke-linecap="round" stroke-linejoin="round"/>
<path d="M203.292 161.196C203.292 161.196 200.714 162.214 199.37 167.45C198.025 172.686 203.537 181.879 204.398 185.969C205.259 190.06 206.115 196.308 206.115 196.308C206.115 196.308 186.857 212.67 184.04 215.209C181.223 217.748 179.745 219.421 179.745 219.421C179.745 219.421 172.761 225.808 172.144 227.086C171.527 228.365 169.816 235.001 170.427 235.255C171.038 235.51 172.144 232.704 172.144 232.195C172.144 231.686 173.366 228.874 173.366 228.874C173.366 228.874 172.388 235.37 172.388 235.734C172.388 236.098 173.366 235.734 173.488 235.219C173.61 234.704 174.96 229.347 174.96 229.347C174.96 229.347 174.227 235.346 174.716 236.013C175.205 236.679 176.066 232.183 176.066 232.183L177.044 228.608C177.044 228.608 176.8 234.861 177.294 235.116C177.789 235.37 178.889 228.989 178.889 228.989C178.889 228.989 181.095 224.39 181.95 222.857C182.438 222.022 182.811 221.121 183.056 220.178C183.056 220.178 194.463 213.664 201.575 210.088C208.687 206.513 214.699 199.871 215.433 198.726C216.166 197.58 214.571 181.485 213.349 174.589C212.127 167.692 209.549 159.378 203.292 161.196Z" fill="white" stroke="#263238" stroke-linecap="round" stroke-linejoin="round"/>
<path d="M163.448 152.966C163.448 152.966 159.06 156.075 155.551 159.026C152.041 161.977 152.565 167.801 152.565 169.079C152.565 170.358 152.39 176.206 152.39 176.206L149.754 182.054C149.754 182.054 145.721 185.896 144.842 186.811C143.963 187.726 138.876 198.137 138.876 198.137L137.648 199.955L144.336 200.852C146.832 197.953 149.594 195.315 152.583 192.974C156.953 189.677 160.632 180.587 160.812 179.466C161.554 176.404 162.077 173.289 162.378 170.146" fill="white"/>
<path d="M163.448 152.966C163.448 152.966 159.06 156.075 155.551 159.026C152.041 161.977 152.565 167.801 152.565 169.079C152.565 170.358 152.39 176.206 152.39 176.206L149.754 182.054C149.754 182.054 145.721 185.896 144.842 186.811C143.963 187.726 138.876 198.137 138.876 198.137L137.648 199.955L144.336 200.852C146.832 197.953 149.594 195.315 152.583 192.974C156.953 189.677 160.632 180.587 160.812 179.466C161.554 176.404 162.077 173.289 162.378 170.146" stroke="#263238" stroke-linecap="round" stroke-linejoin="round"/>
<path d="M161.213 177.516C158.263 172.474 154.229 173.128 152.437 173.759C152.396 175.092 152.367 176.183 152.367 176.183L149.731 182.03C149.731 182.03 145.697 185.872 144.819 186.788C143.94 187.703 138.853 198.114 138.853 198.114L137.625 199.932L144.335 200.853C146.832 197.954 149.594 195.316 152.582 192.975C156.953 189.678 160.631 180.588 160.812 179.467C160.876 179.097 161.039 178.419 161.213 177.516Z" fill="white" stroke="#263238" stroke-linecap="round" stroke-linejoin="round"/>
<path d="M141.379 195.737C141.379 195.737 137.02 199.446 136.141 200.622C135.262 201.797 134.576 208.712 134.925 209.215C135.274 209.718 137.713 211.069 138.76 209.887C139.808 208.706 143.643 203.009 143.643 203.009C143.643 203.009 140.733 207.106 142.811 206.876C144.889 206.645 146.082 203.312 147.304 201.797C148.526 200.282 148.352 200.113 147.304 197.925L146.262 195.737" fill="white"/>
<path d="M141.379 195.737C141.379 195.737 137.02 199.446 136.141 200.622C135.262 201.797 134.576 208.712 134.925 209.215C135.274 209.718 137.713 211.069 138.76 209.887C139.808 208.706 143.643 203.009 143.643 203.009C143.643 203.009 140.733 207.106 142.811 206.876C144.889 206.645 146.082 203.312 147.304 201.797C148.526 200.282 148.352 200.113 147.304 197.925L146.262 195.737" stroke="#263238" stroke-linecap="round" stroke-linejoin="round"/>
<path d="M134.931 209.209C134.931 209.209 137.148 201.331 138.033 200.725" stroke="#263238" stroke-linecap="round" stroke-linejoin="round"/>
<path d="M135.973 209.785C135.973 209.785 138.545 202.38 139.872 200.847" stroke="#263238" stroke-linecap="round" stroke-linejoin="round"/>
<path d="M137.352 210.312C137.352 210.312 140.139 203.04 141.967 201.276" stroke="#263238" stroke-linecap="round" stroke-linejoin="round"/>
<path d="M143.644 203.01C143.644 203.01 145.128 201.641 145.355 200.816L143.644 203.01Z" fill="white"/>
<path d="M143.644 203.01C143.644 203.01 145.128 201.641 145.355 200.816" stroke="#263238" stroke-linecap="round" stroke-linejoin="round"/>
<path d="M36.2354 241.6H254.043" stroke="#263238" stroke-linecap="round" stroke-linejoin="round"/>
</svg>
