<svg width="266" height="263" viewBox="0 0 266 263" fill="none" xmlns="http://www.w3.org/2000/svg">
<path d="M266 201.143H0V201.274H266V201.143Z" fill="#EBEBEB"/>
<path d="M39.1929 206.149H27.9092V206.281H39.1929V206.149Z" fill="#EBEBEB"/>
<path d="M136.251 204.725H91.0469V204.856H136.251V204.725Z" fill="#EBEBEB"/>
<path d="M56.2745 211.036H36V211.168H56.2745V211.036Z" fill="#EBEBEB"/>
<path d="M239.347 210.152H216.37V210.284H239.347V210.152Z" fill="#EBEBEB"/>
<path d="M214.63 210.152H208.262V210.284H214.63V210.152Z" fill="#EBEBEB"/>
<path d="M197.313 207.933H185.077V208.064H197.313V207.933Z" fill="#EBEBEB"/>
<path d="M178.927 207.933H153.157V208.064H178.927V207.933Z" fill="#EBEBEB"/>
<path d="M126.084 177.682H23.3605C22.5558 177.681 21.7845 177.364 21.216 176.801C20.6474 176.238 20.3281 175.475 20.3281 174.679V31.9068C20.3351 31.1158 20.6575 30.3593 21.2253 29.8019C21.7931 29.2445 22.5604 28.931 23.3605 28.9297H126.084C126.89 28.9297 127.663 29.2461 128.232 29.8094C128.802 30.3726 129.122 31.1366 129.122 31.9331V174.679C129.122 175.476 128.802 176.24 128.232 176.803C127.663 177.366 126.89 177.682 126.084 177.682ZM23.3605 29.0349C22.5911 29.0363 21.8536 29.3395 21.31 29.8779C20.7664 30.4164 20.4611 31.1461 20.4611 31.9068V174.679C20.4611 175.44 20.7664 176.17 21.31 176.708C21.8536 177.246 22.5911 177.55 23.3605 177.551H126.084C126.854 177.55 127.592 177.247 128.137 176.708C128.681 176.17 128.988 175.44 128.989 174.679V31.9068C128.988 31.1456 128.681 30.4159 128.137 29.8776C127.592 29.3393 126.854 29.0363 126.084 29.0349H23.3605Z" fill="#EBEBEB"/>
<path d="M241.16 177.682H138.431C137.626 177.681 136.854 177.364 136.285 176.801C135.715 176.238 135.395 175.475 135.394 174.679V31.9068C135.402 31.1153 135.726 30.3589 136.294 29.8016C136.863 29.2443 137.631 28.931 138.431 28.9297H241.16C241.96 28.9324 242.726 29.2465 243.292 29.8038C243.859 30.361 244.181 31.1167 244.188 31.9068V174.679C244.188 175.474 243.869 176.236 243.302 176.799C242.734 177.362 241.964 177.68 241.16 177.682ZM138.431 29.0349C137.661 29.0363 136.923 29.3393 136.379 29.8776C135.834 30.4159 135.528 31.1456 135.527 31.9068V174.679C135.528 175.44 135.834 176.17 136.379 176.708C136.923 177.247 137.661 177.55 138.431 177.551H241.16C241.93 177.55 242.668 177.247 243.213 176.708C243.757 176.17 244.064 175.44 244.065 174.679V31.9068C244.064 31.1456 243.757 30.4159 243.213 29.8776C242.668 29.3393 241.93 29.0363 241.16 29.0349H138.431Z" fill="#EBEBEB"/>
<path d="M221.482 198.449H234.25V120.575H221.482V198.449Z" fill="#F0F0F0"/>
<path d="M151.561 201.132H232.941V198.444H151.561V201.132Z" fill="#F0F0F0"/>
<path d="M221.482 120.569H150.444V198.444H221.482V120.569Z" fill="#F5F5F5"/>
<path d="M219.184 161.124H152.742V175.031H219.184V161.124Z" fill="#F0F0F0"/>
<path d="M219.184 179.323H152.742V193.231H219.184V179.323Z" fill="#F0F0F0"/>
<path d="M158.962 162.176H212.965C213.312 162.176 213.593 161.898 213.593 161.555V160.887C213.593 160.544 213.312 160.266 212.965 160.266H158.962C158.615 160.266 158.334 160.544 158.334 160.887V161.555C158.334 161.898 158.615 162.176 158.962 162.176Z" fill="#F5F5F5"/>
<path d="M158.962 180.376H212.965C213.312 180.376 213.593 180.098 213.593 179.755V179.087C213.593 178.744 213.312 178.467 212.965 178.467H158.962C158.615 178.467 158.334 178.744 158.334 179.087V179.755C158.334 180.098 158.615 180.376 158.962 180.376Z" fill="#F5F5F5"/>
<path d="M219.184 124.867H152.742V138.775H219.184V124.867Z" fill="#F0F0F0"/>
<path d="M219.184 142.919H152.742V156.826H219.184V142.919Z" fill="#F0F0F0"/>
<path d="M158.962 125.919H212.965C213.312 125.919 213.593 125.641 213.593 125.298V124.63C213.593 124.287 213.312 124.01 212.965 124.01H158.962C158.615 124.01 158.334 124.287 158.334 124.63V125.298C158.334 125.641 158.615 125.919 158.962 125.919Z" fill="#F5F5F5"/>
<path d="M158.962 143.977H212.965C213.312 143.977 213.593 143.699 213.593 143.356V142.688C213.593 142.345 213.312 142.067 212.965 142.067H158.962C158.615 142.067 158.334 142.345 158.334 142.688V143.356C158.334 143.699 158.615 143.977 158.962 143.977Z" fill="#F5F5F5"/>
<path d="M194.871 105.726C194.949 106.718 194.728 107.711 194.235 108.578C193.743 109.446 193.001 110.15 192.104 110.602C191.207 111.053 190.194 111.231 189.195 111.114C188.195 110.996 187.253 110.589 186.488 109.942C185.723 109.296 185.169 108.439 184.895 107.482C184.622 106.524 184.642 105.507 184.953 104.561C185.263 103.614 185.851 102.78 186.641 102.164C187.431 101.547 188.388 101.176 189.392 101.097C190.059 101.044 190.73 101.123 191.367 101.327C192.004 101.531 192.594 101.858 193.102 102.288C193.611 102.718 194.03 103.243 194.333 103.833C194.637 104.422 194.82 105.066 194.871 105.726Z" fill="#E0E0E0"/>
<path d="M186.2 109.04C186.262 109.782 186.099 110.526 185.734 111.177C185.368 111.828 184.815 112.358 184.144 112.698C183.474 113.039 182.717 113.175 181.969 113.09C181.22 113.005 180.514 112.702 179.94 112.22C179.365 111.738 178.948 111.098 178.741 110.382C178.534 109.666 178.547 108.905 178.777 108.196C179.008 107.487 179.446 106.861 180.036 106.398C180.626 105.935 181.342 105.655 182.093 105.595C183.1 105.513 184.098 105.83 184.868 106.476C185.638 107.123 186.118 108.045 186.2 109.04Z" fill="#E0E0E0"/>
<path d="M178.388 112.157C180.156 110.096 179.899 107.009 177.815 105.262C175.731 103.514 172.609 103.768 170.842 105.829C169.074 107.889 169.331 110.976 171.415 112.724C173.499 114.471 176.621 114.217 178.388 112.157Z" fill="#E0E0E0"/>
<path d="M199.5 109.039C199.562 109.782 199.399 110.526 199.033 111.177C198.667 111.828 198.114 112.357 197.444 112.698C196.774 113.038 196.017 113.174 195.268 113.089C194.52 113.004 193.814 112.701 193.239 112.219C192.665 111.737 192.248 111.098 192.041 110.382C191.834 109.665 191.847 108.904 192.077 108.195C192.308 107.486 192.746 106.86 193.336 106.397C193.926 105.934 194.642 105.655 195.393 105.594C195.892 105.553 196.393 105.61 196.87 105.761C197.346 105.912 197.788 106.154 198.169 106.474C198.551 106.794 198.865 107.186 199.093 107.626C199.321 108.066 199.46 108.546 199.5 109.039Z" fill="#E0E0E0"/>
<path d="M174.055 109.04C174.116 109.782 173.954 110.526 173.588 111.177C173.222 111.828 172.669 112.358 171.999 112.698C171.329 113.039 170.572 113.175 169.823 113.09C169.075 113.005 168.368 112.702 167.794 112.22C167.219 111.738 166.802 111.098 166.596 110.382C166.389 109.666 166.401 108.905 166.632 108.196C166.862 107.487 167.301 106.861 167.891 106.398C168.481 105.935 169.197 105.655 169.948 105.595C170.954 105.513 171.952 105.83 172.723 106.476C173.493 107.123 173.972 108.045 174.055 109.04Z" fill="#E0E0E0"/>
<path d="M202.41 107.977C202.453 108.503 202.338 109.03 202.079 109.49C201.82 109.951 201.428 110.326 200.954 110.567C200.479 110.808 199.943 110.904 199.413 110.844C198.884 110.784 198.384 110.569 197.977 110.228C197.57 109.887 197.275 109.434 197.128 108.927C196.982 108.42 196.99 107.882 197.153 107.38C197.316 106.877 197.626 106.434 198.044 106.106C198.462 105.778 198.968 105.58 199.5 105.537C199.853 105.507 200.209 105.547 200.547 105.654C200.884 105.761 201.197 105.932 201.468 106.159C201.738 106.386 201.961 106.663 202.122 106.975C202.284 107.287 202.382 107.628 202.41 107.977Z" fill="#E0E0E0"/>
<path d="M210.028 108.187C210.09 108.93 209.928 109.673 209.562 110.324C209.196 110.975 208.643 111.504 207.973 111.845C207.304 112.185 206.547 112.322 205.798 112.237C205.05 112.152 204.344 111.85 203.769 111.369C203.195 110.887 202.777 110.248 202.57 109.532C202.363 108.816 202.375 108.056 202.604 107.347C202.834 106.637 203.271 106.011 203.861 105.548C204.45 105.084 205.165 104.804 205.916 104.742C206.923 104.661 207.922 104.978 208.693 105.624C209.464 106.27 209.944 107.192 210.028 108.187Z" fill="#E0E0E0"/>
<path d="M214.396 109.071C214.396 109.071 213.742 120.57 188.69 120.57C163.638 120.57 162.983 109.071 162.983 109.071H214.396Z" fill="#F0F0F0"/>
<path d="M50.0078 96.9414H116.907L112.736 201.158H45.8369L50.0078 96.9414Z" fill="#F0F0F0"/>
<path d="M49.0395 96.9414H115.938L111.768 201.158H44.8633L49.0395 96.9414Z" fill="#F5F5F5"/>
<path d="M64.9038 116.046C73.1338 104.237 93.8552 110.102 96.6961 121.995C99.537 133.887 90.8441 161.786 73.5115 158.199C56.179 154.612 49.5556 138.048 64.9038 116.046Z" fill="#FAFAFA"/>
<path d="M94.3179 182.143C90.0938 186.056 82.5181 182.022 82.4383 177.146C82.3585 172.27 88.1467 162.118 94.5998 164.985C101.053 167.851 102.197 174.858 94.3179 182.143Z" fill="#FAFAFA"/>
<path d="M45.9702 78.7949L223.765 78.7949V36.9043L45.9702 36.9043V78.7949Z" fill="#E6E6E6"/>
<path d="M44.0013 78.7949L222.844 78.7949V36.9043L44.0013 36.9043V78.7949Z" fill="#F0F0F0"/>
<path d="M45.9702 79.752L223.765 79.752V78.7946L45.9702 78.7946V79.752Z" fill="#E6E6E6"/>
<path d="M40.7084 79.752L219.551 79.752V78.7946L40.7084 78.7946V79.752Z" fill="#F0F0F0"/>
<path d="M220.078 76.0593V39.6338L46.7631 39.6338V76.0593H220.078Z" fill="#FAFAFA"/>
<path d="M110.837 76.0593L103.144 39.6338H91.1367L98.8294 76.0593H110.837Z" fill="white"/>
<path d="M193.914 76.0593L186.227 39.6338H174.22L181.912 76.0593H193.914Z" fill="white"/>
<path d="M218.801 73.3396C218.854 73.3396 218.904 73.3191 218.941 73.2826C218.978 73.2461 218.998 73.1966 218.998 73.145V41.4114C218.997 41.3602 218.976 41.3115 218.939 41.2753C218.902 41.2391 218.853 41.2181 218.801 41.2168C218.749 41.2168 218.699 41.2373 218.662 41.2738C218.625 41.3103 218.605 41.3598 218.605 41.4114V73.145C218.604 73.1708 218.608 73.1964 218.618 73.2203C218.628 73.2443 218.642 73.266 218.661 73.2842C218.679 73.3025 218.701 73.3168 218.725 73.3263C218.749 73.3358 218.775 73.3403 218.801 73.3396Z" fill="#F0F0F0"/>
<path d="M96.2552 76.0593L88.5625 39.6338H83.8809L91.5736 76.0593H96.2552Z" fill="white"/>
<path d="M47.1143 76.0593V39.6338H46.7631V76.0593H47.1143Z" fill="#E6E6E6"/>
<path opacity="0.6" d="M43.3477 43.7523H221.142L221.392 40.6963H43.603L43.3477 43.7523Z" fill="#EBEBEB"/>
<path opacity="0.6" d="M43.3477 45.4779H221.142L221.392 42.4219H43.603L43.3477 45.4779Z" fill="#EBEBEB"/>
<path opacity="0.6" d="M43.3477 47.2025H221.142L221.392 44.1465H43.603L43.3477 47.2025Z" fill="#EBEBEB"/>
<path opacity="0.6" d="M43.3477 48.9281H221.142L221.392 45.8721H43.603L43.3477 48.9281Z" fill="#EBEBEB"/>
<path opacity="0.6" d="M43.3477 50.6537H221.142L221.392 47.5977H43.603L43.3477 50.6537Z" fill="#EBEBEB"/>
<path opacity="0.6" d="M43.3477 52.3783H221.142L221.392 49.3223H43.603L43.3477 52.3783Z" fill="#EBEBEB"/>
<path d="M133 224.897C189.968 224.897 236.15 222.231 236.15 218.943C236.15 215.654 189.968 212.988 133 212.988C76.0322 212.988 29.8506 215.654 29.8506 218.943C29.8506 222.231 76.0322 224.897 133 224.897Z" fill="#F5F5F5"/>
<path d="M193.723 218.942H124.957C123.949 218.948 122.951 218.75 122.023 218.361C121.095 217.972 120.257 217.401 119.56 216.681C118.863 215.961 118.321 215.109 117.969 214.175C117.616 213.242 117.46 212.247 117.509 211.252L123.76 66.3074C123.871 64.2472 124.77 62.3058 126.276 60.8775C127.782 59.4492 129.781 58.6412 131.868 58.6173H200.634C201.642 58.6111 202.641 58.8082 203.569 59.1967C204.497 59.5852 205.335 60.1569 206.033 60.8767C206.73 61.5965 207.271 62.4494 207.623 63.3832C207.976 64.317 208.132 65.312 208.082 66.3074L201.831 211.252C201.719 213.312 200.819 215.252 199.313 216.681C197.808 218.109 195.809 218.917 193.723 218.942Z" fill="#ECD28B"/>
<path d="M205.15 116.335H204.676C204.45 116.336 204.226 116.292 204.018 116.204C203.81 116.117 203.623 115.989 203.466 115.827C203.31 115.666 203.189 115.475 203.109 115.265C203.03 115.056 202.995 114.833 203.006 114.61L204.182 87.363C204.207 86.901 204.409 86.4658 204.747 86.1455C205.085 85.8252 205.533 85.6437 206.001 85.6377H206.474C206.7 85.6367 206.924 85.6812 207.132 85.7686C207.339 85.856 207.527 85.9843 207.683 86.1458C207.839 86.3073 207.96 86.4986 208.038 86.7079C208.117 86.9171 208.151 87.1401 208.14 87.363L206.969 114.61C206.944 115.072 206.742 115.507 206.404 115.827C206.066 116.148 205.618 116.329 205.15 116.335Z" fill="#ECD28B"/>
<path d="M122.073 96.1472H120.876C120.697 96.1489 120.52 96.1143 120.355 96.0457C120.191 95.9771 120.042 95.8758 119.918 95.7482C119.795 95.6206 119.699 95.4692 119.636 95.3035C119.574 95.1379 119.547 94.9613 119.557 94.7849L119.892 87.0053C119.911 86.6396 120.07 86.2947 120.336 86.0407C120.603 85.7867 120.958 85.6426 121.328 85.6377H122.525C122.704 85.6368 122.882 85.672 123.047 85.7411C123.212 85.8103 123.361 85.9119 123.485 86.0399C123.609 86.1679 123.705 86.3195 123.768 86.4855C123.831 86.6515 123.858 86.8283 123.85 87.0053L123.515 94.7849C123.494 95.1505 123.334 95.4949 123.066 95.7479C122.798 96.001 122.443 96.1437 122.073 96.1472Z" fill="#263238"/>
<path d="M121.477 110.045H120.275C120.096 110.046 119.92 110.011 119.755 109.942C119.591 109.873 119.442 109.771 119.319 109.644C119.196 109.517 119.1 109.365 119.037 109.2C118.975 109.035 118.947 108.859 118.956 108.682L119.291 100.898C119.311 100.533 119.471 100.189 119.737 99.9362C120.004 99.6833 120.358 99.54 120.727 99.5352H121.93C122.108 99.5343 122.285 99.5693 122.449 99.6382C122.614 99.7071 122.762 99.8084 122.886 99.9358C123.009 100.063 123.105 100.214 123.167 100.38C123.23 100.545 123.258 100.721 123.249 100.898L122.914 108.682C122.894 109.047 122.734 109.391 122.467 109.644C122.201 109.897 121.847 110.04 121.477 110.045Z" fill="#263238"/>
<path d="M191.871 218.942H123.105C122.097 218.949 121.098 218.752 120.169 218.364C119.24 217.976 118.402 217.404 117.704 216.684C117.007 215.964 116.466 215.111 116.114 214.177C115.762 213.243 115.606 212.248 115.657 211.252L121.903 66.3074C122.013 64.2472 122.913 62.3058 124.419 60.8775C125.924 59.4492 127.924 58.6412 130.01 58.6173H198.782C199.79 58.6111 200.789 58.8082 201.717 59.1967C202.645 59.5852 203.483 60.1569 204.181 60.8767C204.878 61.5965 205.419 62.4494 205.771 63.3832C206.124 64.317 206.28 65.312 206.23 66.3074L199.979 211.252C199.868 213.312 198.969 215.254 197.463 216.682C195.957 218.11 193.958 218.918 191.871 218.942Z" fill="#263238"/>
<path opacity="0.6" d="M191.871 218.942H123.105C122.097 218.949 121.098 218.752 120.169 218.364C119.24 217.976 118.402 217.404 117.704 216.684C117.007 215.964 116.466 215.111 116.114 214.177C115.762 213.243 115.606 212.248 115.657 211.252L121.903 66.3074C122.013 64.2472 122.913 62.3058 124.419 60.8775C125.924 59.4492 127.924 58.6412 130.01 58.6173H198.782C199.79 58.6111 200.789 58.8082 201.717 59.1967C202.645 59.5852 203.483 60.1569 204.181 60.8767C204.878 61.5965 205.419 62.4494 205.771 63.3832C206.124 64.317 206.28 65.312 206.23 66.3074L199.979 211.252C199.868 213.312 198.969 215.254 197.463 216.682C195.957 218.11 193.958 218.918 191.871 218.942Z" fill="#ECD28B"/>
<path opacity="0.5" d="M163.143 209.164C163.072 210.552 162.467 211.86 161.452 212.822C160.438 213.784 159.091 214.327 157.685 214.34C157.006 214.346 156.334 214.214 155.709 213.953C155.083 213.692 154.519 213.308 154.05 212.823C153.581 212.338 153.217 211.763 152.981 211.134C152.746 210.504 152.643 209.834 152.679 209.164C152.75 207.777 153.353 206.469 154.367 205.508C155.381 204.547 156.728 204.005 158.132 203.993C158.81 203.987 159.483 204.119 160.108 204.379C160.733 204.64 161.298 205.024 161.767 205.508C162.237 205.993 162.601 206.567 162.838 207.196C163.074 207.824 163.178 208.494 163.143 209.164Z" fill="#ECD28B"/>
<path opacity="0.8" d="M196.803 200.122H119.791C119.557 200.124 119.325 200.078 119.11 199.988C118.895 199.898 118.701 199.766 118.539 199.599C118.378 199.432 118.252 199.234 118.171 199.017C118.09 198.8 118.055 198.57 118.067 198.339L123.424 74.166C123.447 73.6878 123.655 73.2365 124.004 72.9048C124.353 72.5732 124.818 72.3864 125.302 72.3829H202.309C202.543 72.3804 202.775 72.4254 202.991 72.5151C203.207 72.6048 203.402 72.7373 203.564 72.9044C203.726 73.0715 203.852 73.2697 203.933 73.4867C204.015 73.7037 204.05 73.9349 204.038 74.166L198.686 198.339C198.662 198.818 198.453 199.269 198.103 199.6C197.753 199.932 197.288 200.119 196.803 200.122Z" fill="white"/>
<path opacity="0.5" d="M149.136 65.4342C149.163 64.8712 149.407 64.3398 149.817 63.9486C150.228 63.5575 150.774 63.3362 151.344 63.3302C151.62 63.3275 151.893 63.3809 152.147 63.4871C152.4 63.5932 152.629 63.7497 152.82 63.947C153.01 64.1443 153.157 64.3781 153.251 64.634C153.346 64.8898 153.387 65.1622 153.371 65.4342C153.345 65.9976 153.102 66.5298 152.691 66.9211C152.28 67.3125 151.734 67.5334 151.163 67.5382C150.888 67.5408 150.614 67.4874 150.361 67.3813C150.107 67.2752 149.878 67.1186 149.688 66.9213C149.498 66.724 149.351 66.4902 149.256 66.2344C149.161 65.9785 149.12 65.7062 149.136 65.4342Z" fill="#ECD28B"/>
<path opacity="0.5" d="M158.664 63.336H176.273C176.548 63.3349 176.821 63.3893 177.074 63.4959C177.327 63.6026 177.555 63.7592 177.745 63.9562C177.935 64.1531 178.082 64.3863 178.177 64.6415C178.273 64.8966 178.315 65.1683 178.3 65.44C178.273 66.0029 178.029 66.5344 177.619 66.9255C177.208 67.3166 176.662 67.5379 176.092 67.544H158.483C158.208 67.5458 157.935 67.4919 157.682 67.3855C157.428 67.2791 157.199 67.1225 157.009 66.9254C156.82 66.7283 156.672 66.4948 156.577 66.2393C156.482 65.9838 156.441 65.7118 156.456 65.44C156.485 64.8774 156.729 64.3467 157.139 63.9558C157.549 63.5649 158.094 63.3433 158.664 63.336Z" fill="#ECD28B"/>
<path d="M182.832 165.698C195.979 152.972 196.64 132.559 184.308 120.103C171.976 107.648 151.321 107.867 138.173 120.592C125.025 133.318 124.364 153.731 136.696 166.186C149.029 178.642 169.684 178.423 182.832 165.698Z" fill="white"/>
<path d="M166.106 137.944H166.612L167.772 137.365H168.676L169.453 137.723H170.304L170.628 137.539L170.65 137.018L170.182 136.802L169.522 136.124L169.548 135.472H169.022L168.575 135.898L167.984 135.282H167.298L166.176 137.118L166.42 137.56L166.048 137.802L166.106 137.944Z" fill="#ECD28B"/>
<path d="M172.921 138.438L172.895 139.075L173.464 139.669H174.64L174.688 138.454H174.427L174.475 137.312L173.991 136.813L174.023 136.024H174.528L174.56 135.329L173.826 135.229L172.586 136.408L172.56 137.06L173.241 137.77L173.225 138.149L172.921 138.438Z" fill="#ECD28B"/>
<path d="M132.495 155.696L130.367 153.497L130.436 151.877L132.202 150.204L132.24 149.368L131.346 148.442H129.58L129.617 147.548L127.946 146.754C128.318 152.245 130.169 157.537 133.309 162.082L133.99 158.158L132.458 156.58L132.495 155.696Z" fill="#ECD28B"/>
<path d="M193.084 143.598L191.318 144.376H190.695L190.036 145.002V145.56L190.919 146.47L190.871 147.6L189.493 148.468V148.126L188.509 147.106H187.908L187.849 148.395L188.913 149.831L188.876 150.646L189.142 150.92H188.764L188.019 149.973L188.046 149.278L187.546 148.642L187.61 147.164L187.291 145.686H187.11L186.769 146.012H186.455L186.498 145.055L185.796 144.329V143.803H185.668L185.264 144.187H184.444L182.226 146.291L182.173 147.479L181.513 148.621L181.077 148.426L180.417 146.822L180.05 144.755L179.332 144.481L178.14 142.651H175.416L175.172 142.372H174.108L173.299 141.82L173.076 141.104H172.544L172.293 141.288L172.788 142.64L173.645 143.692L174.565 142.819H174.805L174.938 143.214L175.767 143.939L175.129 144.681L175.017 145.128L173.363 146.322L170.49 147.259L170.336 145.649L169.362 144.418L168.83 142.956L167.766 141.499V141.841L168.718 145.428L170.453 148.1L172.368 147.806L172.315 148.968L171.304 150.488L168.527 152.997L168.474 154.233L168.953 156.374L167.181 158.262L167.122 159.567L165.473 161.571V162.023L163.271 163.259H162.233L161.914 162.702L160.664 157.274L160.717 156.022L160.994 155.638L161.042 154.507L159.882 151.793L159.914 151.072L160.18 150.904V150.22L159.983 149.894H158.962L158.488 149.268H157.195L155.488 149.568H153.423L151.71 146.754L151.833 143.929L155.583 139.374L157.882 138.748H160.361L160.531 139.958L163.015 141.01L163.59 140.484H164.92L165.319 140.894H167.66L168.431 139.574L168.463 138.948L168.288 138.764H168.027L167.835 138.942H167.426L167.224 138.737H166.867L166.654 138.942H166.378L166.154 138.706L165.654 138.18L165.697 137.128H164.92L164.569 137.307L164.697 138.127L164.356 138.274V138.669L164.111 138.543L163.51 137.286V136.691L162.723 136.165L161.771 135.182H161.377V135.639L161.909 136.086L161.951 136.433L163.138 137.328L163.021 137.575L162.968 137.328H162.664L162.712 137.712L162.138 138.296L161.962 138.716L161.462 138.19H162.1L162.382 137.927V137.433L160.786 136.202L160.653 135.776H160.095L159.515 136.213H159.068L158.743 136.065L158.211 136.391V136.718L157.344 137.543V137.969L156.647 138.69H155.982L155.706 138.864H155.371L155.222 138.627L154.477 138.48L154.519 137.507L154.977 137.075V136.234H157.046L157.163 134.976L156.296 134.166L159.658 131.978L160.536 131.615L160.589 130.463L161.058 130.016L160.994 131.489L162.744 131.252H164.276L164.324 130.127L164.686 129.785L164.909 130.016H165.213L165.25 129.112H166.426L166.862 128.701H164.92L164.526 128.296L164.574 127.297L165.691 126.245V125.719H164.92L162.898 127.633L162.792 130.342L161.861 130.684L161.329 129.322L160.127 129.79L159.674 129.322L159.728 128.044L163.196 123.999L166.989 122.894L170.24 124.662L169.633 125.235H167.633L169.229 126.897L171.081 125.845L177.603 123.846L184.913 120.801C181.975 117.664 178.409 115.166 174.441 113.468C170.472 111.77 166.19 110.909 161.866 110.938C156.801 110.942 151.804 112.086 147.252 114.284L148.768 114.126L153.556 115.52L150.896 123.41L147.359 124.83L144.959 125.992L144.092 128.717L142.172 128.007L140.836 125.056L141.219 124.151L140.155 119.665L139.379 119.502C138.022 120.695 136.76 121.991 135.607 123.378L137.373 124.956L136.394 127.66L134.176 126.213L134.66 125.224L134.373 124.93C132.87 126.965 131.601 129.16 130.59 131.473L131.654 132.099L132.973 130.853L133.106 127.66L137.362 129.548L139.586 132.299L138.581 133.251H136.559L137.123 135.108L131.271 140.557L131.952 142.241L131.537 142.635L130.292 141.346H128.042C127.983 141.946 127.935 142.556 127.909 143.166C127.882 143.776 127.877 144.497 127.909 145.155H127.994L128.669 144.518H129.659L129.127 145.044L129.068 146.406H130.271L130.654 147.879H131.617L132.558 148.858L133.58 147.869L139.629 150.109L140.283 151.556L142.501 152.608L143.906 152.692L145.427 153.997L143.949 156.322L143.119 158.988L140.9 159.84L136.059 165.505C140.45 170.235 146.238 173.475 152.599 174.763L153.088 174.532L157.685 174.211L160.802 173.953L161.802 173.427L164.377 173.516L166.298 174.042L165.84 174.211L166.601 174.584C172.27 173.264 177.511 170.552 181.838 166.697C186.165 162.843 189.438 157.972 191.355 152.534L190.717 151.367L192.004 150.536C192.617 148.268 192.979 145.942 193.084 143.598ZM175.767 120.085L178.566 119.107H179.816L176.129 120.722L175.342 122.032L176.097 122.947L175.113 122.821L174.581 121.947L175.767 120.085ZM166.484 116.798L165.638 117.171L163.877 116.593L166.484 116.798ZM163.106 116.798L164.984 117.618L165.904 118.213L164.84 118.381L164.611 117.787L164.016 117.639L163.202 119.023L161.994 117.508L161.845 116.982L163.106 116.798ZM133.176 144.955L132.644 144.834L130.462 143.955L130.946 143.75L133.213 144.518L133.176 144.955ZM134.654 145.517H133.495L133.819 144.955L135.112 145.086L134.654 145.517ZM155.796 129.827L156.424 129.527L156.956 130.605L157.935 132.462L155.982 133.23L156.392 131.379L155.7 130.705L155.796 129.827ZM154.594 131.242H155.658L155.413 132.431H154.445L154.594 131.242ZM152.28 126.702L151.811 126.844L150.955 126.671L150.774 126.182L150.987 125.95L152.758 125.545L153.647 125.95L153.471 126.276L152.53 126.397L152.28 126.702ZM171.73 158.404L170.82 160.009H170.203L169.942 159.741L169.995 158.562L170.309 158.262L170.118 158.063L170.171 157.011L171.384 156.395L171.868 155.659L171.996 156.469L171.73 158.404ZM189.536 153.308H188.908L187.45 151.204L186.54 149.82L187.291 149.883L189.573 152.419L189.536 153.308Z" fill="#ECD28B"/>
<path opacity="0.3" d="M172.554 162.634L169.234 173.822C170.667 173.376 172.066 172.831 173.421 172.191L172.554 162.634Z" fill="#263238"/>
<path opacity="0.9" d="M155.414 88.142C155.605 83.6184 159.217 79.9521 163.479 79.9521C167.74 79.9521 171.033 83.6342 170.842 88.142C170.485 96.3897 162.574 100.987 162.574 100.987C162.574 100.987 155.057 96.3897 155.414 88.142Z" fill="#ECD28B"/>
<path d="M188.94 179.556L172.554 162.629L171.49 186.562L177.278 181.076L178.981 185.599C179.077 185.839 179.221 186.056 179.403 186.24C179.586 186.423 179.805 186.568 180.045 186.666C180.286 186.764 180.544 186.813 180.805 186.811C181.065 186.808 181.322 186.754 181.561 186.651C182.061 186.455 182.465 186.075 182.689 185.591C182.913 185.107 182.94 184.556 182.763 184.053L181.061 179.529L188.94 179.556Z" fill="white"/>
<path d="M84.1846 79.5831C83.2004 82.271 82.2056 85.0114 81.2586 87.7203C80.7745 89.0774 80.317 90.4345 79.8754 91.7863C79.4339 93.1381 79.0242 94.4847 78.6891 95.7892C78.5188 96.4361 78.3752 97.0779 78.2847 97.6407C78.2369 97.9247 78.2209 98.1667 78.1996 98.356C78.1784 98.5454 78.1996 98.882 78.1996 99.1555C78.3192 100.463 78.5397 101.759 78.8593 103.032C79.503 105.736 80.3329 108.529 81.1522 111.28L78.3113 112.6C76.6608 110.04 75.2521 107.336 74.1032 104.521C73.4795 103.021 73.0038 101.466 72.6828 99.8762C72.5971 99.4188 72.5385 98.9569 72.5072 98.4928C72.4823 98.0017 72.493 97.5095 72.5392 97.02C72.619 96.1258 72.7466 95.3263 72.8903 94.5478C73.515 91.5702 74.3053 88.6289 75.2577 85.7373C76.1727 82.8969 77.1569 80.1249 78.2688 77.3213L84.1846 79.5831Z" fill="#B55B52"/>
<path d="M80.279 109.934L82.6464 112.953L78.284 114.994C78.284 114.994 77.0391 113.005 77.7892 111.143L80.279 109.934Z" fill="#B55B52"/>
<path d="M84.0936 115.556L80.9123 117.518L78.2842 114.988L82.6466 112.947L84.0936 115.556Z" fill="#B55B52"/>
<path d="M99.3086 59.7792C99.2714 60.1106 99.415 60.3947 99.6384 60.421C99.8619 60.4473 100.064 60.1948 100.101 59.8634C100.139 59.532 99.9896 59.248 99.7714 59.2217C99.5533 59.1954 99.3458 59.4373 99.3086 59.7792Z" fill="#263238"/>
<path d="M99.3882 60.3945C99.6741 61.4491 100.106 62.4598 100.67 63.398C100.424 63.5354 100.15 63.6179 99.8678 63.6397C99.5857 63.6615 99.3022 63.6221 99.0371 63.5242L99.3882 60.3945Z" fill="#A02724"/>
<path d="M98.287 57.8068C98.2394 57.7925 98.1994 57.7604 98.1753 57.7174C98.1621 57.695 98.1535 57.6703 98.1501 57.6446C98.1467 57.6189 98.1485 57.5928 98.1555 57.5678C98.1624 57.5428 98.1743 57.5195 98.1905 57.4991C98.2067 57.4787 98.2268 57.4617 98.2497 57.4492C98.5199 57.2905 98.8244 57.1978 99.138 57.1785C99.4516 57.1593 99.7653 57.2142 100.053 57.3387C100.099 57.3643 100.134 57.4063 100.15 57.4561C100.165 57.506 100.161 57.5599 100.138 57.607C100.113 57.6521 100.072 57.6861 100.022 57.7018C99.9729 57.7174 99.9191 57.7136 99.8723 57.6911C99.6431 57.5937 99.3935 57.5519 99.1445 57.5693C98.8956 57.5867 98.6544 57.6627 98.4413 57.7911C98.418 57.8039 98.3923 57.8119 98.3658 57.8146C98.3393 57.8173 98.3124 57.8147 98.287 57.8068Z" fill="#263238"/>
<path d="M88.5627 62.2305C89.1639 65.2497 89.7597 70.7885 87.6211 72.8031C87.6211 72.8031 88.4617 75.8697 94.1381 75.8697C100.384 75.8697 97.1226 72.8031 97.1226 72.8031C93.7125 71.9983 93.8029 69.4998 94.3935 67.1486L88.5627 62.2305Z" fill="#B55B52"/>
<path d="M85.8178 74.3599C85.2538 73.9917 85.988 72.0613 86.5519 71.7299C88.0468 70.8357 94.6756 70.5359 97.4366 72.2559C97.6905 72.5708 97.8699 72.9377 97.962 73.33C98.054 73.7222 98.0563 74.1298 97.9686 74.523L85.8178 74.3599Z" fill="#263238"/>
<path d="M70.3897 214.408C70.5603 214.459 70.7398 214.476 70.9172 214.457C71.0946 214.438 71.2662 214.384 71.4218 214.297C71.4814 214.239 71.5208 214.163 71.5341 214.08C71.5475 213.998 71.5343 213.914 71.4962 213.84C71.4756 213.777 71.4409 213.72 71.3949 213.673C71.3488 213.625 71.2925 213.589 71.2302 213.566C70.6504 213.329 69.3842 213.913 69.331 213.94C69.3133 213.947 69.2983 213.959 69.2878 213.975C69.2774 213.991 69.272 214.01 69.2725 214.029C69.2733 214.048 69.2792 214.066 69.2895 214.082C69.2997 214.097 69.3141 214.11 69.331 214.118C69.6728 214.251 70.0276 214.348 70.3897 214.408ZM71.0334 213.713L71.1504 213.745C71.187 213.76 71.22 213.782 71.2474 213.81C71.2749 213.838 71.2962 213.871 71.31 213.908C71.3739 214.082 71.31 214.139 71.31 214.155C71.0972 214.355 70.246 214.224 69.6555 214.018C70.0872 213.82 70.5572 213.716 71.0334 213.713Z" fill="#ECD28B"/>
<path d="M69.3576 214.124H69.4055C69.8683 213.966 70.8418 213.209 70.8312 212.741C70.8296 212.666 70.8014 212.595 70.7518 212.539C70.7022 212.483 70.6342 212.447 70.5599 212.436C70.4872 212.414 70.4107 212.408 70.3354 212.418C70.2602 212.428 70.188 212.454 70.1236 212.493C69.5916 212.798 69.2884 213.961 69.2778 214.008C69.2724 214.025 69.272 214.043 69.2767 214.06C69.2815 214.076 69.2911 214.091 69.3044 214.103C69.3197 214.115 69.3382 214.122 69.3576 214.124ZM70.4641 212.609H70.5067C70.629 212.641 70.6344 212.704 70.6344 212.725C70.6344 213.004 70.0013 213.593 69.5225 213.84C69.6298 213.381 69.8745 212.965 70.2247 212.646C70.2969 212.604 70.3825 212.591 70.4641 212.609Z" fill="#ECD28B"/>
<path d="M98.734 214.934C99.266 214.934 99.798 214.861 99.9629 214.624C100.007 214.561 100.03 214.487 100.03 214.411C100.03 214.335 100.007 214.26 99.9629 214.198C99.9292 214.14 99.8841 214.09 99.8301 214.05C99.7761 214.01 99.7145 213.982 99.649 213.966C98.9574 213.782 97.521 214.603 97.4359 214.64C97.4177 214.649 97.4031 214.663 97.3945 214.681C97.3858 214.7 97.3835 214.72 97.388 214.74C97.39 214.759 97.3984 214.777 97.4118 214.791C97.4253 214.806 97.4431 214.815 97.4625 214.818C97.8821 214.894 98.3075 214.932 98.734 214.934ZM99.399 214.135C99.4625 214.126 99.5269 214.126 99.5905 214.135C99.6303 214.143 99.6679 214.16 99.7008 214.183C99.7338 214.207 99.7615 214.237 99.782 214.271C99.8512 214.392 99.8246 214.456 99.782 214.487C99.5852 214.755 98.5318 214.761 97.7551 214.655C98.263 214.376 98.8217 214.199 99.399 214.135Z" fill="#ECD28B"/>
<path d="M97.4738 214.823H97.5164C98.0165 214.597 99.0166 213.708 98.9421 213.245C98.9421 213.134 98.8464 212.998 98.5697 212.971C98.4742 212.963 98.378 212.974 98.2867 213.003C98.1953 213.032 98.1107 213.078 98.0377 213.14C97.5057 213.571 97.394 214.681 97.3887 214.718C97.3883 214.735 97.3919 214.752 97.3993 214.767C97.4067 214.783 97.4176 214.797 97.4313 214.807C97.4442 214.815 97.4587 214.821 97.4738 214.823ZM98.4953 213.145H98.5538C98.7293 213.145 98.74 213.229 98.7453 213.255C98.7932 213.534 98.1122 214.234 97.5962 214.544C97.6364 214.074 97.8221 213.628 98.1282 213.266C98.2308 213.182 98.3619 213.138 98.4953 213.145Z" fill="#ECD28B"/>
<path d="M92.877 214.723H97.0585L97.4734 205.155H93.2972L92.877 214.723Z" fill="#B55B52"/>
<path d="M64.6914 213.256L68.8623 213.929L71.8255 204.83L67.6493 204.156L64.6914 213.256Z" fill="#B55B52"/>
<path d="M69.1605 213.503L64.5267 212.751C64.4447 212.736 64.3602 212.75 64.2875 212.791C64.2148 212.831 64.1583 212.895 64.1277 212.971L62.7126 216.459C62.6788 216.544 62.6648 216.635 62.6716 216.726C62.6783 216.818 62.7057 216.906 62.7517 216.985C62.7976 217.065 62.861 217.133 62.9371 217.184C63.0132 217.236 63.1001 217.27 63.1914 217.285C64.7874 217.516 65.6173 217.553 67.6496 217.884C68.9051 218.089 72.0971 218.826 73.8474 218.936C75.5977 219.047 75.9381 217.358 75.2306 217.148C72.0652 216.248 70.6501 214.933 69.7829 213.866C69.6281 213.673 69.4063 213.543 69.1605 213.503Z" fill="#263238"/>
<path d="M97.0319 214.245H92.4673C92.3839 214.245 92.3028 214.273 92.2379 214.324C92.1729 214.376 92.128 214.448 92.1109 214.529L91.2863 218.211C91.2661 218.3 91.2666 218.392 91.2876 218.48C91.3085 218.568 91.3495 218.651 91.4074 218.721C91.4652 218.791 91.5385 218.848 91.6217 218.886C91.7048 218.925 91.7957 218.944 91.8874 218.942C93.5313 218.916 95.9093 218.821 97.9788 218.821C100.399 218.821 101.421 218.953 104.256 218.953C105.969 218.953 106.448 217.238 105.73 217.08C102.458 216.375 100.862 216.302 98.0373 214.577C97.739 214.377 97.3913 214.263 97.0319 214.245Z" fill="#263238"/>
<path d="M80.1411 73.7397C76.3267 74.9811 74.0391 85.1171 74.0391 85.1171L82.4181 90.2982C84.2449 87.9759 85.4309 85.2247 85.8601 82.3135C86.7166 77.0325 84.0566 72.4668 80.1411 73.7397Z" fill="#ECD28B"/>
<g opacity="0.4">
<path d="M80.1411 73.7397C76.3267 74.9811 74.0391 85.1171 74.0391 85.1171L82.4181 90.2982C84.2449 87.9759 85.4309 85.2247 85.8601 82.3135C86.7166 77.0325 84.0566 72.4668 80.1411 73.7397Z" fill="white"/>
</g>
<path opacity="0.2" d="M82.4286 84.3644C81.476 85.8172 80.8484 87.4546 80.5879 89.1668L82.418 90.2977C83.9945 88.3001 85.0865 85.9715 85.61 83.4912L82.4286 84.3644Z" fill="black"/>
<path d="M103.549 73.9499C103.549 73.9499 107.996 78.9153 103.793 109.655H81.4493C81.2951 106.262 83.4497 89.7194 80.1406 73.7395C82.6107 73.2673 85.1093 72.9545 87.6205 72.8032C90.7851 72.6216 93.9576 72.6216 97.1221 72.8032C99.291 73.0204 101.44 73.4038 103.549 73.9499Z" fill="#ECD28B"/>
<g opacity="0.4">
<path d="M103.549 73.9499C103.549 73.9499 107.996 78.9153 103.793 109.655H81.4493C81.2951 106.262 83.4497 89.7194 80.1406 73.7395C82.6107 73.2673 85.1093 72.9545 87.6205 72.8032C90.7851 72.6216 93.9576 72.6216 97.1221 72.8032C99.291 73.0204 101.44 73.4038 103.549 73.9499Z" fill="white"/>
</g>
<path opacity="0.2" d="M105.502 83.3441L105.416 83.2705L100.336 84.4751C100.049 87.873 103.581 91.9285 105.4 93.7853C105.626 90.3093 105.659 86.8238 105.502 83.3441Z" fill="black"/>
<path opacity="0.2" d="M97.4734 205.161L97.2606 210.09H93.0791L93.2919 205.161H97.4734Z" fill="black"/>
<path opacity="0.2" d="M67.6499 204.156L71.8261 204.835L70.2939 209.521L66.123 208.848L67.6499 204.156Z" fill="black"/>
<path d="M88.2116 57.8597C88.0148 61.952 87.6796 64.34 89.531 66.6544C92.3027 70.1365 97.5908 68.8268 99.0219 64.8713C100.315 61.3155 100.426 55.2139 96.58 53.1573C95.734 52.699 94.7834 52.4624 93.8188 52.4699C92.8542 52.4774 91.9075 52.7287 91.0688 53.2C90.2302 53.6713 89.5274 54.3468 89.0273 55.1624C88.5272 55.978 88.2464 56.9065 88.2116 57.8597Z" fill="#B55B52"/>
<path d="M95.9037 61.4523C94.2225 63.9981 95.1642 64.845 94.2225 66.0127C93.2809 67.1804 86.9767 68.8478 86.9182 65.897C86.9476 64.8431 86.7311 63.7967 86.2855 62.8389C85.8399 61.8811 85.1771 61.0376 84.3486 60.374C83.9864 60.021 83.713 59.5889 83.5504 59.1124C83.3878 58.6359 83.3406 58.1283 83.4126 57.6305C83.4845 57.1327 83.6736 56.6585 83.9646 56.2461C84.2556 55.8337 84.6404 55.4946 85.0881 55.256C87.3331 54.0304 84.1358 53.4308 85.5084 51.4583C87.5513 48.5337 90.3443 47.5711 92.6797 49.591C95.0152 51.6108 98.8031 52.747 101.522 50.1748C104.24 47.6027 103.767 57.6335 96.9996 57.1759C99.9096 60.0531 95.0471 58.6487 95.9037 61.4523Z" fill="#263238"/>
<path d="M86.5089 54.241C85.4077 55.0037 83.7957 52.4683 84.1787 51.085C82.7849 52.663 83.1147 55.2509 85.9663 55.293C88.8178 55.335 86.5089 54.241 86.5089 54.241Z" fill="#263238"/>
<path d="M94.5577 59.522C94.4463 60.5347 94.6764 61.5553 95.212 62.4255C95.9302 63.5669 96.9783 63.1251 97.34 61.9679C97.6805 60.9159 97.7177 59.0696 96.7229 58.3332C95.7281 57.5968 94.696 58.3069 94.5577 59.522Z" fill="#B55B52"/>
<path d="M95.8668 109.655C95.8668 109.655 91.1267 141.215 88.5252 153.045C85.6524 165.995 72.4695 208.822 72.4695 208.822L65.0215 207.244C65.0215 207.244 73.6239 172.328 76.0179 154.223C77.8533 140.316 81.4762 109.655 81.4762 109.655H95.8668Z" fill="#263238"/>
<path d="M74.2622 206.376C74.2941 206.376 72.8684 209.048 72.8684 209.048L64.4521 207.244L65.165 204.74L74.2622 206.376Z" fill="#ECD28B"/>
<path opacity="0.3" d="M92.8718 120.901C87.3922 121.953 87.9721 142.177 88.6158 152.571C90.2118 145.207 92.51 131.084 94.0901 121.048C93.7121 120.865 93.2831 120.813 92.8718 120.901Z" fill="black"/>
<path d="M103.794 109.655C103.794 109.655 105.534 140.537 105.076 153.134C104.603 166.216 98.8144 209.138 98.8144 209.138H91.7388C91.7388 209.138 92.6379 167 92.324 154.134C91.9782 140.105 87.7275 109.655 87.7275 109.655H103.794Z" fill="#263238"/>
<path d="M100.176 206.35C100.208 206.35 99.7774 209.253 99.7774 209.253H91.1696L90.9355 206.66L100.176 206.35Z" fill="#ECD28B"/>
<path d="M105.82 78.1367C107.017 80.8824 108.321 83.7123 109.672 86.4317C110.968 89.1259 112.432 91.7381 114.055 94.2534C114.454 94.853 114.864 95.4263 115.284 95.9629L115.604 96.3521C115.71 96.4731 115.742 96.5257 115.848 96.6361C116.029 96.836 116.279 97.0569 116.524 97.2831C117.545 98.1984 118.79 99.0978 120.025 99.9973C122.514 101.78 125.126 103.548 127.685 105.341L126.244 108.098C123.209 106.986 120.251 105.677 117.391 104.179C115.892 103.409 114.445 102.543 113.061 101.586C112.67 101.309 112.293 101.012 111.933 100.697C111.752 100.539 111.518 100.308 111.353 100.145L110.89 99.6449C110.294 98.9821 109.746 98.3141 109.225 97.6355C107.28 94.9777 105.544 92.1765 104.033 89.2564C103.288 87.8256 102.559 86.3949 101.905 84.9326C101.25 83.4704 100.548 82.0554 99.9521 80.4774L105.82 78.1367Z" fill="#B55B52"/>
<path d="M97.4524 78.0787C94.2285 82.8127 101.778 91.4023 101.778 91.4023L110.22 85.6163C109.632 82.681 108.669 79.8317 107.353 77.1371C104.602 71.4195 99.9102 74.4861 97.4524 78.0787Z" fill="#ECD28B"/>
<g opacity="0.4">
<path d="M97.4524 78.0787C94.2285 82.8127 101.778 91.4023 101.778 91.4023L110.22 85.6163C109.632 82.681 108.669 79.8317 107.353 77.1371C104.602 71.4195 99.9102 74.4861 97.4524 78.0787Z" fill="white"/>
</g>
<path d="M125.149 104.789L130.341 105.515L128.984 109.828C128.984 109.828 125.298 109.828 124.196 107.019L125.149 104.789Z" fill="#B55B52"/>
<path d="M131.952 106.894L130.83 110.428L128.968 109.829L130.324 105.516L131.952 106.894Z" fill="#B55B52"/>
</svg>
