<svg width="301" height="292" viewBox="0 0 301 292" fill="none" xmlns="http://www.w3.org/2000/svg">
<path d="M301 223.321H0V223.467H301V223.321Z" fill="#E0E0E0"/>
<path d="M65.8713 230.324H31.0938V230.47H65.8713V230.324Z" fill="#E0E0E0"/>
<path d="M141.867 227.152H126.022V227.298H141.867V227.152Z" fill="#E0E0E0"/>
<path d="M178.529 227.077H147.658V227.223H178.529V227.077Z" fill="#E0E0E0"/>
<path d="M237.29 228.829H229.771V228.975H237.29V228.829Z" fill="#E0E0E0"/>
<path d="M203.807 228.829H173.815V228.975H203.807V228.829Z" fill="#E0E0E0"/>
<path d="M77.658 230.324H71.6982V230.47H77.658V230.324Z" fill="#E0E0E0"/>
<path d="M268.24 228.829H242.203V228.975H268.24V228.829Z" fill="#E0E0E0"/>
<path d="M142.674 197.275H26.4334C25.5227 197.274 24.65 196.922 24.0066 196.297C23.3633 195.671 23.002 194.824 23.002 193.941V35.4256C23.0099 34.5472 23.3747 33.7074 24.0172 33.0885C24.6597 32.4696 25.5279 32.1216 26.4334 32.1201H142.674C143.585 32.1201 144.46 32.4714 145.104 33.0968C145.749 33.7222 146.111 34.5704 146.111 35.4548V193.941C146.111 194.825 145.749 195.673 145.104 196.299C144.46 196.924 143.585 197.275 142.674 197.275ZM26.4334 32.2369C25.5627 32.2385 24.7282 32.5751 24.113 33.1729C23.4979 33.7707 23.1525 34.5809 23.1525 35.4256V193.941C23.1525 194.785 23.4979 195.596 24.113 196.193C24.7282 196.791 25.5627 197.128 26.4334 197.129H142.674C143.545 197.128 144.38 196.791 144.996 196.194C145.612 195.596 145.959 194.786 145.96 193.941V35.4256C145.959 34.5804 145.612 33.7702 144.996 33.1726C144.38 32.5749 143.545 32.2385 142.674 32.2369H26.4334Z" fill="#E0E0E0"/>
<path d="M272.893 197.275H156.646C155.735 197.274 154.862 196.922 154.218 196.297C153.573 195.672 153.211 194.825 153.209 193.941V35.4256C153.218 34.5467 153.585 33.7069 154.228 33.0882C154.872 32.4694 155.74 32.1216 156.646 32.1201H272.893C273.797 32.1232 274.664 32.4718 275.305 33.0906C275.946 33.7093 276.31 34.5482 276.318 35.4256V193.941C276.318 194.823 275.957 195.669 275.315 196.294C274.673 196.92 273.802 197.272 272.893 197.275ZM156.646 32.2369C155.775 32.2385 154.94 32.5749 154.324 33.1726C153.708 33.7702 153.361 34.5804 153.359 35.4256V193.941C153.361 194.786 153.708 195.596 154.324 196.194C154.94 196.791 155.775 197.128 156.646 197.129H272.893C273.764 197.128 274.599 196.791 275.215 196.194C275.831 195.596 276.178 194.786 276.18 193.941V35.4256C276.178 34.5804 275.831 33.7702 275.215 33.1726C274.599 32.5749 273.764 32.2385 272.893 32.2369H156.646Z" fill="#E0E0E0"/>
<path d="M46.1249 79.8975C43.5002 74.3962 45.5831 70.4834 51.9944 70.4834C56.0218 70.4834 61.0244 72.0252 65.8404 74.5305C66.3943 73.0997 67.9354 72.2471 70.4217 72.2471C74.7982 72.2471 80.8363 74.8926 85.568 78.6302C87.027 77.6865 88.7448 77.19 90.4984 77.2052C94.7124 77.0359 99.7571 78.5601 104.17 81.0363C104.429 80.7984 104.734 80.6129 105.068 80.4906C105.402 80.3682 105.758 80.3116 106.114 80.3238C108.522 80.2304 111.791 81.7663 113.416 83.7519C113.519 83.8804 113.603 83.9972 113.693 84.1198H44.8487C44.7126 83.3682 44.7569 82.5963 44.9782 81.864C45.1996 81.1317 45.592 80.4588 46.1249 79.8975Z" fill="#F5F5F5"/>
<path d="M124.205 53.7277C124.417 53.7042 124.63 53.6925 124.843 53.6926C124.644 51.5435 125.794 50.1887 128.244 50.1887C130.014 50.1887 132.181 50.907 134.397 52.1217C133.764 47.9519 135.787 45.2363 140.38 45.2363C144.083 45.2363 148.766 46.9883 153.396 49.9083C153.799 48.2731 155.166 47.292 157.459 47.292C161.481 47.292 167.206 50.3171 171.793 54.592C173.011 53.5305 174.592 52.9474 176.23 52.9568C180.064 52.7641 184.82 54.5044 189.04 57.3426C189.241 57.0796 189.505 56.8679 189.809 56.7255C190.113 56.5831 190.448 56.5143 190.786 56.525C192.881 56.4258 195.77 57.985 197.444 60.0816H120.834C119.034 56.8754 120.466 54.0956 124.205 53.7277Z" fill="#F5F5F5"/>
<path d="M226.954 44.6235C225.268 41.1195 226.61 38.5791 230.722 38.5791C233.305 38.5791 236.507 39.5661 239.626 41.1779C239.975 40.261 240.968 39.7062 242.563 39.7062C245.375 39.7062 249.246 41.4115 252.28 43.7942C253.218 43.1902 254.321 42.8729 255.446 42.8832C258.131 42.7722 261.388 43.7475 264.217 45.3418C264.383 45.1881 264.578 45.0681 264.792 44.9889C265.006 44.9096 265.235 44.8728 265.463 44.8805C266.36 44.9118 267.24 45.1238 268.047 45.5028C268.854 45.8818 269.572 46.4197 270.153 47.0821L270.334 47.3157H224.853C223.414 46.0777 225.003 44.6819 226.954 44.6235Z" fill="#F5F5F5"/>
<path d="M74.1721 159.735H53.668V223.321H74.1721V159.735Z" fill="#EBEBEB"/>
<path d="M67.472 223.321H101.094L101.094 137.608H67.472L67.472 223.321Z" fill="#F5F5F5"/>
<path d="M118.546 137.608H101.094V223.322H118.546V137.608Z" fill="#EBEBEB"/>
<path d="M71.9931 137.608H101.094V129.088H71.9931V137.608Z" fill="#F5F5F5"/>
<path d="M71.9931 137.608H101.094V135.693H71.9931V137.608Z" fill="#EBEBEB"/>
<path d="M114.019 129.088H101.094V137.608H114.019V129.088Z" fill="#EBEBEB"/>
<path d="M76.5143 129.088H101.088V120.567H76.5143V129.088Z" fill="#F5F5F5"/>
<path d="M76.5143 129.088H101.088V127.172H76.5143V129.088Z" fill="#EBEBEB"/>
<path d="M109.498 120.567H101.094V129.088H109.498V120.567Z" fill="#EBEBEB"/>
<path d="M93.8219 108.665H92.1904V120.573H93.8219V108.665Z" fill="#EBEBEB"/>
<path d="M112.972 223.321H137.527V152.511H112.972L112.972 223.321Z" fill="#F5F5F5"/>
<path d="M150.272 152.512H137.527V223.322H150.272V152.512Z" fill="#EBEBEB"/>
<path d="M143.896 172.741L162.516 188.229V223.321H143.896V172.741Z" fill="#F5F5F5"/>
<path d="M172.184 188.224H162.521V223.316H172.184V188.224Z" fill="#EBEBEB"/>
<path d="M172.184 188.229H162.516L143.896 172.741H153.565L172.184 188.229Z" fill="#EBEBEB"/>
<path d="M259.462 223.322C259.72 221.919 260.335 220.6 261.25 219.486C262.166 218.371 263.353 217.496 264.705 216.938C263.518 218.858 262.98 221.09 263.164 223.322H259.462Z" fill="#EBEBEB"/>
<path d="M85.803 223.322C85.5447 221.919 84.9301 220.6 84.0145 219.486C83.099 218.371 81.9116 217.496 80.5596 216.938C81.7465 218.858 82.2853 221.09 82.1007 223.322H85.803Z" fill="#EBEBEB"/>
<path d="M42.8087 223.322C42.8087 223.322 42.5137 215.846 39.293 213.674C40.6113 216.728 40.3344 223.322 40.3344 223.322H42.8087Z" fill="#EBEBEB"/>
<path d="M41.5986 223.321C41.5986 223.321 41.8936 219.029 45.1143 217.785C43.7959 219.537 44.0849 223.321 44.0849 223.321H41.5986Z" fill="#EBEBEB"/>
<path d="M88.56 223.322C88.56 223.322 88.2349 216.243 82.3955 213.674C85.0082 217.306 84.8577 223.322 84.8577 223.322H88.56Z" fill="#EBEBEB"/>
<path d="M232.546 213.745H217.791C217.632 213.745 217.479 213.683 217.366 213.574C217.253 213.464 217.189 213.315 217.189 213.161V198.864C217.189 198.709 217.253 198.561 217.366 198.451C217.479 198.342 217.632 198.28 217.791 198.28H232.546C232.706 198.28 232.859 198.342 232.972 198.451C233.085 198.561 233.148 198.709 233.148 198.864V213.161C233.148 213.315 233.085 213.464 232.972 213.574C232.859 213.683 232.706 213.745 232.546 213.745ZM218.393 212.577H231.944V199.448H218.393V212.577Z" fill="#E0E0E0"/>
<path d="M232.546 199.448H217.791C217.632 199.448 217.479 199.386 217.366 199.277C217.253 199.167 217.189 199.019 217.189 198.864V184.544C217.189 184.389 217.253 184.241 217.366 184.131C217.479 184.021 217.632 183.96 217.791 183.96H232.546C232.706 183.96 232.859 184.021 232.972 184.131C233.085 184.241 233.148 184.389 233.148 184.544V198.864C233.148 199.019 233.085 199.167 232.972 199.277C232.859 199.386 232.706 199.448 232.546 199.448ZM218.393 198.28H231.944V185.128H218.393V198.28Z" fill="#E0E0E0"/>
<path d="M232.547 213.744C232.388 213.742 232.237 213.679 232.126 213.569L217.365 199.255C217.251 199.145 217.188 198.996 217.188 198.84C217.188 198.685 217.251 198.536 217.365 198.426C217.478 198.316 217.632 198.254 217.792 198.254C217.952 198.254 218.106 198.316 218.219 198.426L232.974 212.769C233.087 212.878 233.149 213.026 233.149 213.18C233.149 213.335 233.087 213.483 232.974 213.592C232.858 213.695 232.704 213.75 232.547 213.744Z" fill="#E0E0E0"/>
<path d="M232.547 199.448C232.389 199.447 232.238 199.387 232.126 199.279L217.365 184.959C217.252 184.85 217.189 184.702 217.189 184.547C217.189 184.393 217.252 184.245 217.365 184.136C217.42 184.081 217.487 184.037 217.56 184.008C217.634 183.978 217.712 183.963 217.792 183.963C217.871 183.963 217.95 183.978 218.023 184.008C218.097 184.037 218.163 184.081 218.219 184.136L232.974 198.449C233.059 198.531 233.117 198.636 233.141 198.749C233.164 198.863 233.152 198.981 233.106 199.088C233.061 199.195 232.983 199.287 232.883 199.351C232.784 199.415 232.667 199.449 232.547 199.448Z" fill="#E0E0E0"/>
<path d="M232.546 185.128H217.791C217.632 185.128 217.479 185.067 217.366 184.957C217.253 184.848 217.189 184.699 217.189 184.544V170.23C217.189 170.076 217.253 169.927 217.366 169.818C217.479 169.708 217.632 169.646 217.791 169.646H232.546C232.706 169.646 232.859 169.708 232.972 169.818C233.085 169.927 233.148 170.076 233.148 170.23V184.544C233.148 184.699 233.085 184.848 232.972 184.957C232.859 185.067 232.706 185.128 232.546 185.128ZM218.393 183.96H231.944V170.814H218.393V183.96Z" fill="#E0E0E0"/>
<path d="M232.546 170.814H217.791C217.632 170.814 217.479 170.752 217.366 170.643C217.253 170.533 217.189 170.385 217.189 170.23V155.928C217.189 155.773 217.253 155.624 217.366 155.515C217.479 155.405 217.632 155.344 217.791 155.344H232.546C232.706 155.344 232.859 155.405 232.972 155.515C233.085 155.624 233.148 155.773 233.148 155.928V170.247C233.144 170.399 233.078 170.543 232.966 170.649C232.853 170.755 232.703 170.814 232.546 170.814ZM218.393 169.646H231.944V156.512H218.393V169.646Z" fill="#E0E0E0"/>
<path d="M232.547 185.128C232.389 185.127 232.238 185.066 232.126 184.958L217.365 170.639C217.252 170.529 217.189 170.381 217.189 170.227C217.189 170.073 217.252 169.925 217.365 169.815C217.42 169.761 217.487 169.717 217.56 169.687C217.634 169.658 217.712 169.643 217.792 169.643C217.871 169.643 217.95 169.658 218.023 169.687C218.097 169.717 218.163 169.761 218.219 169.815L232.974 184.135C233.086 184.244 233.149 184.392 233.149 184.547C233.149 184.701 233.086 184.849 232.974 184.958C232.918 185.013 232.851 185.055 232.778 185.084C232.705 185.114 232.626 185.128 232.547 185.128Z" fill="#E0E0E0"/>
<path d="M232.547 170.814C232.388 170.812 232.237 170.749 232.126 170.639L217.365 156.325C217.251 156.215 217.188 156.066 217.188 155.911C217.188 155.755 217.251 155.606 217.365 155.496C217.478 155.386 217.632 155.324 217.792 155.324C217.952 155.324 218.106 155.386 218.219 155.496L232.974 169.816C233.087 169.925 233.149 170.073 233.149 170.227C233.149 170.382 233.087 170.53 232.974 170.639C232.919 170.694 232.852 170.738 232.779 170.768C232.705 170.798 232.627 170.814 232.547 170.814Z" fill="#E0E0E0"/>
<path d="M232.546 156.512H217.791C217.632 156.512 217.479 156.451 217.366 156.341C217.253 156.231 217.189 156.083 217.189 155.928V141.591C217.189 141.436 217.253 141.287 217.366 141.178C217.479 141.068 217.632 141.007 217.791 141.007H232.546C232.706 141.007 232.859 141.068 232.972 141.178C233.085 141.287 233.148 141.436 233.148 141.591V155.928C233.148 156.083 233.085 156.231 232.972 156.341C232.859 156.451 232.706 156.512 232.546 156.512ZM218.393 155.344H231.944V142.175H218.393V155.344Z" fill="#E0E0E0"/>
<path d="M232.546 142.175H217.791C217.632 142.175 217.479 142.114 217.366 142.004C217.253 141.895 217.189 141.746 217.189 141.591V127.277C217.189 127.122 217.253 126.974 217.366 126.864C217.479 126.755 217.632 126.693 217.791 126.693H232.546C232.706 126.693 232.859 126.755 232.972 126.864C233.085 126.974 233.148 127.122 233.148 127.277V141.591C233.148 141.746 233.085 141.895 232.972 142.004C232.859 142.114 232.706 142.175 232.546 142.175ZM218.393 141.007H231.944V127.861H218.393V141.007Z" fill="#E0E0E0"/>
<path d="M232.547 156.513C232.389 156.512 232.238 156.451 232.126 156.343L217.365 142.024C217.252 141.914 217.189 141.766 217.189 141.612C217.189 141.458 217.252 141.31 217.365 141.2C217.42 141.145 217.487 141.102 217.56 141.072C217.634 141.043 217.712 141.027 217.792 141.027C217.871 141.027 217.95 141.043 218.023 141.072C218.097 141.102 218.163 141.145 218.219 141.2L232.974 155.496C233.059 155.578 233.117 155.682 233.141 155.796C233.164 155.91 233.152 156.028 233.106 156.135C233.061 156.242 232.983 156.334 232.883 156.398C232.784 156.462 232.667 156.496 232.547 156.495V156.513Z" fill="#E0E0E0"/>
<path d="M217.792 94.345H203.031C202.871 94.345 202.718 94.2835 202.605 94.174C202.492 94.0645 202.429 93.9159 202.429 93.761V79.4238C202.429 79.269 202.492 79.1204 202.605 79.0109C202.718 78.9014 202.871 78.8398 203.031 78.8398H217.792C217.951 78.8398 218.105 78.9014 218.217 79.0109C218.33 79.1204 218.394 79.269 218.394 79.4238V93.7377C218.397 93.8163 218.384 93.8948 218.355 93.9684C218.326 94.0419 218.282 94.1091 218.226 94.1658C218.17 94.2225 218.102 94.2677 218.028 94.2985C217.953 94.3293 217.873 94.3451 217.792 94.345ZM203.633 93.177H217.19V80.0078H203.633V93.177Z" fill="#E0E0E0"/>
<path d="M232.546 94.3455H217.791C217.632 94.3455 217.479 94.284 217.366 94.1745C217.253 94.065 217.189 93.9164 217.189 93.7615C217.189 93.6066 217.253 93.4581 217.366 93.3486C217.479 93.2391 217.632 93.1775 217.791 93.1775H231.944V65.1455C231.944 64.9906 232.008 64.8421 232.121 64.7326C232.234 64.6231 232.387 64.5615 232.546 64.5615C232.706 64.5615 232.859 64.6231 232.972 64.7326C233.085 64.8421 233.148 64.9906 233.148 65.1455V93.7615C233.148 93.9164 233.085 94.065 232.972 94.1745C232.859 94.284 232.706 94.3455 232.546 94.3455Z" fill="#E0E0E0"/>
<path d="M217.792 94.3454C217.689 94.3461 217.587 94.321 217.497 94.2727C217.406 94.2244 217.33 94.1544 217.276 94.0694C217.222 93.9843 217.191 93.8872 217.186 93.7873C217.182 93.6873 217.204 93.5879 217.25 93.4986L232.011 64.8826C232.083 64.745 232.209 64.6408 232.36 64.5926C232.511 64.5445 232.675 64.5563 232.818 64.6256C232.961 64.6946 233.069 64.8157 233.12 64.9625C233.171 65.1092 233.16 65.2695 233.089 65.4082L218.328 94.0242C218.278 94.1205 218.201 94.2015 218.106 94.2582C218.012 94.3148 217.903 94.345 217.792 94.3454Z" fill="#E0E0E0"/>
<path d="M203.031 94.345H188.276C188.116 94.345 187.963 94.2835 187.85 94.174C187.737 94.0645 187.674 93.9159 187.674 93.761V79.4238C187.674 79.269 187.737 79.1204 187.85 79.0109C187.963 78.9014 188.116 78.8398 188.276 78.8398H203.031C203.191 78.8398 203.344 78.9014 203.457 79.0109C203.569 79.1204 203.633 79.269 203.633 79.4238V93.7377C203.636 93.8163 203.623 93.8948 203.594 93.9684C203.565 94.0419 203.521 94.1091 203.465 94.1658C203.409 94.2225 203.342 94.2677 203.267 94.2985C203.192 94.3293 203.112 94.3451 203.031 94.345ZM188.878 93.177H202.429V80.0078H188.878V93.177Z" fill="#E0E0E0"/>
<path d="M203.03 94.3456C202.912 94.344 202.797 94.3089 202.7 94.2446C202.603 94.1803 202.527 94.0897 202.482 93.984C202.437 93.8783 202.425 93.7621 202.448 93.6499C202.47 93.5377 202.526 93.4344 202.609 93.3528L217.364 79.0331C217.42 78.9784 217.486 78.9349 217.56 78.9053C217.633 78.8756 217.712 78.8604 217.791 78.8604C217.871 78.8604 217.949 78.8756 218.023 78.9053C218.096 78.9349 218.163 78.9784 218.219 79.0331C218.331 79.1425 218.394 79.2905 218.394 79.4448C218.394 79.5991 218.331 79.7471 218.219 79.8565L203.476 94.1762C203.417 94.2325 203.348 94.2765 203.271 94.3057C203.194 94.3348 203.112 94.3484 203.03 94.3456Z" fill="#E0E0E0"/>
<path d="M247.307 94.345H232.546C232.387 94.345 232.234 94.2835 232.121 94.174C232.008 94.0645 231.944 93.9159 231.944 93.761V79.4238C231.944 79.269 232.008 79.1204 232.121 79.0109C232.234 78.9014 232.387 78.8398 232.546 78.8398H247.307C247.467 78.8398 247.62 78.9014 247.733 79.0109C247.846 79.1204 247.909 79.269 247.909 79.4238V93.7377C247.913 93.8163 247.899 93.8948 247.871 93.9684C247.842 94.0419 247.798 94.1091 247.742 94.1658C247.686 94.2225 247.618 94.2677 247.543 94.2985C247.469 94.3293 247.388 94.3451 247.307 94.345ZM233.148 93.177H246.705V80.0078H233.148V93.177Z" fill="#E0E0E0"/>
<path d="M232.547 94.3456C232.429 94.344 232.314 94.3089 232.217 94.2446C232.119 94.1803 232.043 94.0897 231.998 93.984C231.954 93.8783 231.942 93.7621 231.964 93.6499C231.987 93.5377 232.043 93.4344 232.125 93.3528L246.88 79.0331C246.936 78.9784 247.003 78.9349 247.076 78.9053C247.15 78.8756 247.228 78.8604 247.308 78.8604C247.387 78.8604 247.466 78.8756 247.539 78.9053C247.613 78.9349 247.679 78.9784 247.735 79.0331C247.847 79.1425 247.91 79.2905 247.91 79.4448C247.91 79.5991 247.847 79.7471 247.735 79.8565L232.974 94.1762C232.918 94.2303 232.851 94.2732 232.778 94.3022C232.704 94.3313 232.626 94.346 232.547 94.3456Z" fill="#E0E0E0"/>
<path d="M143.998 94.3452C143.919 94.3456 143.84 94.3309 143.767 94.3018C143.694 94.2727 143.627 94.2299 143.571 94.1758C143.458 94.0664 143.396 93.9184 143.396 93.7641C143.396 93.6098 143.458 93.4618 143.571 93.3524L158.326 79.0327C158.408 78.9492 158.515 78.8938 158.633 78.875L232.432 64.5553C232.529 64.5365 232.628 64.5411 232.723 64.5686C232.817 64.5961 232.904 64.6457 232.974 64.713L262.472 93.329C262.535 93.3813 262.586 93.4458 262.622 93.5182C262.658 93.5907 262.678 93.6696 262.682 93.75C262.685 93.8305 262.671 93.9107 262.641 93.9856C262.61 94.0605 262.564 94.1286 262.506 94.1855C262.447 94.2424 262.377 94.287 262.3 94.3163C262.222 94.3457 262.14 94.3592 262.057 94.3561C261.974 94.353 261.893 94.3333 261.818 94.2983C261.743 94.2632 261.677 94.2136 261.623 94.1524L232.372 65.7642L159.054 80.008L144.419 94.1992C144.303 94.2985 144.153 94.3508 143.998 94.3452Z" fill="#E0E0E0"/>
<path d="M188.275 94.3455C188.196 94.3459 188.118 94.3312 188.044 94.3021C187.971 94.2731 187.904 94.2303 187.848 94.1761C187.736 94.0667 187.673 93.9187 187.673 93.7644C187.673 93.6101 187.736 93.4621 187.848 93.3527L202.609 79.033C202.724 78.9373 202.872 78.8873 203.024 78.893C203.175 78.8987 203.319 78.9596 203.426 79.0636C203.533 79.1676 203.596 79.3071 203.602 79.454C203.608 79.601 203.556 79.7447 203.458 79.8564L188.697 94.1761C188.585 94.284 188.433 94.3448 188.275 94.3455Z" fill="#E0E0E0"/>
<path d="M188.275 94.345H173.514C173.354 94.345 173.201 94.2835 173.088 94.174C172.976 94.0645 172.912 93.9159 172.912 93.761V79.4238C172.912 79.269 172.976 79.1204 173.088 79.0109C173.201 78.9014 173.354 78.8398 173.514 78.8398H188.275C188.435 78.8398 188.588 78.9014 188.701 79.0109C188.814 79.1204 188.877 79.269 188.877 79.4238V93.7377C188.88 93.8163 188.867 93.8948 188.838 93.9684C188.81 94.0419 188.766 94.1091 188.71 94.1658C188.653 94.2225 188.586 94.2677 188.511 94.2985C188.437 94.3293 188.356 94.3451 188.275 94.345ZM174.116 93.177H187.673V80.0078H174.116V93.177Z" fill="#E0E0E0"/>
<path d="M173.514 94.345H158.753C158.594 94.345 158.441 94.2835 158.328 94.174C158.215 94.0645 158.151 93.9159 158.151 93.761V79.4238C158.151 79.269 158.215 79.1204 158.328 79.0109C158.441 78.9014 158.594 78.8398 158.753 78.8398H173.514C173.674 78.8398 173.827 78.9014 173.94 79.0109C174.053 79.1204 174.116 79.269 174.116 79.4238V93.7377C174.12 93.8163 174.106 93.8948 174.078 93.9684C174.049 94.0419 174.005 94.1091 173.949 94.1658C173.893 94.2225 173.825 94.2677 173.75 94.2985C173.676 94.3293 173.596 94.3451 173.514 94.345ZM159.355 93.177H172.912V80.0078H159.355V93.177Z" fill="#E0E0E0"/>
<path d="M173.515 94.3455C173.435 94.3459 173.357 94.3312 173.283 94.3021C173.21 94.2731 173.143 94.2303 173.087 94.1761C172.975 94.0667 172.912 93.9187 172.912 93.7644C172.912 93.6101 172.975 93.4621 173.087 93.3527L187.824 79.033C187.939 78.9373 188.087 78.8873 188.239 78.893C188.39 78.8987 188.534 78.9596 188.641 79.0636C188.749 79.1676 188.811 79.3071 188.817 79.454C188.823 79.601 188.772 79.7447 188.673 79.8564L173.918 94.1761C173.81 94.2799 173.666 94.3404 173.515 94.3455Z" fill="#E0E0E0"/>
<path d="M158.754 94.3456C158.636 94.344 158.521 94.3089 158.424 94.2446C158.326 94.1803 158.25 94.0897 158.205 93.984C158.161 93.8783 158.149 93.7621 158.171 93.6499C158.194 93.5377 158.25 93.4344 158.332 93.3528L173.087 79.0331C173.143 78.9784 173.21 78.9349 173.283 78.9053C173.357 78.8756 173.435 78.8604 173.515 78.8604C173.594 78.8604 173.673 78.8756 173.746 78.9053C173.82 78.9349 173.886 78.9784 173.942 79.0331C174.054 79.1425 174.117 79.2905 174.117 79.4448C174.117 79.5991 174.054 79.7471 173.942 79.8565L159.181 94.1762C159.125 94.2303 159.058 94.2732 158.985 94.3022C158.911 94.3313 158.833 94.346 158.754 94.3456Z" fill="#E0E0E0"/>
<path d="M158.754 94.345H143.998C143.839 94.345 143.686 94.2835 143.573 94.174C143.46 94.0645 143.396 93.9159 143.396 93.761C143.396 93.6062 143.46 93.4576 143.573 93.3481C143.686 93.2386 143.839 93.177 143.998 93.177H158.152V79.4238C158.152 79.269 158.215 79.1204 158.328 79.0109C158.441 78.9014 158.594 78.8398 158.754 78.8398C158.913 78.8398 159.066 78.9014 159.179 79.0109C159.292 79.1204 159.356 79.269 159.356 79.4238V93.7377C159.359 93.8163 159.346 93.8948 159.317 93.9684C159.288 94.0419 159.244 94.1091 159.188 94.1658C159.132 94.2225 159.064 94.2677 158.99 94.2985C158.915 94.3293 158.835 94.3451 158.754 94.345Z" fill="#E0E0E0"/>
<path d="M232.547 142.175C232.389 142.174 232.238 142.113 232.126 142.005L217.365 127.691C217.308 127.637 217.264 127.572 217.234 127.501C217.203 127.43 217.188 127.354 217.188 127.277C217.187 127.2 217.203 127.124 217.234 127.052C217.264 126.981 217.308 126.917 217.365 126.862C217.421 126.808 217.487 126.765 217.561 126.735C217.634 126.706 217.713 126.69 217.792 126.69C217.871 126.69 217.95 126.706 218.023 126.735C218.097 126.765 218.163 126.808 218.219 126.862L232.974 141.182C233.087 141.291 233.149 141.439 233.149 141.594C233.149 141.748 233.087 141.896 232.974 142.005C232.918 142.059 232.851 142.102 232.778 142.131C232.705 142.16 232.626 142.175 232.547 142.175Z" fill="#E0E0E0"/>
<path d="M232.546 127.861H217.791C217.632 127.861 217.479 127.799 217.366 127.69C217.253 127.58 217.189 127.432 217.189 127.277V112.957C217.189 112.802 217.253 112.654 217.366 112.544C217.479 112.435 217.632 112.373 217.791 112.373H232.546C232.706 112.373 232.859 112.435 232.972 112.544C233.085 112.654 233.148 112.802 233.148 112.957V127.277C233.148 127.432 233.085 127.58 232.972 127.69C232.859 127.799 232.706 127.861 232.546 127.861ZM218.393 126.693H231.944V113.541H218.393V126.693Z" fill="#E0E0E0"/>
<path d="M232.546 113.541H217.791C217.632 113.541 217.479 113.48 217.366 113.37C217.253 113.261 217.189 113.112 217.189 112.957V98.6436C217.189 98.4887 217.253 98.3401 217.366 98.2306C217.479 98.1211 217.632 98.0596 217.791 98.0596H232.546C232.706 98.0596 232.859 98.1211 232.972 98.2306C233.085 98.3401 233.148 98.4887 233.148 98.6436V112.957C233.148 113.112 233.085 113.261 232.972 113.37C232.859 113.48 232.706 113.541 232.546 113.541ZM218.393 112.373H231.944V99.2276H218.393V112.373Z" fill="#E0E0E0"/>
<path d="M232.547 127.861C232.389 127.861 232.238 127.8 232.126 127.692L217.365 113.372C217.308 113.318 217.264 113.253 217.234 113.182C217.203 113.111 217.188 113.034 217.188 112.957C217.187 112.88 217.203 112.804 217.234 112.733C217.264 112.662 217.308 112.597 217.365 112.543C217.421 112.488 217.487 112.445 217.561 112.416C217.634 112.386 217.713 112.371 217.792 112.371C217.871 112.371 217.95 112.386 218.023 112.416C218.097 112.445 218.163 112.488 218.219 112.543L232.974 126.863C233.059 126.944 233.117 127.049 233.141 127.162C233.164 127.276 233.152 127.394 233.106 127.501C233.061 127.608 232.983 127.7 232.883 127.764C232.784 127.828 232.667 127.862 232.547 127.861Z" fill="#E0E0E0"/>
<path d="M232.547 113.542C232.389 113.541 232.238 113.48 232.126 113.373L217.365 99.0528C217.252 98.9434 217.189 98.7954 217.189 98.6411C217.189 98.4868 217.252 98.3388 217.365 98.2294C217.42 98.1746 217.487 98.1312 217.56 98.1016C217.634 98.0719 217.712 98.0566 217.792 98.0566C217.871 98.0566 217.95 98.0719 218.023 98.1016C218.097 98.1312 218.163 98.1746 218.219 98.2294L232.974 112.543C233.059 112.625 233.117 112.729 233.141 112.843C233.164 112.957 233.152 113.075 233.106 113.182C233.061 113.289 232.983 113.38 232.883 113.445C232.784 113.509 232.667 113.543 232.547 113.542Z" fill="#E0E0E0"/>
<path d="M262.068 93.7617H143.998L158.753 98.644H262.068V93.7617Z" fill="#E0E0E0"/>
<path d="M262.069 99.2271H158.754C158.688 99.2267 158.623 99.2149 158.561 99.1921L143.8 94.3157C143.663 94.2721 143.547 94.1823 143.472 94.0625C143.398 93.9428 143.37 93.8012 143.394 93.6633C143.418 93.5254 143.492 93.4005 143.603 93.3113C143.714 93.222 143.855 93.1743 143.999 93.1769H262.069C262.229 93.1769 262.382 93.2384 262.495 93.3479C262.608 93.4574 262.671 93.606 262.671 93.7609V98.6431C262.671 98.798 262.608 98.9465 262.495 99.056C262.382 99.1656 262.229 99.2271 262.069 99.2271ZM158.856 98.0591H261.467V94.3449H147.629L158.856 98.0591Z" fill="#E0E0E0"/>
<path d="M206.866 118.728H217.792V96.2027H206.866V118.728Z" fill="#E0E0E0"/>
<path d="M206.859 96.2021H201.778V118.727H206.859V96.2021Z" fill="#F5F5F5"/>
<path d="M219.417 223.315H240.933V213.177H219.417V223.315Z" fill="#E0E0E0"/>
<path d="M219.417 213.184H209.405V223.322H219.417V213.184Z" fill="#F5F5F5"/>
<path d="M247.308 118.926C247.148 118.926 246.995 118.864 246.882 118.755C246.769 118.645 246.706 118.496 246.706 118.342V96.2022C246.706 96.0473 246.769 95.8987 246.882 95.7892C246.995 95.6797 247.148 95.6182 247.308 95.6182C247.468 95.6182 247.621 95.6797 247.734 95.7892C247.847 95.8987 247.91 96.0473 247.91 96.2022V118.342C247.91 118.496 247.847 118.645 247.734 118.755C247.621 118.864 247.468 118.926 247.308 118.926Z" fill="#E0E0E0"/>
<path d="M247.308 121.612C246.915 121.612 246.531 121.499 246.204 121.287C245.878 121.076 245.623 120.775 245.473 120.423C245.322 120.07 245.283 119.683 245.359 119.309C245.436 118.935 245.625 118.592 245.903 118.322C246.181 118.053 246.535 117.869 246.92 117.795C247.306 117.72 247.705 117.759 248.068 117.905C248.431 118.05 248.741 118.297 248.96 118.614C249.178 118.931 249.294 119.304 249.294 119.685C249.294 119.938 249.243 120.189 249.143 120.423C249.043 120.656 248.897 120.869 248.713 121.048C248.528 121.227 248.309 121.369 248.068 121.466C247.827 121.562 247.569 121.612 247.308 121.612ZM247.308 118.926C247.153 118.926 247.002 118.97 246.873 119.054C246.744 119.137 246.644 119.256 246.585 119.394C246.526 119.533 246.51 119.686 246.54 119.833C246.571 119.98 246.645 120.116 246.755 120.222C246.864 120.328 247.003 120.4 247.155 120.43C247.307 120.459 247.464 120.444 247.607 120.386C247.75 120.329 247.873 120.232 247.959 120.107C248.045 119.982 248.09 119.835 248.09 119.685C248.09 119.585 248.07 119.487 248.031 119.394C247.992 119.302 247.934 119.219 247.861 119.148C247.789 119.078 247.702 119.022 247.607 118.984C247.512 118.945 247.411 118.926 247.308 118.926Z" fill="#E0E0E0"/>
<path d="M160.608 130.547C160.448 130.547 160.295 130.486 160.182 130.376C160.069 130.267 160.006 130.118 160.006 129.963V96.2022C160.006 96.0473 160.069 95.8987 160.182 95.7892C160.295 95.6797 160.448 95.6182 160.608 95.6182C160.768 95.6182 160.921 95.6797 161.034 95.7892C161.146 95.8987 161.21 96.0473 161.21 96.2022V129.963C161.21 130.118 161.146 130.267 161.034 130.376C160.921 130.486 160.768 130.547 160.608 130.547Z" fill="#E0E0E0"/>
<path d="M166.261 134.046C166.117 134.048 165.978 134 165.868 133.911C165.757 133.823 165.683 133.698 165.659 133.561C165.213 132.884 161.294 130.641 160.578 130.548C159.904 130.635 155.985 132.884 155.539 133.561C155.526 133.716 155.449 133.86 155.327 133.96C155.204 134.06 155.046 134.109 154.886 134.096C154.726 134.083 154.579 134.008 154.475 133.89C154.372 133.771 154.322 133.617 154.335 133.462C154.335 132.148 159.795 129.374 160.584 129.374C161.373 129.374 166.839 132.142 166.839 133.462C166.839 133.613 166.779 133.758 166.671 133.867C166.563 133.976 166.416 134.04 166.261 134.046Z" fill="#E0E0E0"/>
<path d="M172.774 176.258L181.605 167.69L179.721 164.186C179.883 163.836 180.034 163.485 180.172 163.123L184.043 161.955V149.855L180.172 148.687C180.028 148.331 179.883 147.974 179.721 147.624L181.599 144.12L172.774 135.57L169.162 137.392C168.801 137.235 168.439 137.089 168.072 136.954L166.868 133.199H154.365L153.161 136.954C152.793 137.089 152.432 137.235 152.071 137.392L148.459 135.57L139.664 144.132L141.548 147.636C141.38 147.986 141.235 148.342 141.091 148.699L137.22 149.867V161.979L141.091 163.147C141.235 163.509 141.38 163.859 141.542 164.21L139.664 167.714L148.495 176.281L152.107 174.453C152.468 174.611 152.836 174.757 153.203 174.891L154.407 178.646H166.898L168.102 174.891C168.47 174.757 168.831 174.611 169.192 174.453L172.774 176.258ZM167.205 162.282C165.906 163.544 164.249 164.403 162.446 164.751C160.643 165.1 158.774 164.921 157.075 164.239C155.377 163.557 153.925 162.401 152.903 160.918C151.882 159.435 151.336 157.692 151.336 155.908C151.336 154.124 151.882 152.381 152.903 150.898C153.925 149.415 155.377 148.259 157.075 147.577C158.774 146.895 160.643 146.716 162.446 147.065C164.249 147.413 165.906 148.272 167.205 149.534C168.068 150.372 168.751 151.366 169.217 152.461C169.683 153.556 169.921 154.729 169.919 155.913C169.917 157.097 169.674 158.269 169.204 159.362C168.734 160.455 168.047 161.447 167.181 162.282H167.205Z" fill="#E0E0E0"/>
<path d="M150.5 249.695C214.964 249.695 267.222 246.736 267.222 243.084C267.222 239.433 214.964 236.474 150.5 236.474C86.0364 236.474 33.7783 239.433 33.7783 243.084C33.7783 246.736 86.0364 249.695 150.5 249.695Z" fill="#F5F5F5"/>
<path d="M105.886 95.2803H98.3734C98.0299 95.2806 97.6925 95.3681 97.3947 95.5341C97.0969 95.7 96.849 95.9387 96.6757 96.2264L92.9192 102.539C92.7476 102.829 92.6572 103.157 92.6572 103.491C92.6572 103.825 92.7476 104.154 92.9192 104.443L96.6757 110.75C96.8473 111.04 97.0947 111.28 97.3927 111.448C97.6908 111.615 98.0291 111.703 98.3734 111.702H105.886C106.231 111.703 106.569 111.615 106.867 111.448C107.165 111.28 107.412 111.04 107.584 110.75L111.34 104.443C111.512 104.154 111.602 103.825 111.602 103.491C111.602 103.157 111.512 102.829 111.34 102.539L107.584 96.2264C107.411 95.9387 107.163 95.7 106.865 95.5341C106.567 95.3681 106.23 95.2806 105.886 95.2803Z" fill="#ECD28B"/>
<path opacity="0.5" d="M105.886 95.2803H98.3734C98.0299 95.2806 97.6925 95.3681 97.3947 95.5341C97.0969 95.7 96.849 95.9387 96.6757 96.2264L92.9192 102.539C92.7476 102.829 92.6572 103.157 92.6572 103.491C92.6572 103.825 92.7476 104.154 92.9192 104.443L96.6757 110.75C96.8473 111.04 97.0947 111.28 97.3927 111.448C97.6908 111.615 98.0291 111.703 98.3734 111.702H105.886C106.231 111.703 106.569 111.615 106.867 111.448C107.165 111.28 107.412 111.04 107.584 110.75L111.34 104.443C111.512 104.154 111.602 103.825 111.602 103.491C111.602 103.157 111.512 102.829 111.34 102.539L107.584 96.2264C107.411 95.9387 107.163 95.7 106.865 95.5341C106.567 95.3681 106.23 95.2806 105.886 95.2803Z" fill="white"/>
<path d="M57.7927 74.3606L57.3652 73.9459L60.9772 70.4419L61.4047 70.8566L57.7927 74.3606ZM64.0113 68.3278L63.5839 67.9132L71.133 60.5898L71.5604 60.9986L64.0113 68.3278Z" fill="#ECD28B"/>
<path opacity="0.5" d="M57.7927 74.3606L57.3652 73.9459L60.9772 70.4419L61.4047 70.8566L57.7927 74.3606ZM64.0113 68.3278L63.5839 67.9132L71.133 60.5898L71.5604 60.9986L64.0113 68.3278Z" fill="white"/>
<path d="M153.209 116.707V90.275L144.781 87.7112C144.48 86.9286 144.149 86.1578 143.8 85.3752L147.9 77.7832L128.636 59.0952L120.81 63.0781C120.021 62.7335 119.232 62.4123 118.402 62.1145L115.759 53.9385H88.4942L85.8574 62.1145C85.0447 62.4123 84.2561 62.7335 83.4494 63.0781L75.6234 59.0952L56.3594 77.7832L60.4651 85.3752C60.1099 86.1402 59.7788 86.9053 59.4778 87.7112L51.0498 90.275V116.707L59.4778 119.265C59.7848 120.047 60.1159 120.818 60.4651 121.601L56.3594 129.193L75.6234 147.881L83.4494 143.898C84.232 144.242 85.0207 144.564 85.8574 144.861L88.4942 153.037H115.741L118.383 144.861C119.19 144.564 119.979 144.242 120.791 143.898L128.618 147.881L147.882 129.193L143.776 121.601C144.125 120.842 144.462 120.071 144.763 119.265L153.209 116.707ZM122.405 103.485C122.405 107.375 121.216 111.178 118.988 114.413C116.76 117.647 113.593 120.168 109.889 121.657C106.184 123.146 102.107 123.535 98.174 122.776C94.2409 122.017 90.6282 120.144 87.7927 117.393C84.9571 114.642 83.0261 111.138 82.2437 107.322C81.4614 103.507 81.8629 99.552 83.3975 95.958C84.9321 92.3639 87.5309 89.292 90.8651 87.1308C94.1994 84.9695 98.1194 83.8159 102.129 83.8159C107.506 83.8175 112.663 85.8902 116.465 89.5786C120.267 93.2669 122.403 98.2689 122.405 103.485Z" fill="#ECD28B"/>
<path opacity="0.5" d="M153.209 116.707V90.275L144.781 87.7112C144.48 86.9286 144.149 86.1578 143.8 85.3752L147.9 77.7832L128.636 59.0952L120.81 63.0781C120.021 62.7335 119.232 62.4123 118.402 62.1145L115.759 53.9385H88.4942L85.8574 62.1145C85.0447 62.4123 84.2561 62.7335 83.4494 63.0781L75.6234 59.0952L56.3594 77.7832L60.4651 85.3752C60.1099 86.1402 59.7788 86.9053 59.4778 87.7112L51.0498 90.275V116.707L59.4778 119.265C59.7848 120.047 60.1159 120.818 60.4651 121.601L56.3594 129.193L75.6234 147.881L83.4494 143.898C84.232 144.242 85.0207 144.564 85.8574 144.861L88.4942 153.037H115.741L118.383 144.861C119.19 144.564 119.979 144.242 120.791 143.898L128.618 147.881L147.882 129.193L143.776 121.601C144.125 120.842 144.462 120.071 144.763 119.265L153.209 116.707ZM122.405 103.485C122.405 107.375 121.216 111.178 118.988 114.413C116.76 117.647 113.593 120.168 109.889 121.657C106.184 123.146 102.107 123.535 98.174 122.776C94.2409 122.017 90.6282 120.144 87.7927 117.393C84.9571 114.642 83.0261 111.138 82.2437 107.322C81.4614 103.507 81.8629 99.552 83.3975 95.958C84.9321 92.3639 87.5309 89.292 90.8651 87.1308C94.1994 84.9695 98.1194 83.8159 102.129 83.8159C107.506 83.8175 112.663 85.8902 116.465 89.5786C120.267 93.2669 122.403 98.2689 122.405 103.485Z" fill="white"/>
<path d="M114.429 151.438H89.8369C89.8044 151.438 89.7727 151.427 89.7466 151.409C89.7206 151.39 89.7016 151.363 89.6925 151.333L87.2845 143.963C87.2725 143.925 87.2762 143.885 87.2949 143.851C87.3135 143.816 87.3455 143.79 87.3838 143.779C87.4221 143.767 87.4636 143.771 87.4992 143.789C87.5347 143.807 87.5615 143.838 87.5734 143.875L89.9152 151.146H114.284L116.788 143.472C116.796 143.451 116.807 143.432 116.823 143.416C116.839 143.399 116.858 143.387 116.879 143.379L117.704 143.081C118.402 142.824 119.142 142.526 119.979 142.164L120.78 141.813C120.816 141.798 120.858 141.797 120.895 141.811C120.933 141.826 120.962 141.854 120.978 141.889C120.994 141.925 120.995 141.965 120.98 142.001C120.966 142.038 120.937 142.067 120.9 142.082L120.099 142.427C119.263 142.795 118.51 143.092 117.812 143.349L117.053 143.63L114.573 151.333C114.563 151.362 114.544 151.389 114.518 151.407C114.492 151.426 114.461 151.437 114.429 151.438ZM128.275 145.872C128.235 145.871 128.197 145.857 128.166 145.831C128.152 145.818 128.14 145.801 128.132 145.783C128.124 145.765 128.12 145.746 128.12 145.726C128.12 145.707 128.124 145.687 128.132 145.669C128.14 145.651 128.152 145.635 128.166 145.621L145.48 128.831L141.633 121.706C141.622 121.686 141.617 121.664 141.617 121.642C141.617 121.62 141.622 121.598 141.633 121.578L141.994 120.801C142.355 120.013 142.662 119.289 142.933 118.599L143.24 117.799C143.249 117.779 143.262 117.76 143.279 117.745C143.295 117.73 143.315 117.719 143.337 117.712L151.253 115.311V91.6887L143.427 89.3177C143.405 89.3146 143.385 89.307 143.366 89.2954C143.348 89.2838 143.333 89.2685 143.321 89.2505C143.31 89.2326 143.302 89.2124 143.299 89.1913C143.297 89.1703 143.299 89.149 143.305 89.1288C143.312 89.1086 143.323 89.0901 143.338 89.0745C143.353 89.0589 143.371 89.0466 143.391 89.0384C143.411 89.0303 143.433 89.0265 143.455 89.0273C143.476 89.0281 143.498 89.0335 143.517 89.0432L151.428 91.4376C151.457 91.4482 151.483 91.4672 151.501 91.4923C151.519 91.5173 151.529 91.5471 151.53 91.5777V115.434C151.53 115.465 151.521 115.495 151.502 115.52C151.484 115.546 151.458 115.564 151.428 115.574L143.499 117.969L143.216 118.705C142.945 119.399 142.614 120.124 142.265 120.924L141.94 121.636L145.799 128.79C145.818 128.815 145.828 128.844 145.828 128.875C145.828 128.905 145.818 128.935 145.799 128.96L128.413 145.831C128.376 145.861 128.329 145.876 128.281 145.872H128.275ZM75.9789 145.872C75.939 145.871 75.9008 145.857 75.8705 145.831L58.4848 128.96C58.4674 128.935 58.4582 128.905 58.4582 128.875C58.4582 128.845 58.4674 128.815 58.4848 128.79L62.3797 121.572C62.3989 121.538 62.4308 121.512 62.4689 121.5C62.5069 121.488 62.5483 121.491 62.5844 121.508C62.6018 121.517 62.6172 121.529 62.6297 121.544C62.6421 121.559 62.6514 121.576 62.657 121.595C62.6626 121.613 62.6644 121.633 62.6623 121.652C62.6601 121.671 62.6541 121.689 62.6446 121.706L58.8038 128.831L76.1113 145.621C76.1259 145.635 76.1375 145.651 76.1454 145.669C76.1533 145.687 76.1574 145.707 76.1574 145.726C76.1574 145.746 76.1533 145.765 76.1454 145.783C76.1375 145.801 76.1259 145.818 76.1113 145.831C76.0942 145.846 76.0742 145.857 76.0525 145.864C76.0307 145.871 76.0078 145.874 75.9849 145.872H75.9789ZM86.2129 143.25H86.1587C85.5567 143.022 84.9005 142.754 84.1721 142.438C84.1508 142.433 84.1309 142.424 84.1138 142.41C84.0967 142.397 84.0829 142.38 84.0733 142.361C84.0636 142.342 84.0584 142.321 84.058 142.299C84.0576 142.278 84.062 142.257 84.071 142.237C84.0799 142.218 84.0931 142.201 84.1097 142.187C84.1263 142.173 84.1458 142.162 84.1669 142.156C84.188 142.15 84.2102 142.149 84.2319 142.152C84.2536 142.156 84.2743 142.164 84.2925 142.175C85.0149 142.485 85.6591 142.759 86.2671 142.976C86.2858 142.983 86.3029 142.993 86.3174 143.007C86.3318 143.02 86.3433 143.037 86.3512 143.055C86.359 143.073 86.3631 143.092 86.3631 143.111C86.3632 143.131 86.3592 143.15 86.3514 143.168C86.3387 143.196 86.3172 143.219 86.2901 143.233C86.263 143.248 86.2317 143.254 86.2009 143.25H86.2129ZM102.142 125.064C96.2417 125.053 90.587 122.772 86.419 118.721C82.2509 114.67 79.91 109.18 79.91 103.456C79.91 103.418 79.9258 103.38 79.954 103.353C79.9823 103.326 80.0206 103.31 80.0605 103.31C80.1004 103.31 80.1387 103.326 80.1669 103.353C80.1951 103.38 80.211 103.418 80.211 103.456C80.211 107.664 81.4972 111.777 83.907 115.276C86.3168 118.775 89.7419 121.502 93.7492 123.112C97.7566 124.722 102.166 125.144 106.42 124.323C110.674 123.502 114.582 121.475 117.649 118.5C120.716 115.525 122.805 111.734 123.651 107.607C124.497 103.48 124.063 99.2022 122.403 95.3147C120.743 91.4271 117.932 88.1044 114.326 85.7667C110.719 83.4289 106.479 82.1812 102.142 82.1812C102.102 82.1812 102.064 82.1658 102.035 82.1384C102.007 82.111 101.991 82.0739 101.991 82.0352C101.991 81.9965 102.007 81.9593 102.035 81.9319C102.064 81.9046 102.102 81.8892 102.142 81.8892C108.04 81.8892 113.696 84.162 117.866 88.2077C122.037 92.2535 124.38 97.7406 124.38 103.462C124.38 109.184 122.037 114.671 117.866 118.717C113.696 122.762 108.04 125.035 102.142 125.035V125.064ZM61.2058 118.798C61.1744 118.797 61.1441 118.787 61.1184 118.769C61.0928 118.751 61.073 118.727 61.0613 118.699L60.7784 117.969L52.826 115.557C52.7958 115.547 52.7697 115.528 52.7513 115.503C52.7329 115.478 52.7232 115.447 52.7236 115.417V91.5602C52.7241 91.5296 52.7342 91.4998 52.7524 91.4747C52.7707 91.4497 52.7963 91.4307 52.826 91.42L60.4292 89.1191C60.4676 89.1078 60.5089 89.1112 60.5448 89.1286C60.5806 89.1459 60.6082 89.176 60.6219 89.2125C60.6317 89.2504 60.6267 89.2906 60.6078 89.3251C60.5889 89.3596 60.5575 89.3861 60.5195 89.3994L53.0066 91.6887V115.329L60.9229 117.729C60.9441 117.736 60.9633 117.747 60.9791 117.762C60.9948 117.778 61.0065 117.796 61.0132 117.817L61.3262 118.617C61.3401 118.653 61.3391 118.692 61.3233 118.727C61.3076 118.762 61.2784 118.789 61.2419 118.804L61.2058 118.798ZM61.2058 88.43H61.1516C61.1148 88.4145 61.0855 88.3858 61.0698 88.35C61.0541 88.3141 61.0532 88.2737 61.0674 88.2373C61.3563 87.4897 61.6694 86.7773 62.0005 86.0531C62.0174 86.0184 62.0478 85.9916 62.085 85.9785C62.1222 85.9654 62.1632 85.967 62.1991 85.983C62.2173 85.9906 62.2338 86.0017 62.2476 86.0155C62.2615 86.0293 62.2723 86.0457 62.2796 86.0636C62.2869 86.0815 62.2904 86.1006 62.29 86.1199C62.2897 86.1391 62.2854 86.1581 62.2774 86.1757C61.9403 86.8882 61.6393 87.6007 61.3503 88.3424C61.3398 88.3742 61.3187 88.4017 61.2904 88.4207C61.2621 88.4397 61.2282 88.4491 61.1938 88.4475L61.2058 88.43ZM141.988 85.0953H141.916C141.899 85.0862 141.883 85.0737 141.871 85.0588C141.858 85.0438 141.849 85.0266 141.843 85.0082C141.838 84.9897 141.836 84.9704 141.838 84.9513C141.84 84.9322 141.846 84.9136 141.856 84.8968L145.468 78.1516L142.578 75.3367C142.561 75.3241 142.547 75.3081 142.536 75.2898C142.526 75.2714 142.52 75.2511 142.518 75.2302C142.517 75.2094 142.52 75.1884 142.527 75.1688C142.535 75.1492 142.547 75.1315 142.562 75.1167C142.577 75.1019 142.596 75.0904 142.616 75.0831C142.636 75.0758 142.658 75.0728 142.679 75.0743C142.701 75.0757 142.722 75.0817 142.741 75.0917C142.759 75.1017 142.776 75.1156 142.789 75.1323L145.799 78.0523C145.818 78.0767 145.828 78.1064 145.828 78.137C145.828 78.1675 145.818 78.1973 145.799 78.2217L142.109 85.0603C142.093 85.079 142.072 85.0936 142.049 85.1028C142.026 85.112 142.001 85.1154 141.976 85.1129L141.988 85.0953ZM58.5931 78.2567C58.553 78.2571 58.5142 78.2424 58.4848 78.2158C58.4586 78.1879 58.444 78.1514 58.444 78.1136C58.444 78.0758 58.4586 78.0394 58.4848 78.0114L75.8525 61.1513C75.8772 61.1319 75.908 61.1213 75.9398 61.1213C75.9716 61.1213 76.0024 61.1319 76.0271 61.1513L83.4016 64.8948L84.136 64.5794C84.8464 64.2699 85.4965 63.9954 86.1226 63.7677C86.1411 63.7601 86.1611 63.7562 86.1812 63.7562C86.2013 63.7563 86.2212 63.7602 86.2397 63.7678C86.2583 63.7755 86.275 63.7866 86.289 63.8006C86.303 63.8146 86.314 63.8312 86.3213 63.8494C86.3348 63.8858 86.3329 63.9259 86.316 63.961C86.2991 63.996 86.2685 64.0231 86.231 64.0363C85.629 64.2757 84.9668 64.5385 84.2624 64.8422L83.4618 65.1926C83.4408 65.2013 83.4183 65.2058 83.3955 65.2058C83.3728 65.2058 83.3503 65.2013 83.3293 65.1926L75.9849 61.4609L58.7015 78.2567C58.6668 78.2703 58.6279 78.2703 58.5931 78.2567ZM140.176 72.9306C140.136 72.931 140.097 72.9163 140.068 72.8897L128.226 61.4317L120.882 65.1634C120.863 65.1736 120.841 65.179 120.819 65.179C120.797 65.179 120.775 65.1736 120.756 65.1634L119.955 64.813C119.13 64.4568 118.384 64.1589 117.679 63.8961L116.855 63.5983C116.834 63.59 116.814 63.5774 116.799 63.5613C116.783 63.5451 116.772 63.5259 116.764 63.5049L114.29 55.8311H89.9453L87.8142 62.4361C87.8088 62.4545 87.7995 62.4715 87.7871 62.4863C87.7746 62.501 87.7591 62.5131 87.7417 62.5219C87.7242 62.5306 87.7051 62.5358 87.6855 62.5371C87.6658 62.5385 87.6462 62.5359 87.6276 62.5296C87.5904 62.5175 87.5595 62.4919 87.5415 62.458C87.5235 62.4242 87.5198 62.3849 87.5313 62.3485L89.6985 55.6442C89.7087 55.615 89.7281 55.5896 89.7541 55.5718C89.78 55.5539 89.8112 55.5445 89.843 55.5449H114.435C114.466 55.5454 114.497 55.5551 114.523 55.5729C114.549 55.5906 114.568 55.6154 114.579 55.6442L117.059 63.353L117.818 63.6333C118.528 63.8903 119.275 64.2173 120.105 64.5561L120.84 64.8714L128.226 61.128C128.252 61.1095 128.282 61.0995 128.314 61.0995C128.345 61.0995 128.376 61.1095 128.401 61.128L140.266 72.6912C140.281 72.7048 140.293 72.7211 140.301 72.7392C140.308 72.7572 140.313 72.7767 140.313 72.7963C140.313 72.8159 140.308 72.8353 140.301 72.8534C140.293 72.8715 140.281 72.8878 140.266 72.9014C140.242 72.9242 140.21 72.9386 140.176 72.9423V72.9306Z" fill="#FAFAFA"/>
<path d="M188.63 108.268C190.514 110.604 192.278 112.94 194 115.352C195.722 117.763 197.359 120.228 198.906 122.798C199.298 123.434 199.671 124.1 200.05 124.754C200.597 125.745 200.92 126.838 200.995 127.96C201.094 129.663 200.923 131.37 200.49 133.023C199.74 135.995 198.603 138.863 197.106 141.556L194.006 140.388C194.621 137.691 195.066 134.961 195.336 132.212C195.456 131.024 195.416 129.826 195.216 128.649C195.167 128.322 195.041 128.011 194.849 127.738C194.451 127.154 194.066 126.57 193.645 125.986C192.013 123.65 190.286 121.367 188.546 119.072L183.314 112.192L188.63 108.268Z" fill="#FF8B7B"/>
<path d="M193.79 140.05L192.188 142.829L197.775 143.629C197.775 143.629 198.377 141.293 196.974 139.682L193.79 140.05Z" fill="#FF8B7B"/>
<path d="M191.346 146.526L195.999 146.981L197.775 143.629L192.188 142.829L191.346 146.526Z" fill="#FF8B7B"/>
<path d="M206.486 163.112L208.147 154.533C208.34 153.537 208.932 152.657 209.793 152.084C210.654 151.512 211.714 151.294 212.741 151.478L226.689 154.013C225.857 151.309 224.377 148.835 222.37 146.793C220.364 144.751 217.888 143.198 215.144 142.261C212.4 141.325 209.467 141.032 206.585 141.406C203.702 141.779 200.951 142.809 198.558 144.412L135.275 108.075C135.604 104.234 134.644 100.392 132.539 97.1223C130.434 93.8528 127.296 91.3308 123.593 89.9322C119.89 88.5337 115.82 88.3334 111.99 89.3613C108.16 90.3892 104.775 92.5902 102.34 95.6362L116.288 98.1708C117.313 98.3621 118.218 98.9383 118.806 99.774C119.395 100.61 119.619 101.637 119.431 102.633L117.769 111.217C117.575 112.212 116.983 113.091 116.122 113.664C115.261 114.236 114.202 114.454 113.176 114.272L99.2275 111.731C100.063 114.451 101.554 116.939 103.578 118.989C105.601 121.039 108.098 122.593 110.863 123.521C113.627 124.45 116.58 124.726 119.477 124.328C122.374 123.931 125.131 122.869 127.522 121.233L190.677 157.499C190.313 161.349 191.245 165.21 193.333 168.503C195.421 171.796 198.553 174.344 202.259 175.765C205.965 177.185 210.046 177.403 213.891 176.384C217.735 175.365 221.136 173.165 223.583 170.114L209.634 167.573C208.609 167.383 207.702 166.808 207.112 165.972C206.522 165.136 206.297 164.108 206.486 163.112Z" fill="#ECD28B"/>
<path d="M190.725 144.19L139.416 114.73C138.484 114.195 137.28 114.494 136.728 115.399L134.637 118.827C134.085 119.731 134.393 120.899 135.326 121.435L186.635 150.895C187.567 151.43 188.771 151.131 189.323 150.226L191.414 146.799C191.966 145.894 191.658 144.726 190.725 144.19Z" fill="#ECD28B"/>
<path opacity="0.2" d="M190.725 144.19L139.416 114.73C138.484 114.195 137.28 114.494 136.728 115.399L134.637 118.827C134.085 119.731 134.393 120.899 135.326 121.435L186.635 150.895C187.567 151.43 188.771 151.131 189.323 150.226L191.414 146.799C191.966 145.894 191.658 144.726 190.725 144.19Z" fill="white"/>
<path d="M167.2 90.1174C167.14 90.4619 166.911 90.7014 166.682 90.7014C166.453 90.7014 166.309 90.3568 166.363 90.0181C166.417 89.6794 166.652 89.4341 166.881 89.4633C167.109 89.4925 167.254 89.7787 167.2 90.1174Z" fill="#263238"/>
<path d="M166.94 90.7129C166.351 91.6941 165.626 92.5921 164.785 93.3818C164.998 93.5888 165.255 93.7483 165.537 93.8492C165.82 93.9501 166.122 93.9898 166.423 93.9658L166.94 90.7129Z" fill="#FF5652"/>
<path d="M168.782 88.4181C168.755 88.4184 168.729 88.4133 168.704 88.4033C168.679 88.3933 168.657 88.3784 168.638 88.3597C168.457 88.1748 168.233 88.0344 167.985 87.9501C167.737 87.8659 167.472 87.8401 167.211 87.875C167.184 87.881 167.156 87.8817 167.128 87.877C167.1 87.8722 167.074 87.8623 167.051 87.8476C167.027 87.8329 167.007 87.8138 166.991 87.7915C166.975 87.7691 166.964 87.7439 166.958 87.7173C166.952 87.6912 166.951 87.6642 166.956 87.6378C166.961 87.6114 166.972 87.5863 166.987 87.5639C167.002 87.5416 167.022 87.5224 167.045 87.5076C167.068 87.4928 167.094 87.4827 167.121 87.4779C167.448 87.4275 167.783 87.4543 168.097 87.5559C168.412 87.6576 168.696 87.8311 168.927 88.0619C168.964 88.1017 168.985 88.1538 168.985 88.2079C168.985 88.2619 168.964 88.314 168.927 88.3539C168.888 88.3909 168.837 88.4136 168.782 88.4181Z" fill="#263238"/>
<path d="M178.957 93.8838C178.355 97.0257 177.692 102.778 179.956 104.869C179.956 104.869 179.071 108.052 173.057 108.052C166.435 108.052 169.896 104.869 169.896 104.869C173.508 104.034 173.412 101.435 172.786 99.0288L178.957 93.8838Z" fill="#FF8B7B"/>
<path d="M183.008 107.229C182.935 107.125 182.88 107.011 182.845 106.89C182.34 105.027 180.215 103.573 177.458 103.497C174.55 103.427 171.269 103.765 169.331 105.319C168.476 106.002 169.421 107.001 169.421 107.001L183.008 107.229Z" fill="#ECD28B"/>
<path opacity="0.5" d="M183.008 107.229C182.935 107.125 182.88 107.011 182.845 106.89C182.34 105.027 180.215 103.573 177.458 103.497C174.55 103.427 171.269 103.765 169.331 105.319C168.476 106.002 169.421 107.001 169.421 107.001L183.008 107.229Z" fill="white"/>
<path d="M204.264 224.741H204.222C204.134 224.729 204.051 224.69 203.986 224.631C203.922 224.571 203.878 224.493 203.861 224.408C203.84 224.342 203.834 224.272 203.843 224.204C203.852 224.135 203.877 224.069 203.915 224.011C204.252 223.456 205.721 223.164 205.763 223.152C205.783 223.149 205.804 223.15 205.824 223.158C205.843 223.165 205.859 223.177 205.872 223.193C205.882 223.21 205.887 223.229 205.887 223.249C205.887 223.268 205.882 223.287 205.872 223.304C205.649 223.672 204.824 224.741 204.264 224.741ZM205.559 223.404C205.077 223.526 204.294 223.777 204.096 224.11C204.077 224.145 204.067 224.184 204.067 224.224C204.067 224.264 204.077 224.303 204.096 224.338C204.15 224.519 204.246 224.531 204.27 224.536C204.541 224.572 205.179 223.941 205.559 223.404Z" fill="#ECD28B"/>
<path d="M205.066 223.427C204.518 223.427 203.904 223.328 203.717 223.071C203.673 223.007 203.653 222.931 203.659 222.854C203.666 222.778 203.699 222.706 203.753 222.65C203.802 222.589 203.863 222.538 203.932 222.5C204.001 222.462 204.078 222.438 204.157 222.428C204.819 222.358 205.812 223.135 205.854 223.17C205.87 223.181 205.881 223.196 205.888 223.214C205.895 223.231 205.896 223.25 205.893 223.269C205.889 223.287 205.88 223.304 205.867 223.317C205.854 223.331 205.837 223.34 205.818 223.345C205.572 223.406 205.319 223.433 205.066 223.427ZM204.259 222.627H204.181C204.129 222.63 204.08 222.644 204.035 222.668C203.99 222.693 203.951 222.726 203.922 222.767C203.837 222.872 203.874 222.925 203.892 222.942C204.06 223.182 204.981 223.275 205.541 223.188C205.17 222.897 204.729 222.704 204.259 222.627Z" fill="#ECD28B"/>
<path d="M160.541 238.92C159.975 238.92 159.427 238.845 159.24 238.599C159.193 238.534 159.168 238.457 159.168 238.377C159.168 238.298 159.193 238.22 159.24 238.155C159.277 238.096 159.326 238.044 159.384 238.003C159.442 237.961 159.508 237.932 159.578 237.916C160.312 237.723 161.859 238.576 161.925 238.617C161.944 238.627 161.958 238.643 161.967 238.662C161.975 238.681 161.978 238.702 161.974 238.722C161.969 238.742 161.959 238.761 161.944 238.775C161.929 238.79 161.91 238.8 161.889 238.804C161.444 238.88 160.993 238.919 160.541 238.92ZM159.836 238.091C159.771 238.082 159.704 238.082 159.638 238.091C159.595 238.099 159.555 238.116 159.52 238.14C159.485 238.164 159.455 238.195 159.433 238.231C159.355 238.36 159.385 238.424 159.433 238.459C159.638 238.734 160.757 238.739 161.582 238.628C161.042 238.341 160.449 238.158 159.836 238.091Z" fill="#ECD28B"/>
<path d="M161.877 238.804H161.835C161.299 238.57 160.24 237.636 160.324 237.157C160.324 237.04 160.426 236.9 160.715 236.871C160.823 236.858 160.932 236.867 161.035 236.897C161.139 236.927 161.235 236.978 161.317 237.046C161.883 237.496 161.998 238.652 162.004 238.699C162.006 238.717 162.003 238.735 161.996 238.751C161.988 238.768 161.977 238.782 161.962 238.792C161.936 238.806 161.906 238.811 161.877 238.804ZM160.8 237.052H160.733C160.547 237.052 160.535 237.139 160.529 237.163C160.481 237.455 161.203 238.185 161.733 238.5C161.678 238.01 161.467 237.549 161.131 237.18C161.036 237.108 160.92 237.067 160.8 237.064V237.052Z" fill="#ECD28B"/>
<path d="M166.742 238.704H162.317L161.878 228.771H166.303L166.742 238.704Z" fill="#FF8B7B"/>
<path d="M209.742 220.197L206.155 222.708L197.69 216.377L201.278 213.872L209.742 220.197Z" fill="#FF8B7B"/>
<path d="M205.643 222.673L209.087 219.169C209.147 219.108 209.227 219.068 209.314 219.058C209.401 219.047 209.488 219.066 209.562 219.111L213.006 221.137C213.088 221.188 213.158 221.255 213.21 221.335C213.262 221.415 213.295 221.506 213.307 221.6C213.318 221.694 213.308 221.789 213.277 221.879C213.246 221.968 213.194 222.05 213.126 222.118C211.922 223.315 211.242 223.835 209.731 225.365C208.798 226.305 206.269 229.611 204.981 230.913C203.693 232.215 202.206 231.147 202.609 230.504C204.415 227.619 205.294 224.758 205.342 223.333C205.36 223.085 205.466 222.852 205.643 222.673Z" fill="#263238"/>
<path d="M162.347 238.208H167.163C167.251 238.207 167.337 238.236 167.406 238.289C167.475 238.342 167.523 238.417 167.542 238.5L168.415 242.314C168.436 242.406 168.435 242.501 168.413 242.593C168.39 242.684 168.346 242.77 168.285 242.843C168.224 242.916 168.146 242.974 168.058 243.014C167.97 243.054 167.874 243.074 167.777 243.073C166.037 243.073 163.521 242.95 161.329 242.95C158.765 242.95 156.556 243.084 153.552 243.084C151.746 243.084 151.234 241.303 151.992 241.14C155.454 240.41 158.277 240.328 161.269 238.541C161.589 238.334 161.963 238.219 162.347 238.208Z" fill="#263238"/>
<path d="M182.442 113.927C183.044 115.007 183.724 116.053 184.381 117.028C185.512 118.716 186.608 120.176 187.391 121.18C188.095 122.086 188.546 122.617 188.546 122.617L197.456 116.724C197.456 116.724 192.038 106.493 187.866 105.839C183.574 105.179 179.643 109.08 182.442 113.927Z" fill="#ECD28B"/>
<path opacity="0.5" d="M182.442 113.927C183.044 115.007 183.724 116.053 184.381 117.028C185.512 118.716 186.608 120.176 187.391 121.18C188.095 122.086 188.546 122.617 188.546 122.617L197.456 116.724C197.456 116.724 192.038 106.493 187.866 105.839C183.574 105.179 179.643 109.08 182.442 113.927Z" fill="black"/>
<path d="M184.381 117.028C185.513 118.716 186.608 120.176 187.391 121.18C187.301 119.171 186.873 115.924 185.266 113.448C184.682 114.009 184.447 115.457 184.381 117.028Z" fill="#ECD28B"/>
<path opacity="0.6" d="M184.381 117.028C185.513 118.716 186.608 120.176 187.391 121.18C187.301 119.171 186.873 115.924 185.266 113.448C184.682 114.009 184.447 115.457 184.381 117.028Z" fill="black"/>
<path d="M160.921 120.047C160.921 121.507 160.957 123.113 161.041 124.882C161.258 129.695 161.8 135.692 162.847 143.144H186.5C186.662 139.64 184.381 122.435 187.884 105.838C185.268 105.35 182.622 105.026 179.962 104.869C176.614 104.682 173.257 104.682 169.909 104.869C167.614 105.089 165.34 105.479 163.106 106.037C163.106 106.037 160.915 108.449 160.921 120.047Z" fill="#ECD28B"/>
<path opacity="0.5" d="M160.921 120.047C160.921 121.507 160.957 123.113 161.041 124.882C161.258 129.695 161.8 135.692 162.847 143.144H186.5C186.662 139.64 184.381 122.435 187.884 105.838C185.268 105.35 182.622 105.026 179.962 104.869C176.614 104.682 173.257 104.682 169.909 104.869C167.614 105.089 165.34 105.479 163.106 106.037C163.106 106.037 160.915 108.449 160.921 120.047Z" fill="black"/>
<path d="M160.921 120.047C160.921 121.507 160.957 123.113 161.041 124.883C163.817 122.255 164.003 116.888 164.003 116.888L160.921 120.047Z" fill="#ECD28B"/>
<path opacity="0.6" d="M160.921 120.047C160.921 121.507 160.957 123.113 161.041 124.883C163.817 122.255 164.003 116.888 164.003 116.888L160.921 120.047Z" fill="black"/>
<path d="M165.851 113.383C165.396 114.122 164.893 114.832 164.346 115.509C163.846 116.14 163.346 116.736 162.835 117.325C161.817 118.493 160.728 119.621 159.62 120.713C157.35 122.948 154.837 124.937 152.125 126.646C151.395 127.089 150.642 127.495 149.868 127.861L149.561 128.001L149.41 128.071L149.223 128.147C148.926 128.269 148.62 128.37 148.308 128.451L147.869 128.562L147.448 128.632C147.179 128.677 146.907 128.706 146.635 128.719C144.823 128.777 143.014 128.53 141.289 127.989C138.24 127.069 135.334 125.751 132.65 124.071L134.077 121.151C136.815 121.946 139.604 122.562 142.427 122.996C143.621 123.191 144.839 123.206 146.039 123.043C146.141 123.027 146.242 123.001 146.34 122.967L146.472 122.932L146.569 122.891C146.647 122.891 146.665 122.833 146.713 122.815L147.074 122.611C147.629 122.298 148.165 121.957 148.682 121.589C150.903 119.967 152.969 118.153 154.852 116.169C155.833 115.171 156.779 114.125 157.7 113.086C158.157 112.56 158.603 112.034 159.018 111.503C159.433 110.972 159.861 110.428 160.108 110.055L165.851 113.383Z" fill="#FF8B7B"/>
<path d="M134.727 121.939L131.79 118.552L129.791 123.504C129.791 123.504 132.325 124.672 134.3 123.995L134.727 121.939Z" fill="#FF8B7B"/>
<path d="M127.48 117.811L126.661 121.764L129.792 123.499L131.79 118.546L127.48 117.811Z" fill="#FF8B7B"/>
<path d="M169.396 111.06C168.872 115.148 159.313 123.762 159.313 123.762L150.704 117.139C152.868 114.036 155.398 111.188 158.241 108.653C164.478 103.409 170.028 106.177 169.396 111.06Z" fill="#ECD28B"/>
<path opacity="0.5" d="M169.396 111.06C168.872 115.148 159.313 123.762 159.313 123.762L150.704 117.139C152.868 114.036 155.398 111.188 158.241 108.653C164.478 103.409 170.028 106.177 169.396 111.06Z" fill="black"/>
<path d="M161.938 138.654C170.528 138.654 172.491 129.228 172.942 125.181C171.857 118.336 169.344 111.778 165.556 105.909C165.509 105.837 165.481 105.755 165.474 105.671C165.468 105.586 165.483 105.501 165.518 105.423C165.553 105.345 165.607 105.277 165.675 105.224C165.744 105.172 165.825 105.136 165.911 105.12L167.795 104.782C167.902 104.765 168.012 104.778 168.112 104.821C168.211 104.863 168.296 104.933 168.355 105.021C173.526 113.051 175.218 119.86 175.765 123.364H177.307C178.884 120.036 182.357 112.45 182.074 105.342C182.069 105.266 182.082 105.19 182.111 105.119C182.14 105.048 182.185 104.984 182.242 104.932C182.3 104.88 182.369 104.841 182.444 104.818C182.519 104.795 182.598 104.789 182.676 104.799L184.699 104.992C184.829 105 184.951 105.055 185.043 105.146C185.134 105.236 185.187 105.356 185.193 105.482C185.488 112.333 181.496 121.834 179.961 124.854C180.485 136.031 186.896 137.964 186.896 137.964C187.054 140.744 186.927 143.532 186.517 146.286C172.942 148.424 166.176 147.122 162.305 145.568C162.606 142.759 162.064 140.791 161.938 138.654Z" fill="#ECD28B"/>
<path opacity="0.3" d="M161.938 138.654C170.528 138.654 172.491 129.228 172.942 125.181C171.857 118.336 169.344 111.778 165.556 105.909C165.509 105.837 165.481 105.755 165.474 105.671C165.468 105.586 165.483 105.501 165.518 105.423C165.553 105.345 165.607 105.277 165.675 105.224C165.744 105.172 165.825 105.136 165.911 105.12L167.795 104.782C167.902 104.765 168.012 104.778 168.112 104.821C168.211 104.863 168.296 104.933 168.355 105.021C173.526 113.051 175.218 119.86 175.765 123.364H177.307C178.884 120.036 182.357 112.45 182.074 105.342C182.069 105.266 182.082 105.19 182.111 105.119C182.14 105.048 182.185 104.984 182.242 104.932C182.3 104.88 182.369 104.841 182.444 104.818C182.519 104.795 182.598 104.789 182.676 104.799L184.699 104.992C184.829 105 184.951 105.055 185.043 105.146C185.134 105.236 185.187 105.356 185.193 105.482C185.488 112.333 181.496 121.834 179.961 124.854C180.485 136.031 186.896 137.964 186.896 137.964C187.054 140.744 186.927 143.532 186.517 146.286C172.942 148.424 166.176 147.122 162.305 145.568C162.606 142.759 162.064 140.791 161.938 138.654Z" fill="black"/>
<path d="M161.878 228.771L162.107 233.892H166.531L166.303 228.771H161.878Z" fill="#FF5652"/>
<path d="M201.284 213.872L197.696 216.383L202.061 219.642L205.649 217.131L201.284 213.872Z" fill="#FF5652"/>
<path d="M179.071 91.1799C178.126 95.338 177.789 97.82 175.254 99.6421C171.444 102.387 166.411 99.6421 166.056 95.303C165.737 91.3902 167.332 85.2465 171.841 84.207C172.834 83.9842 173.868 84.0094 174.848 84.2801C175.827 84.5509 176.72 85.0584 177.443 85.7551C178.165 86.4518 178.693 87.3149 178.978 88.2637C179.263 89.2125 179.295 90.2159 179.071 91.1799Z" fill="#FF8B7B"/>
<path d="M182.894 84.7264C186.656 84.8256 185.109 86.747 183.225 87.804C183.225 87.804 185.398 88.8144 184.279 91.2263C182.581 94.888 179.33 98.9117 176.013 98.6898C171.883 98.4153 170.709 94.0587 170.86 89.7604C168.681 87.769 168.313 86.6711 167.976 84.2767C167.296 79.5288 170.366 76.9183 182.894 84.7264Z" fill="#263238"/>
<path d="M178.048 76.7264C180.623 77.3673 182.831 78.9744 184.186 81.1943C185.541 83.4141 185.931 86.065 185.272 88.5641L165.833 83.7519C166.159 82.5122 166.733 81.3469 167.524 80.3228C168.314 79.2986 169.305 78.4356 170.439 77.7831C171.574 77.1306 172.829 76.7015 174.135 76.5201C175.44 76.3388 176.77 76.4089 178.048 76.7264Z" fill="#ECD28B"/>
<path opacity="0.5" d="M178.048 76.7264C180.623 77.3673 182.831 78.9744 184.186 81.1943C185.541 83.4141 185.931 86.065 185.272 88.5641L165.833 83.7519C166.159 82.5122 166.733 81.3469 167.524 80.3228C168.314 79.2986 169.305 78.4356 170.439 77.7831C171.574 77.1306 172.829 76.7015 174.135 76.5201C175.44 76.3388 176.77 76.4089 178.048 76.7264Z" fill="white"/>
<path d="M181.888 88.5753C181.753 88.5772 181.62 88.5488 181.499 88.4922C181.378 88.4357 181.272 88.3526 181.19 88.2495C181.108 88.1464 181.051 88.0261 181.025 87.8982C180.999 87.7703 181.004 87.6382 181.039 87.5124C181.309 86.4518 181.347 85.3479 181.149 84.2723C180.95 83.1968 180.521 82.1737 179.889 81.2695C178.537 79.295 176.467 77.8875 174.092 77.3275C173.866 77.2717 173.672 77.1312 173.553 76.9368C173.434 76.7424 173.399 76.51 173.457 76.2909C173.514 76.0717 173.659 75.8837 173.86 75.7681C174.06 75.6526 174.299 75.619 174.525 75.6748C177.328 76.3427 179.768 78.0109 181.358 80.3468C182.124 81.4476 182.643 82.6923 182.881 84.0001C183.12 85.3079 183.073 86.6498 182.743 87.9388C182.693 88.1219 182.582 88.2838 182.428 88.3991C182.273 88.5143 182.083 88.5763 181.888 88.5753Z" fill="#ECD28B"/>
<path opacity="0.3" d="M181.888 88.5753C181.753 88.5772 181.62 88.5488 181.499 88.4922C181.378 88.4357 181.272 88.3526 181.19 88.2495C181.108 88.1464 181.051 88.0261 181.025 87.8982C180.999 87.7703 181.004 87.6382 181.039 87.5124C181.309 86.4518 181.347 85.3479 181.149 84.2723C180.95 83.1968 180.521 82.1737 179.889 81.2695C178.537 79.295 176.467 77.8875 174.092 77.3275C173.866 77.2717 173.672 77.1312 173.553 76.9368C173.434 76.7424 173.399 76.51 173.457 76.2909C173.514 76.0717 173.659 75.8837 173.86 75.7681C174.06 75.6526 174.299 75.619 174.525 75.6748C177.328 76.3427 179.768 78.0109 181.358 80.3468C182.124 81.4476 182.643 82.6923 182.881 84.0001C183.12 85.3079 183.073 86.6498 182.743 87.9388C182.693 88.1219 182.582 88.2838 182.428 88.3991C182.273 88.5143 182.083 88.5763 181.888 88.5753Z" fill="white"/>
<path d="M163.142 84.003L186.018 89.6678C186.256 89.7263 186.508 89.6909 186.719 89.5694C186.93 89.4479 187.082 89.2501 187.143 89.0196C187.204 88.788 187.168 88.5428 187.042 88.3371C186.917 88.1315 186.713 87.9821 186.475 87.9216L163.599 82.2568C163.36 82.1984 163.106 82.2344 162.894 82.357C162.682 82.4796 162.529 82.6788 162.468 82.9109C162.438 83.0256 162.432 83.1448 162.449 83.2618C162.467 83.3787 162.509 83.4912 162.571 83.5926C162.634 83.694 162.716 83.7825 162.814 83.8529C162.912 83.9233 163.023 83.9743 163.142 84.003Z" fill="#ECD28B"/>
<path opacity="0.3" d="M163.142 84.003L186.018 89.6678C186.256 89.7263 186.508 89.6909 186.719 89.5694C186.93 89.4479 187.082 89.2501 187.143 89.0196C187.204 88.788 187.168 88.5428 187.042 88.3371C186.917 88.1315 186.713 87.9821 186.475 87.9216L163.599 82.2568C163.36 82.1984 163.106 82.2344 162.894 82.357C162.682 82.4796 162.529 82.6788 162.468 82.9109C162.438 83.0256 162.432 83.1448 162.449 83.2618C162.467 83.3787 162.509 83.4912 162.571 83.5926C162.634 83.694 162.716 83.7825 162.814 83.8529C162.912 83.9233 163.023 83.9743 163.142 84.003Z" fill="white"/>
<path d="M173.117 90.7883C173.005 91.8407 172.535 92.8269 171.781 93.5915C170.781 94.5901 169.794 93.9185 169.668 92.6571C169.553 91.5241 169.939 89.6378 171.137 89.1122C172.334 88.5866 173.244 89.521 173.117 90.7883Z" fill="#FF8B7B"/>
<path d="M171.227 143.145C171.227 143.145 170.715 173.676 174.67 185.648C180.937 204.611 199.864 219.97 199.864 219.97L206.63 215.233C206.63 215.233 190.87 202.257 187.98 186.296C185.386 171.947 186.487 154.877 186.487 143.156L171.227 143.145Z" fill="#ECD28B"/>
<path opacity="0.3" d="M171.227 143.145C171.227 143.145 170.715 173.676 174.67 185.648C180.937 204.611 199.864 219.97 199.864 219.97L206.63 215.233C206.63 215.233 190.87 202.257 187.98 186.296C185.386 171.947 186.487 154.877 186.487 143.156L171.227 143.145Z" fill="black"/>
<path d="M175.64 148.388C176.476 153.89 173.521 169.208 172.497 174.224C171.426 164.845 171.227 153.72 171.209 147.647C173.376 146.222 175.254 145.854 175.64 148.388Z" fill="#ECD28B"/>
<path opacity="0.4" d="M175.64 148.388C176.476 153.89 173.521 169.208 172.497 174.224C171.426 164.845 171.227 153.72 171.209 147.647C173.376 146.222 175.254 145.854 175.64 148.388Z" fill="black"/>
<path d="M196.968 218.586C196.938 218.586 199.749 220.192 199.749 220.192L207.136 215.017L204.68 213.189L196.968 218.586Z" fill="#ECD28B"/>
<path opacity="0.4" d="M196.968 218.586C196.938 218.586 199.749 220.192 199.749 220.192L207.136 215.017L204.68 213.189L196.968 218.586Z" fill="white"/>
<path d="M162.835 143.145C162.835 143.145 156.171 170.534 155.702 183.616C155.178 198.292 160.457 232.899 160.457 232.899H167.958C167.958 232.899 168.885 198.023 169.216 184.655C169.578 170.084 178.397 143.145 178.397 143.145H162.835Z" fill="#ECD28B"/>
<path opacity="0.3" d="M162.835 143.145C162.835 143.145 156.171 170.534 155.702 183.616C155.178 198.292 160.457 232.899 160.457 232.899H167.958C167.958 232.899 168.885 198.023 169.216 184.655C169.578 170.084 178.397 143.145 178.397 143.145H162.835Z" fill="black"/>
<path d="M159.012 230.003C158.982 230.003 159.44 233.022 159.44 233.022H168.56L168.807 230.33L159.012 230.003Z" fill="#ECD28B"/>
<path opacity="0.4" d="M159.012 230.003C158.982 230.003 159.44 233.022 159.44 233.022H168.56L168.807 230.33L159.012 230.003Z" fill="white"/>
</svg>
